<svg width="64" height="54" viewBox="0 0 64 54" fill="none" xmlns="http://www.w3.org/2000/svg">
<path fill-rule="evenodd" clip-rule="evenodd" d="M16.6623 26.0754C11.8851 27.6539 6.44365 26.0191 3.3959 21.6915C-0.333602 16.3971 0.935398 9.08138 6.22927 5.35138C11.5231 1.62138 18.8383 2.89051 22.5679 8.18488C25.6155 12.509 25.3273 18.1866 22.2304 22.1521L23.2779 29.5488L16.6623 26.0754Z" fill="#8FC9AE"/>
<path fill-rule="evenodd" clip-rule="evenodd" d="M35.5881 11.6476C39.2966 14.1753 43.8417 15.128 50.7315 15.2265C52.686 14.2246 56.0184 12.6074 55.4384 1.94838C45.1354 6.33576 35.7427 -1.38787 32.6319 5.63613C29.4155 7.39038 29.4155 11.1028 29.4155 15.2265C31.9745 14.432 33.6196 13.7535 35.5881 11.6476Z" fill="#548E87"/>
<path fill-rule="evenodd" clip-rule="evenodd" d="M40.7272 52.0517H59.2277C62.3985 52.0517 63.2175 51.0006 62.4969 47.7557C61.2946 42.3277 58.943 36.5236 51.7087 33.8131L45.6942 43.0414L40.084 36.9137L34.4737 43.0414L28.4592 33.8131C21.2215 36.5236 18.8699 42.3277 17.6711 47.7557C16.9505 51.0006 17.7695 52.0517 20.9402 52.0517H28.635H34.6811H34.6881H40.7272Z" fill="#8FC9AE"/>
<path fill-rule="evenodd" clip-rule="evenodd" d="M34.4738 43.0414L40.084 36.9137L33.3314 32.6003C31.4965 32.8674 29.883 33.2823 28.4594 33.8131L34.4738 43.0414Z" fill="#CED7DA"/>
<path fill-rule="evenodd" clip-rule="evenodd" d="M45.6943 43.0414L51.7088 33.8131C50.2851 33.2823 48.6681 32.8675 46.8368 32.6003L40.0841 36.9137L45.6943 43.0414Z" fill="#CED7DA"/>
<path d="M22.6919 30.665C22.876 30.7618 23.0773 30.8095 23.2778 30.8095C23.5331 30.8095 23.7876 30.732 24.0043 30.5793C24.391 30.3066 24.5925 29.8405 24.5261 29.372L23.5514 22.4894C25.0293 20.4173 25.8819 17.9008 25.9634 15.343C26.0536 12.5083 25.2358 9.78189 23.5985 7.45876C21.6008 4.62289 18.6183 2.73451 15.2005 2.14176C11.7826 1.54901 8.33863 2.32276 5.503 4.32076C-0.350871 8.44539 -1.7585 16.5635 2.36513 22.4175C4.00213 24.742 6.29463 26.4299 8.9945 27.2985C11.4294 28.0819 14.0859 28.1261 16.5353 27.4328L22.6919 30.665ZM4.42663 20.9655C1.1035 16.248 2.23788 9.70589 6.95538 6.38189C9.2405 4.77189 12.0159 4.14851 14.7696 4.62614C17.5239 5.10389 19.9273 6.62551 21.5374 8.91114C24.1723 12.6498 24.0486 17.7755 21.2366 21.3761C21.026 21.646 20.934 21.9899 20.982 22.3289L21.6844 27.2883L17.2484 24.9591C17.0658 24.8634 16.8645 24.8146 16.6624 24.8146C16.5293 24.8146 16.3958 24.8358 16.2669 24.8784C11.8588 26.3349 7.10063 24.7625 4.42663 20.9655Z" fill="black"/>
<path d="M12.7254 6.95576C10.6114 6.95576 8.8916 8.67576 8.8916 10.7899V11.2891C8.8916 11.9854 9.45598 12.5499 10.1522 12.5499C10.8485 12.5499 11.4129 11.9854 11.4129 11.2891V10.7899C11.4129 10.0784 12.0139 9.47726 12.7252 9.47726C13.4366 9.47726 14.0376 10.0784 14.0376 10.7899V11.2891C14.0376 11.4824 13.6312 11.9679 13.3622 12.2893C12.7657 13.0019 12.0235 13.8888 12.0235 15.1035V16.6784C12.0235 17.3746 12.5879 17.9391 13.2841 17.9391C13.9804 17.9391 14.5447 17.3748 14.5447 16.6784V15.1035C14.5447 14.8048 14.9437 14.3281 15.2956 13.9076C15.8585 13.2353 16.5589 12.3984 16.5589 11.2893V10.79C16.5591 8.67576 14.8392 6.95576 12.7254 6.95576Z" fill="black"/>
<path d="M13.2877 20.234C12.5914 20.234 12.027 20.7984 12.027 21.4947V21.4982C12.027 22.1945 12.5914 22.7572 13.2877 22.7572C13.9839 22.7572 14.5483 22.1911 14.5483 21.4947C14.5484 20.7984 13.9839 20.234 13.2877 20.234Z" fill="black"/>
<path d="M63.7278 47.4834C62.3144 41.0968 59.2474 33.583 48.0974 31.5304V26.815C50.5782 24.2923 51.9922 21.472 51.9922 19.0163V15.9868C52.9843 15.433 54.215 14.558 55.1732 12.7548C56.4645 10.324 56.9632 6.76676 56.6972 1.87976C56.6748 1.46926 56.4537 1.09538 56.1047 0.878131C55.7558 0.660755 55.3229 0.627255 54.9444 0.78838C50.4447 2.70451 46.1173 2.14701 42.2995 1.65526C39.961 1.35401 37.9413 1.09401 36.1334 1.41326C34.0717 1.77751 32.6043 2.86888 31.659 4.74451C28.1548 6.92826 28.1547 11.1446 28.1547 15.2265V19.0163C28.1547 21.479 29.5768 24.3083 32.0705 26.8365V31.5304C20.9204 33.583 17.8534 41.0966 16.4402 47.4825C16.1243 48.905 15.8897 50.6973 16.8872 51.9405C17.8629 53.1566 19.5655 53.3126 20.9402 53.3126H28.6348C29.331 53.3126 29.8954 52.7481 29.8954 52.0519C29.8954 51.3556 29.331 50.7911 28.6348 50.7911H20.9402C19.424 50.7911 18.9823 50.5226 18.8539 50.3626C18.7164 50.1911 18.5395 49.66 18.9019 48.0283C19.9837 43.1403 21.973 38.0368 27.9742 35.378L33.4174 43.7299C33.6302 44.0564 33.9819 44.2661 34.3704 44.298C34.4049 44.3009 34.4394 44.3023 34.4737 44.3023C34.8257 44.3023 35.1635 44.1548 35.4034 43.8929L40.0838 38.7809L44.7643 43.8929C45.004 44.1549 45.342 44.3023 45.694 44.3023C45.7283 44.3023 45.7628 44.3009 45.7973 44.298C46.1858 44.2661 46.5375 44.0564 46.7503 43.7299L52.1935 35.378C58.1947 38.0368 60.1842 43.1404 61.2659 48.0291C61.6282 49.66 61.4514 50.1911 61.3138 50.3625C61.1854 50.5225 60.7437 50.791 59.2275 50.791H40.7273C40.031 50.791 39.4667 51.3554 39.4667 52.0518C39.4667 52.748 40.0312 53.3125 40.7273 53.3125H59.2278C60.6023 53.3125 62.305 53.1565 63.2808 51.9404C64.2783 50.6971 64.0435 48.9049 63.7278 47.4834ZM33.2354 6.74288C33.4792 6.61001 33.672 6.40038 33.7844 6.14663C35.0065 3.38738 37.3062 3.55426 41.9774 4.15601C45.4743 4.60651 49.732 5.15476 54.2399 3.73351C54.2914 7.22463 53.8577 9.85638 52.9464 11.5715C52.2084 12.9605 51.2834 13.5193 50.4357 13.9606C43.7138 13.8371 39.6037 12.8589 36.298 10.6058C36.082 10.4585 35.8345 10.3868 35.5885 10.3868C35.2494 10.3868 34.9132 10.5233 34.6672 10.7865C33.3778 12.1656 32.2845 12.8573 30.6897 13.4643C30.757 10.082 31.1432 7.88413 33.2354 6.74288ZM30.6762 19.0163V16.1465C32.5144 15.5354 34.0823 14.829 35.7629 13.2568C39.1727 15.3081 43.2922 16.2675 49.4708 16.4591V19.0163C49.4708 20.8821 48.1662 23.255 45.9809 25.3638C43.9702 27.3043 41.5962 28.6079 40.0734 28.6079C38.5507 28.6079 36.1767 27.3041 34.1659 25.3638C31.9808 23.255 30.6762 20.8821 30.6762 19.0163ZM34.642 40.9906L30.4132 34.5023C31.2325 34.269 32.1108 34.073 33.0538 33.9189L38.1412 37.1688L34.642 40.9906ZM34.592 31.9096V28.9841C36.5157 30.34 38.4864 31.1295 40.0735 31.1295C41.6664 31.1295 43.6458 30.3341 45.576 28.969V31.9096L40.084 35.4179L34.592 31.9096ZM45.526 40.9908L42.0268 37.1688L47.1143 33.9189C48.0573 34.073 48.9357 34.269 49.7549 34.5023L45.526 40.9908Z" fill="black"/>
<path d="M34.6811 50.791C33.9848 50.791 33.4205 51.3554 33.4205 52.0517C33.4205 52.748 33.9848 53.3125 34.6811 53.3125H34.6882C35.3845 53.3125 35.9453 52.7481 35.9453 52.0517C35.9453 51.3554 35.3773 50.791 34.6811 50.791Z" fill="black"/>
</svg>
