<svg width="64" height="64" viewBox="0 0 64 64" fill="none" xmlns="http://www.w3.org/2000/svg">
<path fill-rule="evenodd" clip-rule="evenodd" d="M20.1106 53.8813C18.8492 53.8813 17.8146 54.9159 17.8146 56.1773V60.4504C17.8146 61.7153 18.8492 62.7499 20.1106 62.7499H43.6944C44.9592 62.7499 45.9904 61.7153 45.9904 60.4504V56.1773C45.9904 54.9159 44.9557 53.8813 43.6944 53.8813H42.5889H21.2161H20.1106Z" fill="#548E87"/>
<path fill-rule="evenodd" clip-rule="evenodd" d="M5.4275 16.3903V29.9113H11.6849V16.3903H15.8659L8.55612 6.02988L1.25 16.3903H5.4275Z" fill="#8FC9AE"/>
<path fill-rule="evenodd" clip-rule="evenodd" d="M8.55612 39.7791L1.25 50.1396H5.4275V59.9119H11.6849V50.1396H15.8659L8.55612 39.7791Z" fill="white"/>
<path fill-rule="evenodd" clip-rule="evenodd" d="M52.3116 11.6104V36.3812H58.569V11.6104H62.6543V11.4757L55.4402 1.25L48.1306 11.6104H52.3116Z" fill="#8FC9AE"/>
<path d="M1.24999 17.6403H4.17749V29.9113C4.17749 30.6015 4.73724 31.1613 5.42749 31.1613H11.6849C12.3751 31.1613 12.9349 30.6015 12.9349 29.9113V17.6403H15.8659C16.3327 17.6403 16.7607 17.38 16.9756 16.9655C17.1906 16.551 17.1564 16.0513 16.8872 15.6698L9.57749 5.30925C9.34324 4.97725 8.96224 4.77988 8.55599 4.77988C8.14961 4.77988 7.76874 4.97738 7.53461 5.3095L0.228486 15.6699C-0.0406391 16.0514 -0.0746391 16.5511 0.140236 16.9655C0.355111 17.3801 0.783111 17.6403 1.24999 17.6403ZM8.55636 8.19838L13.4541 15.1403H11.6849C10.9946 15.1403 10.4349 15.7 10.4349 16.3903V28.6613H6.67749V16.3903C6.67749 15.7 6.11774 15.1403 5.42749 15.1403H3.66099L8.55636 8.19838Z" fill="black"/>
<path d="M16.9756 50.7149C17.1906 50.3004 17.1564 49.8006 16.8872 49.4191L9.57749 39.0586C9.34324 38.7266 8.96224 38.5292 8.55599 38.5292C8.14961 38.5292 7.76874 38.7267 7.53461 39.0589L0.228486 49.4194C-0.0406391 49.8009 -0.0746391 50.3006 0.140236 50.715C0.355111 51.1295 0.783111 51.3896 1.24999 51.3896H4.17749V59.9119C4.17749 60.6021 4.73724 61.1619 5.42749 61.1619H11.6849C12.3751 61.1619 12.9349 60.6021 12.9349 59.9119V51.3896H15.8659C16.3327 51.3896 16.7607 51.1294 16.9756 50.7149ZM11.6849 48.8896C10.9946 48.8896 10.4349 49.4494 10.4349 50.1396V58.6619H6.67749V50.1396C6.67749 49.4494 6.11774 48.8896 5.42749 48.8896H3.66099L8.55636 41.9477L13.4541 48.8896H11.6849Z" fill="black"/>
<path d="M43.8291 19.4984C43.1355 19.4984 42.4807 19.6663 41.9017 19.9619C41.3474 17.9979 39.5406 16.5539 37.4016 16.5539C36.0494 16.5539 34.83 17.1315 33.9754 18.0523C33.1207 17.1315 31.9014 16.5539 30.5491 16.5539C29.1967 16.5539 27.9774 17.1315 27.1227 18.0523C26.2681 17.1315 25.0487 16.5539 23.6965 16.5539C21.118 16.5539 19.0202 18.6516 19.0202 21.2303V25.0258H19.0087C17.3055 25.0258 15.9199 26.4131 15.9199 28.1183V40.2858C15.9199 42.4226 16.8882 44.3909 18.6465 45.828C20.1819 47.0826 20.1579 47.6544 20.0421 50.4023C20.0159 51.0283 19.9847 51.775 19.9721 52.6346C18.0809 52.7078 16.5647 54.2683 16.5647 56.1771V60.4504C16.5647 62.4076 18.1555 64 20.1107 64H43.6945C45.6499 64 47.2405 62.4078 47.2405 60.4504V56.1771C47.2405 54.2703 45.7275 52.711 43.839 52.6348V52.4993C43.839 51.7579 43.8205 51.085 43.804 50.4913C43.7271 47.7079 43.7632 46.8619 45.0764 45.8805C46.9831 44.447 48.0767 42.3471 48.0767 40.1193V31.541V27.9553V23.7458C48.0766 21.4039 46.1712 19.4984 43.8291 19.4984ZM35.2254 21.2304C35.2254 20.0303 36.2017 19.054 37.4016 19.054C38.6017 19.054 39.578 20.0304 39.578 21.2304V23.746V32.799C39.578 33.9991 38.6016 34.9754 37.4016 34.9754C36.2016 34.9754 35.2254 33.999 35.2254 32.799V21.2304ZM28.3726 21.2304C28.3726 20.0303 29.349 19.054 30.549 19.054C31.749 19.054 32.7252 20.0304 32.7252 21.2304V25.2408C31.7545 25.0266 30.5169 25.0259 28.9899 25.0259H28.3726V21.2304ZM21.5201 21.2304C21.5201 20.0303 22.4965 19.054 23.6964 19.054C24.8962 19.054 25.8726 20.0304 25.8726 21.2304V25.0259H21.5201V21.2304ZM44.7405 56.1773V60.4505C44.7405 61.0293 44.2712 61.5 43.6945 61.5H20.1107C19.5437 61.5 19.0647 61.0194 19.0647 60.4505V56.1773C19.0647 55.6103 19.5437 55.1313 20.1107 55.1313H43.6945C44.2615 55.1313 44.7405 55.6103 44.7405 56.1773ZM45.5766 40.1194C45.5766 41.5751 44.8655 42.9115 43.5769 43.8801C41.17 45.6789 41.2266 47.7265 41.3049 50.5603C41.3209 51.1379 41.3389 51.7925 41.3389 52.4994V52.6313H22.4722C22.4845 51.8311 22.5135 51.1368 22.54 50.5075C22.664 47.5613 22.7322 45.9383 20.2286 43.8924C19.0622 42.9391 18.4199 41.6584 18.4199 40.2859V28.1184C18.4199 27.7973 18.6895 27.5259 19.0087 27.5259H28.9901C30.4905 27.5259 31.6755 27.5259 32.3462 27.7213C32.688 27.8209 32.7255 27.845 32.7255 28.2389C32.7255 31.3243 29.2404 31.8414 27.1629 31.8751C27.159 31.8753 27.155 31.8754 27.1511 31.8754C26.9825 31.8778 24.9621 31.8785 23.6364 31.8785C23.6147 31.8785 23.5957 31.8795 23.5791 31.8814C22.9155 31.9115 22.3864 32.4575 22.3864 33.1285C22.3864 33.7695 22.8691 34.2971 23.4907 34.3694C23.4944 34.3759 23.5374 34.3785 23.6364 34.3785C25.88 34.3785 27.7755 37.1161 27.7755 40.3566C27.7755 41.0469 28.3352 41.6066 29.0255 41.6066C29.7157 41.6066 30.2755 41.0469 30.2755 40.3566C30.2755 38.158 29.627 36.0774 28.4491 34.4979C28.4029 34.436 28.3549 34.3773 28.3075 34.3173C30.1046 34.1598 31.5966 33.689 32.7292 32.9454C32.8071 35.4563 34.8725 37.4753 37.4017 37.4753C39.1524 37.4753 40.6804 36.5078 41.4819 35.08C42.155 35.5273 42.962 35.7885 43.8292 35.7885C44.452 35.7885 45.0434 35.6526 45.5767 35.4109V40.1194H45.5766ZM45.5766 31.5411C45.5766 32.5048 44.7927 33.2886 43.8291 33.2886C42.8635 33.2886 42.078 32.5048 42.078 31.5411V23.746C42.078 22.7824 42.8635 21.9985 43.8291 21.9985C44.7927 21.9985 45.5766 22.7824 45.5766 23.746V31.5411Z" fill="black"/>
<path d="M63.7714 10.8899L56.4616 0.529375C56.2274 0.197375 55.8465 0 55.4403 0C55.034 0 54.6531 0.197375 54.4189 0.529375L47.1091 10.8899C46.84 11.2714 46.8058 11.7711 47.0208 12.1856C47.2356 12.6001 47.6636 12.8604 48.1305 12.8604H51.0615V36.3812C51.0615 37.0715 51.6213 37.6312 52.3115 37.6312H58.5689C59.2591 37.6312 59.8189 37.0715 59.8189 36.3812V29.603C59.8189 28.9128 59.2591 28.353 58.5689 28.353C57.8786 28.353 57.3189 28.9128 57.3189 29.603V35.1312H53.5615V11.6105C53.5615 10.9202 53.0018 10.3605 52.3115 10.3605H50.5423L55.4403 3.41825L60.3383 10.3605H58.569C57.8788 10.3605 57.319 10.9202 57.319 11.6105V18.3781C57.319 19.0684 57.8788 19.6281 58.569 19.6281C59.2593 19.6281 59.819 19.0684 59.819 18.3781V12.8605H62.75C63.2169 12.8605 63.6449 12.6003 63.8597 12.1858C64.0747 11.7711 64.0405 11.2714 63.7714 10.8899Z" fill="black"/>
<path d="M58.569 22.7405C57.8787 22.7405 57.319 23.3002 57.319 23.9905V23.994C57.319 24.6842 57.8787 25.2422 58.569 25.2422C59.2592 25.2422 59.819 24.6807 59.819 23.9904C59.819 23.3 59.2592 22.7405 58.569 22.7405Z" fill="black"/>
</svg>
