<svg width="60" height="64" viewBox="0 0 60 64" fill="none" xmlns="http://www.w3.org/2000/svg">
<path fill-rule="evenodd" clip-rule="evenodd" d="M58.4499 45.3427H1.55011V48.7217C1.55011 50.1256 2.69973 51.2754 4.10361 51.2754H22.0889H37.9111H55.8964C57.3002 51.2754 58.4499 50.1257 58.4499 48.7217V45.3427Z" fill="#8FC9AE"/>
<path fill-rule="evenodd" clip-rule="evenodd" d="M36.5182 51.2754H23.4817L20.4455 57.7423H39.5545L36.5182 51.2754Z" fill="white"/>
<path fill-rule="evenodd" clip-rule="evenodd" d="M39.5545 57.7422H20.4455H18.2236C16.8455 57.7422 15.718 58.8699 15.718 60.248V62.75H44.2821V60.248C44.2821 58.8699 43.1546 57.7422 41.7765 57.7422H39.5545Z" fill="#8FC9AE"/>
<path fill-rule="evenodd" clip-rule="evenodd" d="M45.4427 23.1454C45.0411 24.9362 44.3336 26.6127 43.383 28.1162L44.4552 29.1885C45.0227 29.756 45.0227 30.6771 44.4552 31.2446L41.5811 34.1187C41.0174 34.6825 40.0925 34.6825 39.5287 34.1187L38.4527 33.0427C36.9494 33.9971 35.2765 34.7009 33.4857 35.1026V36.6207C33.4857 37.4204 32.8335 38.0726 32.034 38.0726H27.966C27.1664 38.0726 26.5142 37.4204 26.5142 36.6207V35.1026C24.7235 34.701 23.0506 33.9971 21.5472 33.0427L20.4712 34.1187C19.9075 34.6825 18.9826 34.6825 18.4189 34.1187L15.5447 31.2446C14.9772 30.6771 14.9772 29.756 15.5447 29.1885L16.617 28.1162C15.6664 26.6129 14.9589 24.9362 14.5572 23.1454H13.0391C12.2432 23.1454 11.5874 22.4931 11.5874 21.6935V17.6291H4.07411C2.67023 17.6291 1.55011 18.7787 1.55011 20.1827V45.3429H58.4499V20.1827C58.4499 18.7789 57.3002 17.6291 55.8964 17.6291H48.4126V21.6935C48.4126 22.4931 47.7567 23.1454 46.9609 23.1454H45.4427Z" fill="white"/>
<path fill-rule="evenodd" clip-rule="evenodd" d="M40.4425 19.6631C40.4425 13.8964 35.7666 9.22025 30 9.22025C24.2334 9.22025 19.5575 13.8964 19.5575 19.6631C19.5575 25.4299 24.2335 30.1022 30 30.1022C35.7665 30.1022 40.4425 25.4299 40.4425 19.6631Z" fill="white"/>
<path fill-rule="evenodd" clip-rule="evenodd" d="M38.4527 6.27975C36.9494 5.32537 35.2765 4.62162 33.4857 4.21987V2.70187C33.4857 1.90225 32.8335 1.25 32.034 1.25H27.966C27.1664 1.25 26.5142 1.90225 26.5142 2.70187V4.22C24.7235 4.62162 23.0506 5.3255 21.5472 6.27987L20.4712 5.20388C19.9075 4.64013 18.9826 4.64013 18.4189 5.20388L15.5447 8.08175C14.9772 8.6455 14.9772 9.57037 15.5447 10.1342L16.617 11.2102C15.6664 12.7136 14.9589 14.3866 14.5572 16.1774H13.0391C12.2432 16.1774 11.5874 16.8296 11.5874 17.6292V21.6936C11.5874 22.4932 12.2432 23.1455 13.0391 23.1455H14.5572C14.9589 24.9364 15.6664 26.6129 16.617 28.1164L15.5447 29.1886C14.9772 29.7561 14.9772 30.6772 15.5447 31.2447L18.4189 34.1189C18.9826 34.6826 19.9075 34.6826 20.4712 34.1189L21.5472 33.0429C23.0506 33.9972 24.7235 34.701 26.5142 35.1027V36.6209C26.5142 37.4205 27.1665 38.0728 27.966 38.0728H32.034C32.8336 38.0728 33.4857 37.4205 33.4857 36.6209V35.1027C35.2765 34.7011 36.9494 33.9972 38.4527 33.0429L39.5287 34.1189C40.0925 34.6826 41.0174 34.6826 41.5811 34.1189L44.4552 31.2447C45.0227 30.6772 45.0227 29.7561 44.4552 29.1886L43.383 28.1164C44.3336 26.613 45.0411 24.9364 45.4427 23.1455H46.9609C47.7567 23.1455 48.4126 22.4932 48.4126 21.6936V17.6292C48.4126 16.8296 47.7567 16.1774 46.9609 16.1774H45.4427C45.0411 14.3865 44.3336 12.7136 43.383 11.2102L44.4552 10.1342C45.0227 9.5705 45.0227 8.64563 44.4552 8.08175L41.5811 5.20388C41.0174 4.64013 40.0925 4.64013 39.5287 5.20388L38.4527 6.27975ZM30 9.22025C35.7666 9.22025 40.4425 13.8964 40.4425 19.6631C40.4425 25.4299 35.7666 30.1022 30 30.1022C24.2334 30.1022 19.5575 25.4299 19.5575 19.6631C19.5575 13.8964 24.2334 9.22025 30 9.22025Z" fill="#548E87"/>
<path d="M30 31.3523C36.4474 31.3523 41.6926 26.1086 41.6926 19.6631C41.6926 13.2156 36.4474 7.97025 30 7.97025C23.5526 7.97025 18.3074 13.2156 18.3074 19.6631C18.3074 26.1086 23.5526 31.3523 30 31.3523ZM30 10.4704C35.0687 10.4704 39.1926 14.5942 39.1926 19.6632C39.1926 24.7301 35.0689 28.8524 30 28.8524C24.9311 28.8524 20.8074 24.7301 20.8074 19.6632C20.8074 14.5942 24.9312 10.4704 30 10.4704Z" fill="black"/>
<path d="M30 20.4084C30.6904 20.4084 31.25 19.8486 31.25 19.1584V14.6886C31.25 13.9984 30.6904 13.4386 30 13.4386C29.3096 13.4386 28.75 13.9984 28.75 14.6886V19.1584C28.75 19.8486 29.3096 20.4084 30 20.4084Z" fill="black"/>
<path d="M30 25.8822C30.6904 25.8822 31.25 25.3207 31.25 24.6304C31.25 23.94 30.6904 23.3804 30 23.3804C29.3096 23.3804 28.75 23.9401 28.75 24.6304V24.634C28.75 25.3244 29.3096 25.8822 30 25.8822Z" fill="black"/>
<path d="M55.8964 16.3791H49.355C48.9031 15.5171 47.9999 14.9272 46.9609 14.9272H46.4126C46.0607 13.7048 45.5717 12.5265 44.9517 11.4067L45.3362 11.0209C45.8486 10.5118 46.1307 9.83237 46.1307 9.10787C46.1307 8.38338 45.8486 7.70413 45.3396 7.19838L42.465 4.32013C41.9562 3.81125 41.2779 3.531 40.5549 3.531C39.8319 3.531 39.1535 3.81113 38.6449 4.32L38.2555 4.70937C37.1399 4.09062 35.9619 3.60225 34.7357 3.24975V2.70175C34.7357 1.212 33.5237 0 32.034 0H27.966C26.4762 0 25.2642 1.212 25.2642 2.70175V3.24975C24.0381 3.60212 22.8602 4.09062 21.7445 4.70937L21.3551 4.32013C20.8464 3.81125 20.168 3.531 19.445 3.531C18.722 3.531 18.0436 3.81112 17.5344 4.3205L14.6637 7.195C14.1514 7.70413 13.8692 8.3835 13.8692 9.108C13.8692 9.8325 14.1514 10.5118 14.6595 11.0166L15.0484 11.4069C14.4282 12.5266 13.9394 13.7049 13.5875 14.9274H13.0392C12.0004 14.9274 11.097 15.5173 10.6451 16.3792H4.07411C1.99311 16.3792 0.30011 18.0855 0.30011 20.1829V48.722C0.30011 50.8193 2.00636 52.5256 4.10361 52.5256H21.5139L19.6514 56.4925H18.2235C16.1526 56.4925 14.4679 58.1774 14.4679 60.2482V62.75C14.4679 63.4403 15.0275 64 15.7179 64H44.282C44.9724 64 45.532 63.4403 45.532 62.75V60.248C45.532 58.1771 43.8472 56.4922 41.7764 56.4922H40.3485L38.486 52.5254H55.8962C57.9935 52.5254 59.6997 50.8191 59.6997 48.7217V20.1828C59.6999 18.0855 57.9936 16.3791 55.8964 16.3791ZM12.8374 17.6291C12.8374 17.5216 12.9316 17.4272 13.0391 17.4272H14.5572C15.1422 17.4272 15.6489 17.0216 15.777 16.4508C16.1397 14.8331 16.7779 13.2946 17.6735 11.8781C17.9855 11.3848 17.9144 10.7411 17.5024 10.3278L16.4257 9.24737C16.3789 9.20087 16.3691 9.14575 16.3691 9.10787C16.3691 9.07 16.379 9.01488 16.4291 8.96488L19.3027 6.0875C19.3496 6.04063 19.4059 6.03088 19.445 6.03088C19.484 6.03088 19.5404 6.04063 19.5872 6.08763L20.6631 7.1635C21.0771 7.57762 21.7227 7.64888 22.217 7.33488C23.6239 6.44175 25.1616 5.80412 26.7876 5.4395C27.3584 5.3115 27.7641 4.80475 27.7641 4.21975V2.70175C27.7641 2.59238 27.8565 2.5 27.9659 2.5H32.0339C32.1432 2.5 32.2356 2.59238 32.2356 2.70175V4.22C32.2356 4.805 32.6414 5.31163 33.2121 5.43975C34.8381 5.80438 36.376 6.44212 37.7827 7.33512C38.2769 7.64875 38.9226 7.5775 39.3366 7.16375L40.4125 6.08775C40.4594 6.04087 40.5157 6.03113 40.5547 6.03113C40.5939 6.03113 40.6501 6.04088 40.6965 6.08725L43.5741 8.9685C43.621 9.015 43.6307 9.07012 43.6307 9.108C43.6307 9.14587 43.6209 9.201 43.5697 9.25187L42.4975 10.3278C42.0855 10.7413 42.0144 11.3848 42.3264 11.8781C43.2221 13.2946 43.8601 14.8331 44.2229 16.4508C44.3509 17.0215 44.8576 17.4272 45.4426 17.4272H46.9607C47.0682 17.4272 47.1625 17.5216 47.1625 17.6291V21.6935C47.1625 21.801 47.0682 21.8953 46.9607 21.8953H45.4426C44.8576 21.8953 44.3509 22.3009 44.2229 22.8717C43.8592 24.4934 43.2211 26.033 42.3264 27.4481C42.014 27.9423 42.0857 28.5868 42.499 29.0001L43.5712 30.0723C43.6507 30.1519 43.6507 30.2812 43.5712 30.3608L40.697 33.235C40.6501 33.2819 40.5939 33.2916 40.5547 33.2916C40.5157 33.2916 40.4594 33.2819 40.4125 33.2349L39.3366 32.159C38.9227 31.745 38.2771 31.6737 37.7827 31.9876C36.3759 32.8807 34.8381 33.5184 33.2121 33.883C32.6414 34.011 32.2356 34.5177 32.2356 35.1027V36.621C32.2356 36.7304 32.1432 36.8228 32.0339 36.8228H27.9659C27.8565 36.8228 27.7641 36.7304 27.7641 36.621V35.1027C27.7641 34.5177 27.3584 34.0111 26.7876 33.883C25.1616 33.5184 23.6237 32.8806 22.217 31.9876C22.0109 31.8568 21.7785 31.7929 21.5475 31.7929C21.2246 31.7929 20.9045 31.9178 20.6631 32.159L19.5872 33.235C19.5404 33.2819 19.484 33.2916 19.445 33.2916C19.4059 33.2916 19.3496 33.2819 19.3027 33.2349L16.4286 30.3609C16.3491 30.2812 16.3491 30.1519 16.4286 30.0724L17.5009 29.0001C17.9141 28.5868 17.9859 27.9423 17.6735 27.4481C16.7786 26.033 16.1405 24.4932 15.777 22.8717C15.649 22.301 15.1422 21.8953 14.5572 21.8953H13.0391C12.9316 21.8953 12.8374 21.801 12.8374 21.6935V17.6291ZM43.032 60.248V61.5H16.968V60.248C16.968 59.5556 17.5312 58.9922 18.2236 58.9922H41.7765C42.4687 58.9922 43.032 59.5556 43.032 60.248ZM37.5867 56.4922H22.4132L24.2757 52.5254H35.7244L37.5867 56.4922ZM55.8964 50.0254H4.10361C3.38486 50.0254 2.80011 49.4405 2.80011 48.7217V46.5928H37.1631C37.8535 46.5928 38.4131 46.033 38.4131 45.3428C38.4131 44.6525 37.8535 44.0928 37.1631 44.0928H2.80011V20.1828C2.80011 19.464 3.37161 18.8791 4.07411 18.8791H10.3372V21.6935C10.3372 23.1833 11.5492 24.3953 13.039 24.3953H13.587C13.9391 25.6196 14.4277 26.7985 15.0472 27.918L14.6606 28.3048C13.6065 29.359 13.6065 31.0742 14.6606 32.1286L17.5347 35.0026C18.0435 35.5115 18.7219 35.7918 19.4449 35.7918C20.1679 35.7918 20.8462 35.5116 21.3549 35.0028L21.7442 34.6134C22.86 35.2321 24.0379 35.7205 25.264 36.073V36.621C25.264 38.1107 26.476 39.3228 27.9657 39.3228H32.0337C33.5235 39.3228 34.7355 38.1107 34.7355 36.621V36.073C35.9616 35.7206 37.1395 35.2321 38.2552 34.6134L38.6446 35.0026C39.1534 35.5115 39.8317 35.7918 40.5547 35.7918C41.2777 35.7918 41.9561 35.5116 42.4649 35.0028L45.339 32.1285C46.3931 31.0743 46.3931 29.359 45.339 28.3046L44.9524 27.918C45.5719 26.7985 46.0605 25.6196 46.4126 24.3953H46.9606C48.4504 24.3953 49.6624 23.1833 49.6624 21.6935V18.8791H55.8961C56.6149 18.8791 57.1996 19.464 57.1996 20.1828V44.0928H48.8361C48.1457 44.0928 47.5861 44.6525 47.5861 45.3428C47.5861 46.033 48.1457 46.5928 48.8361 46.5928H57.1996V48.7217C57.1999 49.4405 56.6151 50.0254 55.8964 50.0254Z" fill="black"/>
<path d="M42.9997 44.0927C42.3094 44.0927 41.7497 44.6525 41.7497 45.3427C41.7497 46.033 42.3094 46.5927 42.9997 46.5927H43.0035C43.6939 46.5927 44.2516 46.033 44.2516 45.3427C44.2516 44.6525 43.6901 44.0927 42.9997 44.0927Z" fill="black"/>
</svg>
