<svg width="60" height="64" viewBox="0 0 60 64" fill="none" xmlns="http://www.w3.org/2000/svg">
<path fill-rule="evenodd" clip-rule="evenodd" d="M41.3488 49.6192C40.7749 48.574 39.6623 47.8618 38.3903 47.8618H31.591C30.5917 47.8618 30.4501 47.6953 29.8229 47.1071C24.8093 42.3874 20.7169 42.6178 15.7069 44.5949C14.6298 45.0201 14.488 45.0165 13.4994 45.059H10.8987V57.7617H14.7926C15.3206 57.7617 15.2745 57.7864 16.0505 57.9955L28.9902 61.4573C33.5395 62.6868 35.3644 63.8206 39.687 60.94L55.6349 49.5803C57.0911 48.542 57.6332 46.6216 56.6907 45.098C55.7517 43.5744 53.803 43.2235 52.2086 44.0421L41.3488 49.6192Z" fill="white"/>
<path fill-rule="evenodd" clip-rule="evenodd" d="M10.8988 57.7617V45.059V44.85C10.8988 43.7126 9.96695 42.7807 8.8296 42.7807H3.8301C2.69988 42.7807 1.77153 43.7055 1.7644 44.8394V44.85V57.9708V57.9814C1.77153 59.1118 2.69976 60.0365 3.8301 60.0365H8.82948C9.96682 60.0365 10.8987 59.1046 10.8987 57.9708V57.7617H10.8988Z" fill="#548E87"/>
<path fill-rule="evenodd" clip-rule="evenodd" d="M55.0644 17.1982C54.6322 15.2884 53.8809 13.499 52.8641 11.8903L54.0121 10.7424C54.6144 10.14 54.6144 9.15139 54.0121 8.54903L50.9366 5.47699C50.3343 4.87113 49.3458 4.87113 48.7435 5.47699L47.5955 6.62496C45.9904 5.60798 44.2011 4.85338 42.2877 4.42101V2.80193C42.2877 1.94795 41.5898 1.24997 40.7358 1.24997H36.3919C35.538 1.24997 34.8399 1.94795 34.8399 2.80193V4.42114C32.9266 4.85338 31.1373 5.60811 29.5287 6.62508L28.3807 5.47711C27.7784 4.87125 26.7899 4.87125 26.1875 5.47711L23.1156 8.54916C22.5132 9.15152 22.5132 10.1401 23.1156 10.7425L24.2636 11.8904C23.2467 13.499 22.492 15.2885 22.0633 17.1983H20.4404C19.5866 17.1983 18.8885 17.8963 18.8885 18.7503V23.0979C18.8885 23.9483 19.5864 24.6499 20.4404 24.6499H22.0633C22.492 26.5597 23.2467 28.349 24.2636 29.9577L23.1156 31.1057C22.5132 31.7081 22.5132 32.6967 23.1156 33.299L26.1875 36.3711C26.7899 36.9769 27.7784 36.9769 28.3807 36.3711L29.5287 35.2231C31.1373 36.2401 32.9266 36.9947 34.8399 37.4234V29.543C31.0948 28.154 28.4091 24.5399 28.4091 20.327C28.4091 16.9644 30.1204 13.9845 32.7176 12.2093C35.4423 10.3491 34.9144 13.29 34.9144 13.786V19.6856C34.9144 21.7478 36.5336 23.4522 38.564 23.5868C40.5942 23.4522 42.2099 21.7478 42.2099 19.6856V13.786C42.2099 13.2899 41.6855 10.349 44.4067 12.2093C47.0039 13.9845 48.7152 16.9644 48.7152 20.327C48.7152 24.5399 46.0295 28.154 42.2879 29.543V37.4233C44.2012 36.9946 45.9905 36.2398 47.5956 35.223L48.7436 36.3709C49.3459 36.9768 50.3344 36.9768 50.9368 36.3709L54.0122 33.2989C54.6146 32.6965 54.6146 31.7079 54.0122 31.1056L52.8642 29.9576C53.8811 28.349 54.6323 26.5596 55.0645 24.6497H56.6837C57.5376 24.6497 58.2357 23.9481 58.2357 23.0978V18.7501C58.2357 17.8962 57.5377 17.1982 56.6837 17.1982H55.0644Z" fill="#548E87"/>
<path fill-rule="evenodd" clip-rule="evenodd" d="M42.2877 37.4233V29.543C46.0294 28.154 48.7151 24.5399 48.7151 20.327C48.7151 16.9644 47.0038 13.9845 44.4066 12.2093C41.6854 10.3491 42.2098 13.29 42.2098 13.786V19.6856C42.2098 21.7478 40.594 23.4521 38.5638 23.5868C36.5336 23.4521 34.9143 21.7478 34.9143 19.6856V13.786C34.9143 13.2899 35.4423 10.349 32.7175 12.2093C30.1203 13.9845 28.409 16.9644 28.409 20.327C28.409 24.5399 31.0947 28.154 34.8398 29.543V37.4233V39.0461C34.8398 39.9001 35.5378 40.5981 36.3918 40.5981H40.7357C41.5895 40.5981 42.2876 39.9001 42.2876 39.0461V37.4233H42.2877Z" fill="#BDDAA5"/>
<path d="M56.6836 15.9482H56.0349C55.6514 14.6014 55.1157 13.3092 54.4347 12.0874L54.8958 11.6262C55.4234 11.0988 55.7138 10.3955 55.7138 9.64563C55.7138 8.89577 55.4234 8.19254 54.8954 7.66456L51.823 4.59576C51.2954 4.0649 50.5912 3.77265 49.8399 3.77265C49.0888 3.77265 48.3845 4.0649 47.8595 4.59313L47.3989 5.05375C46.1763 4.37064 44.8835 3.8339 43.5376 3.45054V2.80193C43.5377 1.25697 42.2809 0 40.7358 0H36.3919C34.8469 0 33.59 1.25697 33.59 2.80193V3.45054C32.2442 3.83378 30.9508 4.37064 29.7257 5.05425L29.2672 4.59576C28.7393 4.0649 28.0351 3.77265 27.284 3.77278C26.5329 3.77278 25.8287 4.06515 25.3037 4.59326L22.2319 7.66518C21.7043 8.19254 21.4139 8.8959 21.4139 9.64575C21.4139 10.3956 21.7043 11.0988 22.2317 11.6262L22.6927 12.0873C22.0089 13.3128 21.4729 14.6053 21.0915 15.9482H20.4404C18.8955 15.9482 17.6385 17.2052 17.6385 18.7501V23.0978C17.6385 24.6427 18.8955 25.8997 20.4404 25.8997H21.0915C21.4729 27.2426 22.0089 28.535 22.6927 29.7606L22.2317 30.2217C21.7041 30.7491 21.4138 31.4524 21.4138 32.2023C21.4138 32.952 21.7041 33.6554 22.2316 34.1828L25.301 37.2522C25.8287 37.783 26.5328 38.0753 27.2839 38.0753H27.284C28.0351 38.0753 28.7395 37.783 29.2646 37.2548L29.7256 36.7937C30.9519 37.4779 32.2454 38.014 33.5898 38.3953V39.0461C33.5898 40.5911 34.8468 41.8481 36.3918 41.8481H40.7357C42.2806 41.8481 43.5376 40.5911 43.5376 39.0461V38.3953C44.8824 38.0139 46.1749 37.478 47.3989 36.7942L47.8568 37.2522C48.3845 37.783 49.0887 38.0753 49.8398 38.0753C50.591 38.0753 51.2954 37.7829 51.8199 37.2553L54.8958 34.1828C55.4233 33.6553 55.7136 32.9519 55.7136 32.2022C55.7136 31.4523 55.4233 30.7491 54.8958 30.2217L54.4346 29.7605C55.1155 28.5388 55.6512 27.2466 56.0348 25.8997H56.6835C58.2285 25.8997 59.4854 24.6427 59.4854 23.0978V18.7501C59.4856 17.2052 58.2287 15.9482 56.6836 15.9482ZM41.0378 39.046C41.0378 39.2098 40.8995 39.348 40.7358 39.348H36.3919C36.2281 39.348 36.0899 39.2098 36.0899 39.046V37.4232V29.543C36.0899 29.0203 35.7647 28.5528 35.2747 28.371C31.9158 27.1253 29.6591 23.8926 29.6591 20.327C29.6591 17.5012 31.0661 14.8522 33.4223 13.2417C33.5281 13.1694 33.6216 13.1104 33.7033 13.062C33.6988 13.2245 33.6873 13.379 33.6812 13.4597C33.6718 13.5865 33.6643 13.6867 33.6643 13.786V19.6855C33.6643 22.3933 35.7802 24.6547 38.481 24.8339C38.5361 24.8375 38.5913 24.8375 38.6465 24.8339C41.3454 24.6549 43.4596 22.3934 43.4596 19.6855V13.786C43.4596 13.6872 43.4522 13.5877 43.443 13.4615C43.437 13.3805 43.4255 13.2252 43.4211 13.0619C43.5026 13.1102 43.5956 13.169 43.701 13.2412C46.0578 14.8521 47.4649 17.5011 47.4649 20.3269C47.4649 23.8921 45.2094 27.1249 41.8525 28.371C41.3626 28.5529 41.0375 29.0203 41.0375 29.5429V37.423V39.046H41.0378ZM56.9856 23.0978C56.9856 23.2587 56.8445 23.3998 56.6836 23.3998H55.0644C54.4804 23.3998 53.9742 23.8041 53.8453 24.3738C53.4495 26.1228 52.7639 27.7768 51.8075 29.2896C51.4953 29.7836 51.567 30.4281 51.9802 30.8413L53.1283 31.9894C53.2028 32.0639 53.214 32.1547 53.214 32.2022C53.214 32.2496 53.2028 32.3404 53.1287 32.4144L50.0502 35.4896C49.9798 35.5603 49.8969 35.5752 49.8399 35.5752C49.7831 35.5752 49.7003 35.5603 49.6273 35.4868L48.4792 34.3388C48.0653 33.925 47.4202 33.8538 46.9262 34.1668C45.8593 34.8429 44.7236 35.3793 43.5377 35.7758V30.3744C47.4156 28.5696 49.965 24.6369 49.965 20.3267C49.965 16.6747 48.1507 13.2543 45.112 11.1772C44.6466 10.8591 43.231 9.89125 41.9929 10.6039C40.7772 11.3038 40.8983 12.9447 40.9499 13.6454C40.9544 13.7063 40.9588 13.7574 40.9598 13.786V19.6855C40.9598 21.0537 39.9141 22.2008 38.5638 22.3327C37.2117 22.2007 36.1644 21.0536 36.1644 19.6855L36.1643 13.795C36.1654 13.7574 36.1699 13.7063 36.1744 13.6452C36.2265 12.9448 36.3486 11.3048 35.1339 10.6045C33.8963 9.89062 32.4786 10.8588 32.0123 11.1772C28.9733 13.2544 27.1591 16.6748 27.1591 20.3269C27.1591 24.6376 29.7099 28.5706 33.59 30.3749V35.776C32.4039 35.3795 31.2668 34.8427 30.1967 34.1663C29.9909 34.0363 29.7594 33.9729 29.5291 33.9729C29.2062 33.9729 28.886 34.0978 28.6448 34.339L27.4944 35.4896C27.424 35.5605 27.3411 35.5753 27.2841 35.5753C27.2271 35.5753 27.1445 35.5605 27.0715 35.4871L23.9996 32.4151C23.925 32.3405 23.9138 32.2497 23.9138 32.2023C23.9138 32.1548 23.925 32.0641 23.9996 31.9894L25.1475 30.8413C25.5608 30.4281 25.6325 29.7836 25.3203 29.2896C24.3591 27.7688 23.6736 26.1156 23.283 24.3759C23.155 23.8053 22.6482 23.3997 22.0634 23.3997H20.4407C20.2798 23.3997 20.1387 23.2585 20.1387 23.0977V18.75C20.1387 18.5863 20.2769 18.448 20.4407 18.448H22.0634C22.6482 18.448 23.1548 18.0424 23.283 17.4718C23.6736 15.7321 24.3589 14.0788 25.3203 12.5581C25.6325 12.0641 25.5608 11.4196 25.1475 11.0063L23.9995 9.85825C23.925 9.78375 23.9138 9.693 23.9138 9.6455C23.9138 9.59801 23.925 9.50726 23.9996 9.43263L27.0741 6.35796C27.1445 6.28722 27.2272 6.27234 27.2842 6.27234C27.3412 6.27234 27.424 6.28722 27.497 6.36059L28.645 7.50868C29.0584 7.92205 29.7029 7.99367 30.1968 7.68143C31.7156 6.7212 33.3707 6.03435 35.1155 5.64023C35.6855 5.51149 36.0901 5.00512 36.0901 4.42101V2.80193C36.0901 2.63818 36.2284 2.49994 36.3921 2.49994H40.736C40.8998 2.49994 41.038 2.63818 41.038 2.80193V4.42126C41.038 5.0055 41.4426 5.51173 42.0125 5.64048C43.759 6.03497 45.4122 6.72145 46.9265 7.68105C47.4206 7.99405 48.0656 7.9228 48.4795 7.50906L49.6301 6.35834C49.7004 6.28759 49.7833 6.27272 49.8402 6.27272C49.8972 6.27272 49.9799 6.28759 50.0534 6.36146L53.1286 9.43301C53.2031 9.50751 53.2142 9.59826 53.2142 9.64575C53.2142 9.69325 53.2031 9.784 53.1285 9.85862L51.9805 11.0067C51.5673 11.42 51.4955 12.0644 51.8077 12.5584C52.764 14.0713 53.4497 15.7251 53.8456 17.4743C53.9744 18.0439 54.4807 18.4483 55.0647 18.4483H56.6839C56.8476 18.4483 56.9859 18.5865 56.9859 18.7503V23.0978H56.9856Z" fill="black"/>
<path d="M45.847 55.0387C45.3589 55.5269 45.3589 56.3184 45.847 56.8066C46.0912 57.0506 46.411 57.1727 46.7309 57.1727C47.0508 57.1727 47.3707 57.0506 47.6148 56.8066L47.6183 56.8031C48.1064 56.315 48.1047 55.5252 47.6164 55.0371C47.1282 54.549 46.3352 54.5509 45.847 55.0387Z" fill="black"/>
<path d="M51.6377 42.9302L41.7141 48.0264C40.8728 47.1552 39.6941 46.6117 38.3903 46.6117H31.5909C31.2102 46.6117 31.1172 46.5815 31.1109 46.5793C31.0558 46.5503 30.8816 46.3866 30.7417 46.2551L30.6797 46.1968C25.1788 41.0186 20.5321 41.3467 15.2478 43.4322C14.3929 43.7696 14.3764 43.7704 13.5178 43.807L11.9803 43.8081C11.5423 42.4868 10.2958 41.5306 8.82951 41.5306H3.83013C2.0018 41.5306 0.514465 43.0197 0.514465 44.8499V57.9707C0.514465 59.7989 2.0018 61.2863 3.83013 61.2863H8.82951C10.2957 61.2863 11.5421 60.3312 11.9802 59.0115H14.7926C15.041 59.0115 15.041 59.0115 15.3298 59.0929C15.4348 59.1225 15.5626 59.1585 15.7276 59.2029L28.664 62.6638C29.2342 62.8178 29.7572 62.9694 30.2631 63.1159C31.9205 63.5962 33.3138 63.9999 34.7659 63.9999C36.4071 63.9999 38.1231 63.4842 40.3802 61.9799C40.3911 61.9727 40.402 61.9652 40.4127 61.9576L42.8824 60.1965C43.4445 59.7956 43.5753 59.0151 43.1744 58.453C42.7735 57.8908 41.9928 57.7602 41.4311 58.161L38.9777 59.9104C35.7023 62.0889 34.3115 61.6862 30.9588 60.7147C30.4423 60.5651 29.9083 60.4104 29.3132 60.2496L16.3758 56.7886C16.2243 56.7478 16.1054 56.7143 16.0079 56.6868C15.536 56.5538 15.3595 56.5118 14.7927 56.5118H12.1488V46.3091H13.4996C13.5176 46.3091 13.5354 46.3087 13.5534 46.308L13.6246 46.305C14.6725 46.2602 14.9656 46.2316 16.1658 45.7577C20.8068 43.9263 24.3892 43.7087 28.9679 48.0189L29.0297 48.077C29.8122 48.8124 30.2628 49.1119 31.5911 49.1119H38.3904C39.1884 49.1119 39.8842 49.5549 40.247 50.2075C40.2508 50.2147 40.2553 50.2216 40.2593 50.2289C40.4213 50.5285 40.5136 50.8712 40.5136 51.2352C40.5136 52.4041 39.5612 53.3549 38.3905 53.3549H27.3712C26.6809 53.3549 26.1212 53.9145 26.1212 54.6049C26.1212 55.2952 26.6809 55.8549 27.3712 55.8549H38.3905C40.9397 55.8549 43.0135 53.7825 43.0135 51.2352C43.0135 50.889 42.974 50.552 42.9015 50.2274L52.7798 45.1544C53.7147 44.6744 54.9932 44.7259 55.6279 45.7558C56.1894 46.6637 55.8806 47.8704 54.91 48.5624L50.5767 51.6486C50.0143 52.0491 49.8831 52.8295 50.2836 53.3919C50.5275 53.7343 50.9122 53.9169 51.3028 53.9169C51.5537 53.9169 51.8069 53.8415 52.0268 53.685L56.3606 50.5985C58.4188 49.1311 59.0177 46.484 57.755 44.4426C56.5133 42.4274 53.8836 41.7772 51.6377 42.9302ZM9.64874 57.9707C9.64874 58.4129 9.27362 58.7864 8.82951 58.7864H3.83013C3.38789 58.7864 3.0144 58.4128 3.0144 57.9707V44.85C3.0144 44.3983 3.38039 44.0306 3.83013 44.0306H8.82951C9.27362 44.0306 9.64874 44.4058 9.64874 44.85V57.9707Z" fill="black"/>
</svg>
