<svg width="64" height="62" viewBox="0 0 64 62" fill="none" xmlns="http://www.w3.org/2000/svg">
<path fill-rule="evenodd" clip-rule="evenodd" d="M57.8745 24.9813V2.62888C57.8745 1.87038 57.2544 1.25 56.4961 1.25H2.62838C1.87013 1.25 1.25 1.87025 1.25 2.62888V24.9813C1.25 25.7397 1.87013 26.3601 2.62838 26.3601H6.40188V35.3705L16.5461 26.3601H56.4961C57.2544 26.3601 57.8745 25.7397 57.8745 24.9813Z" fill="#548E87"/>
<path fill-rule="evenodd" clip-rule="evenodd" d="M62.75 51.69V34.3249C62.75 33.6656 62.2079 33.1233 61.5452 33.1233H33.2525C32.5935 33.1233 32.0514 33.6656 32.0514 34.3249V51.69C32.0514 52.3529 32.5935 52.8951 33.2525 52.8951H49.4096L58.2571 60.75V52.8951H61.5452C62.2079 52.8951 62.75 52.3528 62.75 51.69Z" fill="#8FC9AE"/>
<path d="M61.5453 31.8733H33.2526C31.901 31.8733 30.8015 32.973 30.8015 34.3249V51.69C30.8015 53.0439 31.9011 54.1453 33.2526 54.1453H48.935L57.4274 61.6849C57.6608 61.892 57.9573 62.0001 58.2575 62.0001C58.4308 62.0001 58.6054 61.9641 58.7696 61.8903C59.2185 61.6885 59.5073 61.2423 59.5073 60.7501V54.1453H61.5454C62.8989 54.1453 64.0001 53.0439 64.0001 51.69V34.3249C64 32.973 62.8988 31.8733 61.5453 31.8733ZM61.5 51.6451H58.2573C57.5669 51.6451 57.0073 52.2048 57.0073 52.8951V57.9686L50.2396 51.9604C50.0109 51.7573 49.7156 51.6451 49.4098 51.6451H33.3014V34.3733H61.5V51.6451Z" fill="black"/>
<path d="M33.684 26.3601C33.684 25.6698 33.1244 25.1101 32.434 25.1101H16.5461C16.2401 25.1101 15.9447 25.2224 15.716 25.4255L7.65175 32.5884V26.3601C7.65175 25.6698 7.09212 25.1101 6.40175 25.1101H2.62825C2.55987 25.1101 2.5 25.05 2.5 24.9813V2.62888C2.5 2.56013 2.55987 2.5 2.62825 2.5H56.4961C56.5645 2.5 56.6245 2.56013 56.6245 2.62888V24.9813C56.6245 25.0499 56.5645 25.1101 56.4961 25.1101H43.659C42.9686 25.1101 42.409 25.6698 42.409 26.3601C42.409 27.0505 42.9686 27.6101 43.659 27.6101H56.4961C57.9454 27.6101 59.1245 26.4307 59.1245 24.9813V2.62888C59.1245 1.17938 57.9454 0 56.4961 0H2.62825C1.17912 0 0 1.17938 0 2.62888V24.9813C0 26.4307 1.17912 27.6101 2.62825 27.6101H5.15175V35.3705C5.15175 35.8626 5.44063 36.309 5.8895 36.5107C6.05375 36.5845 6.22825 36.6205 6.4015 36.6205C6.70188 36.6205 6.9985 36.5123 7.23187 36.3051L17.021 27.6101H32.4339C33.1244 27.6101 33.684 27.0505 33.684 26.3601Z" fill="black"/>
<path d="M14.2501 20.0743C14.9405 20.0743 15.5001 19.5146 15.5001 18.8243V8.78589C15.5001 8.09551 14.9405 7.53589 14.2501 7.53589C13.5597 7.53589 13.0001 8.09551 13.0001 8.78589V12.555H8.8566V8.78589C8.8566 8.09551 8.29698 7.53589 7.6066 7.53589C6.91623 7.53589 6.3566 8.09551 6.3566 8.78589V18.8243C6.3566 19.5146 6.91623 20.0743 7.6066 20.0743C8.29698 20.0743 8.8566 19.5146 8.8566 18.8243V15.055H13.0001V18.8241C13.0001 19.5146 13.5597 20.0743 14.2501 20.0743Z" fill="black"/>
<path d="M24.8338 10.0359C25.5241 10.0359 26.0838 9.47626 26.0838 8.78589C26.0838 8.09551 25.5241 7.53589 24.8338 7.53589H19.3985C18.7081 7.53589 18.1485 8.09551 18.1485 8.78589V18.8243C18.1485 19.5146 18.7081 20.0743 19.3985 20.0743H24.8338C25.5241 20.0743 26.0838 19.5146 26.0838 18.8243C26.0838 18.1339 25.5241 17.5743 24.8338 17.5743H20.6485V15.055H24.8338C25.5241 15.055 26.0838 14.4954 26.0838 13.805C26.0838 13.1146 25.5241 12.555 24.8338 12.555H20.6485V10.0359H24.8338Z" fill="black"/>
<path d="M29.9821 7.53589C29.2917 7.53589 28.7321 8.09551 28.7321 8.78589V18.8243C28.7321 19.5146 29.2917 20.0743 29.9821 20.0743H35.4175C36.1079 20.0743 36.6675 19.5146 36.6675 18.8243C36.6675 18.1339 36.1079 17.5743 35.4175 17.5743H31.2321V8.78589C31.2321 8.09551 30.6725 7.53589 29.9821 7.53589Z" fill="black"/>
<path d="M47.6161 11.5578C47.6161 9.34014 45.8124 7.53589 43.5952 7.53589H40.5658C39.8754 7.53589 39.3158 8.09551 39.3158 8.78589V14.3296V18.8243C39.3158 19.5146 39.8754 20.0743 40.5658 20.0743C41.2561 20.0743 41.8158 19.5146 41.8158 18.8243V15.5796H43.5952C45.8124 15.5796 47.6161 13.7755 47.6161 11.5578ZM41.8158 10.0359H43.5952C44.4337 10.0359 45.1161 10.7185 45.1161 11.5578C45.1161 12.397 44.4339 13.0796 43.5952 13.0796H41.8158V10.0359Z" fill="black"/>
<path d="M51.518 15.211C52.2084 15.211 52.768 14.6514 52.768 13.961V8.78589C52.768 8.09551 52.2084 7.53589 51.518 7.53589C50.8276 7.53589 50.268 8.09551 50.268 8.78589V13.961C50.268 14.6514 50.8276 15.211 51.518 15.211Z" fill="black"/>
<path d="M50.268 18.8243C50.268 19.5146 50.8276 20.0708 51.518 20.0708C52.2084 20.0708 52.768 19.5076 52.768 18.8173C52.768 18.1269 52.2084 17.5673 51.518 17.5673C50.8276 17.5673 50.268 18.1269 50.268 18.8173V18.8243Z" fill="black"/>
<path d="M39.6551 44.2574C40.3455 44.2574 40.9051 43.6924 40.9051 43.0021C40.9051 42.3119 40.3455 41.7521 39.6551 41.7521C38.9647 41.7521 38.4051 42.3118 38.4051 43.0021V43.0128C38.4051 43.7031 38.9647 44.2574 39.6551 44.2574Z" fill="black"/>
<path d="M47.4007 44.2574C48.0911 44.2574 48.6507 43.6924 48.6507 43.0021C48.6507 42.3119 48.0911 41.7521 47.4007 41.7521C46.7104 41.7521 46.1507 42.3118 46.1507 43.0021V43.0128C46.1507 43.7031 46.7104 44.2574 47.4007 44.2574Z" fill="black"/>
<path d="M55.1426 44.2574C55.833 44.2574 56.3926 43.6924 56.3926 43.0021C56.3926 42.3119 55.833 41.7521 55.1426 41.7521C54.4522 41.7521 53.8926 42.3118 53.8926 43.0021V43.0128C53.8926 43.7031 54.4522 44.2574 55.1426 44.2574Z" fill="black"/>
<path d="M36.7965 26.3601C36.7965 27.0505 37.3561 27.6101 38.0465 27.6101H38.0536C38.744 27.6101 39.3001 27.0505 39.3001 26.3601C39.3001 25.6698 38.7369 25.1101 38.0465 25.1101C37.3561 25.1101 36.7965 25.6698 36.7965 26.3601Z" fill="black"/>
</svg>
