<svg width="65" height="58" viewBox="0 0 65 58" fill="none" xmlns="http://www.w3.org/2000/svg">
<path fill-rule="evenodd" clip-rule="evenodd" d="M63.125 18.0424H1.625V52.3818C1.625 54.7475 3.55962 56.6875 5.9265 56.6875H58.8235C61.1869 56.6875 63.125 54.7475 63.125 52.3818V18.0424ZM36.5011 25.831L36.4976 30.5943H52.8674C53.53 30.5943 54.0756 31.1369 54.0756 31.8001V45.7565C54.0756 46.4198 53.53 46.9624 52.8674 46.9624H49.565L47.8181 51.6583L42.1312 46.9624H30.265C29.6024 46.9624 29.0602 46.4198 29.0602 45.7565V40.9933H23.4265L17.7396 45.6856L15.9964 40.9933H12.6905C12.0279 40.9933 11.4858 40.4506 11.4858 39.7874V25.831C11.4858 25.1677 12.0279 24.6251 12.6905 24.6251H35.2929C35.9555 24.6251 36.5011 25.1677 36.5011 25.831Z" fill="white"/>
<path fill-rule="evenodd" clip-rule="evenodd" d="M38.6554 12.6514C37.022 12.6514 35.6861 11.3108 35.6861 9.67562C35.6861 8.04062 37.0219 6.7035 38.6554 6.7035H52.1799C53.8132 6.7035 55.1491 8.04062 55.1491 9.67562C55.1491 11.3106 53.8134 12.6514 52.1799 12.6514H38.6554ZM58.8235 1.3125H5.9265C3.55962 1.3125 1.625 3.249 1.625 5.61825V18.0424H63.125V5.61825C63.125 3.249 61.1869 1.3125 58.8235 1.3125ZM24.4505 6.7035C26.091 6.7035 27.4198 8.0335 27.4198 9.67562C27.4198 11.3177 26.091 12.6514 24.4505 12.6514C22.81 12.6514 21.4813 11.3177 21.4813 9.67562C21.4813 8.0335 22.81 6.7035 24.4505 6.7035ZM12.5701 6.7035C14.2106 6.7035 15.5394 8.0335 15.5394 9.67562C15.5394 11.3177 14.2106 12.6514 12.5701 12.6514C10.9296 12.6514 9.59737 11.3177 9.59737 9.67562C9.59737 8.0335 10.9295 6.7035 12.5701 6.7035Z" fill="#548E87"/>
<path fill-rule="evenodd" clip-rule="evenodd" d="M15.5393 9.67563C15.5393 8.03351 14.2105 6.70351 12.57 6.70351C10.9295 6.70351 9.59729 8.03351 9.59729 9.67563C9.59729 11.3178 10.9295 12.6514 12.57 12.6514C14.2107 12.6514 15.5393 11.3178 15.5393 9.67563Z" fill="#8FC9AE"/>
<path fill-rule="evenodd" clip-rule="evenodd" d="M27.4198 9.67563C27.4198 8.03351 26.091 6.70351 24.4505 6.70351C22.81 6.70351 21.4813 8.03351 21.4813 9.67563C21.4813 11.3178 22.81 12.6514 24.4505 12.6514C26.0912 12.6514 27.4198 11.3178 27.4198 9.67563Z" fill="#8FC9AE"/>
<path fill-rule="evenodd" clip-rule="evenodd" d="M52.1799 6.70351H38.6554C37.022 6.70351 35.6861 8.04063 35.6861 9.67563C35.6861 11.3106 37.0219 12.6514 38.6554 12.6514H52.1799C53.8132 12.6514 55.1491 11.3108 55.1491 9.67563C55.1491 8.04063 53.8134 6.70351 52.1799 6.70351Z" fill="white"/>
<path fill-rule="evenodd" clip-rule="evenodd" d="M36.4975 30.5942L36.501 25.831C36.501 25.1677 35.9554 24.6251 35.2928 24.6251H12.6905C12.0279 24.6251 11.4858 25.1677 11.4858 25.831V39.7874C11.4858 40.4506 12.0279 40.9932 12.6905 40.9932H15.9964L17.7396 45.6856L23.4265 40.9932H29.0603H35.2928C35.9554 40.9932 36.501 40.4506 36.501 39.7874L36.4975 30.5942Z" fill="#548E87"/>
<path fill-rule="evenodd" clip-rule="evenodd" d="M52.8674 30.5942H36.4976L36.5011 39.7874C36.5011 40.4506 35.9554 40.9932 35.2928 40.9932H29.0603V45.7565C29.0603 46.4197 29.6024 46.9624 30.2651 46.9624H42.1313L47.8182 51.6582L49.5651 46.9624H52.8673C53.5299 46.9624 54.0756 46.4197 54.0756 45.7565V31.8001C54.0757 31.1369 53.5299 30.5942 52.8674 30.5942Z" fill="#8FC9AE"/>
<path d="M30.3677 31.2808C29.6775 31.2808 29.1177 31.8405 29.1177 32.5308V32.5414C29.1177 33.2316 29.6775 33.786 30.3677 33.786C31.058 33.786 31.6177 33.221 31.6177 32.5308C31.6177 31.8405 31.0581 31.2808 30.3677 31.2808Z" fill="black"/>
<path d="M23.9934 31.2808C23.3031 31.2808 22.7434 31.8405 22.7434 32.5308V32.5414C22.7434 33.2316 23.3031 33.786 23.9934 33.786C24.6836 33.786 25.2434 33.221 25.2434 32.5308C25.2434 31.8405 24.6837 31.2808 23.9934 31.2808Z" fill="black"/>
<path d="M17.6156 31.2808C16.9253 31.2808 16.3656 31.8405 16.3656 32.5308V32.5414C16.3656 33.2316 16.9253 33.786 17.6156 33.786C18.3058 33.786 18.8656 33.221 18.8656 32.5308C18.8656 31.8405 18.3058 31.2808 17.6156 31.2808Z" fill="black"/>
<path d="M12.5701 5.45351C10.2416 5.45351 8.34732 7.34751 8.34732 9.67563C8.34732 12.0058 10.2416 13.9014 12.5701 13.9014C14.8966 13.9014 16.7893 12.0058 16.7893 9.67563C16.7892 7.34751 14.8966 5.45351 12.5701 5.45351ZM12.5701 11.4014C11.6201 11.4014 10.8473 10.6273 10.8473 9.67563C10.8473 8.72601 11.6202 7.95351 12.5701 7.95351C13.5181 7.95351 14.2893 8.72613 14.2893 9.67563C14.2892 10.6273 13.5181 11.4014 12.5701 11.4014Z" fill="black"/>
<path d="M24.4505 5.45351C22.124 5.45351 20.2313 7.34751 20.2313 9.67563C20.2313 12.0058 22.124 13.9014 24.4505 13.9014C26.777 13.9014 28.6698 12.0058 28.6698 9.67563C28.6698 7.34751 26.7772 5.45351 24.4505 5.45351ZM24.4505 11.4014C23.5025 11.4014 22.7313 10.6273 22.7313 9.67563C22.7313 8.72601 23.5025 7.95351 24.4505 7.95351C25.3985 7.95351 26.1698 8.72613 26.1698 9.67563C26.1698 10.6273 25.3985 11.4014 24.4505 11.4014Z" fill="black"/>
<path d="M52.1799 5.45351H38.6554C36.3289 5.45351 34.4361 7.34751 34.4361 9.67563C34.4361 12.0058 36.3289 13.9014 38.6554 13.9014H52.1799C54.5064 13.9014 56.3991 12.0058 56.3991 9.67563C56.3991 7.34751 54.5065 5.45351 52.1799 5.45351ZM52.1799 11.4014H38.6554C37.7074 11.4014 36.9361 10.6273 36.9361 9.67563C36.9361 8.72601 37.7074 7.95351 38.6554 7.95351H52.1799C53.1279 7.95351 53.8991 8.72613 53.8991 9.67563C53.8991 10.6273 53.1279 11.4014 52.1799 11.4014Z" fill="black"/>
<path d="M58.8235 0.0625H5.9265C2.86537 0.0625 0.375 2.55475 0.375 5.61825V35.212C0.375 35.9023 0.93475 36.462 1.625 36.462C2.31525 36.462 2.875 35.9023 2.875 35.212V19.2924H61.875V52.3817C61.875 54.0666 60.5061 55.4375 58.8235 55.4375H5.9265C4.24387 55.4375 2.875 54.0666 2.875 52.3817V46.4481C2.875 45.7579 2.31525 45.1981 1.625 45.1981C0.93475 45.1981 0.375 45.7579 0.375 46.4481V52.3817C0.375 55.4452 2.86537 57.9375 5.9265 57.9375H58.8235C61.8846 57.9375 64.375 55.4452 64.375 52.3817V5.61825C64.375 2.55475 61.8846 0.0625 58.8235 0.0625ZM61.875 16.7924H2.875V5.61825C2.875 3.93337 4.24387 2.5625 5.9265 2.5625H58.8235C60.5061 2.5625 61.875 3.93337 61.875 5.61825V16.7924Z" fill="black"/>
<path d="M41.5681 39.7553C42.2583 39.7553 42.8181 39.1901 42.8181 38.4999C42.8181 37.8096 42.2583 37.2499 41.5681 37.2499C40.8778 37.2499 40.3181 37.8096 40.3181 38.4999V38.5105C40.3181 39.2008 40.8777 39.7553 41.5681 39.7553Z" fill="black"/>
<path d="M47.9423 39.7553C48.6325 39.7553 49.1923 39.1901 49.1923 38.4999C49.1923 37.8096 48.6325 37.2499 47.9423 37.2499C47.252 37.2499 46.6923 37.8096 46.6923 38.4999V38.5105C46.6923 39.2008 47.252 39.7553 47.9423 39.7553Z" fill="black"/>
<path d="M35.2929 23.3751H12.6905C11.337 23.3751 10.2358 24.4767 10.2358 25.831V39.7872C10.2358 41.1415 11.337 42.2431 12.6905 42.2431H15.1273L16.5678 46.1207C16.7086 46.5 17.0243 46.7876 17.415 46.8926C17.522 46.9214 17.6311 46.9355 17.7394 46.9355C18.0265 46.9355 18.3085 46.8366 18.535 46.6496L23.8755 42.2432H27.8103V45.7564C27.8103 47.1106 28.9115 48.2122 30.265 48.2122H41.682L47.0224 52.6219C47.249 52.809 47.5311 52.908 47.8184 52.908C47.9265 52.908 48.0354 52.894 48.1423 52.8652C48.533 52.7604 48.8488 52.4729 48.9898 52.0937L50.4338 48.2121H52.8674C54.2229 48.2121 55.3256 47.1105 55.3256 45.7562V31.8C55.3256 30.4457 54.2229 29.3441 52.8674 29.3441H37.7511V25.831C37.7511 24.4767 36.6484 23.3751 35.2929 23.3751ZM23.4265 39.7432C23.1363 39.7432 22.8549 39.8444 22.631 40.0291L18.2995 43.6031L17.1681 40.558C16.9861 40.0682 16.5189 39.7432 15.9964 39.7432H12.7359V25.8751H35.2511V30.5241C35.2499 30.5475 35.2476 30.5705 35.2476 30.5942C35.2476 30.618 35.2499 30.641 35.2511 30.6644V39.7434H23.4265V39.7432ZM52.8255 31.8442V45.7124H49.565C49.0428 45.7124 48.5755 46.0371 48.3935 46.5266L47.2593 49.5756L42.9273 45.9986C42.7033 45.8137 42.4219 45.7125 42.1314 45.7125H30.3104V42.2434H35.2929C36.6484 42.2434 37.7511 41.1417 37.7511 39.7875V31.8444H52.8255V31.8442Z" fill="black"/>
<path d="M1.625 42.0801C2.31525 42.0801 2.875 41.5204 2.875 40.8301V40.823C2.875 40.1328 2.31525 39.5765 1.625 39.5765C0.93475 39.5765 0.375 40.1398 0.375 40.83C0.375 41.5203 0.93475 42.0801 1.625 42.0801Z" fill="black"/>
</svg>
