<svg width="60" height="64" viewBox="0 0 60 64" fill="none" xmlns="http://www.w3.org/2000/svg">
<path fill-rule="evenodd" clip-rule="evenodd" d="M34.63 21.8291C32.1226 17.1485 32.8461 11.1959 36.7969 7.24512C36.9422 7.09987 37.0948 6.95812 37.2438 6.81987V6.19275C37.2438 3.47513 35.02 1.25 32.2964 1.25H7.00988C4.28975 1.25 2.0625 3.47512 2.0625 6.19287V56.7443H37.2438V27.7074L32.2077 29.3301L34.63 21.8291ZM13.2056 27.803C13.2056 24.2456 16.0925 21.3614 19.6531 21.3614C23.2138 21.3614 26.1042 24.2456 26.1042 27.803C26.1042 29.8333 25.1644 31.6439 23.6961 32.8237C27.115 34.3721 29.5089 37.8198 29.5089 41.7988V43.7405H9.79737V41.7988C9.79737 37.8198 12.1912 34.3721 15.6101 32.8237C14.1419 31.6404 13.2056 29.8333 13.2056 27.803Z" fill="white"/>
<path fill-rule="evenodd" clip-rule="evenodd" d="M32.2964 62.75C35.0165 62.75 37.2438 60.5213 37.2438 57.8071V56.7441H2.0625V57.8071C2.0625 60.5249 4.28975 62.75 7.00988 62.75H32.2964Z" fill="#8FC9AE"/>
<path fill-rule="evenodd" clip-rule="evenodd" d="M54.3094 24.7453C59.1467 19.9123 59.1467 12.0781 54.3094 7.24525C49.6209 2.56113 42.1059 2.41938 37.2436 6.82C37.0946 6.95813 36.9421 7.09988 36.7967 7.24525C32.846 11.196 32.1225 17.1486 34.6299 21.8293L32.2076 29.3303L37.2436 27.7075L39.7155 26.9103C44.4005 29.4153 50.3586 28.6924 54.3094 24.7453Z" fill="#8FC9AE"/>
<path fill-rule="evenodd" clip-rule="evenodd" d="M29.5087 41.7989C29.5087 37.8199 27.1148 34.3723 23.696 32.8239C22.5895 33.7133 21.1851 34.2483 19.653 34.2483C18.1208 34.2483 16.7165 33.7133 15.61 32.8239C12.1911 34.3723 9.79721 37.8199 9.79721 41.7989V43.7406H29.5087V41.7989Z" fill="#8FC9AE"/>
<path fill-rule="evenodd" clip-rule="evenodd" d="M23.6961 32.8238C25.0827 31.7076 25.9977 30.0316 26.0935 28.1396C26.1006 28.0298 26.1041 27.9164 26.1041 27.803C26.1041 24.2456 23.2137 21.3614 19.653 21.3614C16.0922 21.3614 13.2055 24.2456 13.2055 27.803C13.2055 29.8333 14.1417 31.6404 15.61 32.8238C16.7165 33.7131 18.1208 34.2481 19.653 34.2481C21.1852 34.2483 22.5896 33.7131 23.6961 32.8238Z" fill="#CED7DA"/>
<path d="M24.9302 7.86801C25.6206 7.86801 26.1802 7.30839 26.1802 6.61801C26.1802 5.92764 25.6206 5.36801 24.9302 5.36801H14.3793C13.689 5.36801 13.1293 5.92764 13.1293 6.61801C13.1293 7.30839 13.689 7.86801 14.3793 7.86801H24.9302Z" fill="black"/>
<path d="M45.5531 7.47626C43.3658 7.47626 41.5865 9.25463 41.5865 11.4404V12.4963C41.5865 13.1866 42.1461 13.7463 42.8365 13.7463C43.5268 13.7463 44.0865 13.1866 44.0865 12.4963V11.4404C44.0865 10.6331 44.7443 9.97626 45.5531 9.97626C46.3618 9.97626 47.0197 10.633 47.0197 11.4404V12.4963C47.0197 12.7274 46.5967 13.232 46.288 13.6004C45.666 14.3424 44.8918 15.2659 44.8918 16.5178V18.1831C44.8918 18.8735 45.4515 19.4331 46.1418 19.4331C46.8322 19.4331 47.3918 18.8735 47.3918 18.1831V16.5178C47.3918 16.175 47.8047 15.6825 48.2038 15.2063C48.7901 14.5068 49.5197 13.6364 49.5197 12.4961V11.4403C49.5197 9.25463 47.7403 7.47626 45.5531 7.47626Z" fill="black"/>
<path d="M46.1488 22.0106C45.4585 22.0106 44.8988 22.5702 44.8988 23.2606V23.2641C44.8988 23.9545 45.4585 24.5124 46.1488 24.5124C46.8392 24.5124 47.3988 23.951 47.3988 23.2606C47.3988 22.5702 46.8392 22.0106 46.1488 22.0106Z" fill="black"/>
<path d="M8.54735 41.7989V43.7406C8.54735 44.431 9.10697 44.9906 9.79735 44.9906H29.5087C30.1991 44.9906 30.7587 44.431 30.7587 43.7406V41.7989C30.7587 38.0376 28.83 34.5571 25.7296 32.522C26.7462 31.2178 27.3541 29.5805 27.3541 27.8031C27.3541 23.562 23.8993 20.1115 19.653 20.1115C15.4085 20.1115 11.9555 23.562 11.9555 27.8031C11.9555 29.58 12.5627 31.2168 13.5783 32.5208C10.477 34.5556 8.54735 38.0369 8.54735 41.7989ZM19.6531 22.6115C22.521 22.6115 24.8542 24.9404 24.8542 27.8031C24.8542 30.6678 22.521 32.9983 19.6531 32.9983C16.7872 32.9983 14.4556 30.6678 14.4556 27.8031C14.4556 24.9404 16.7871 22.6115 19.6531 22.6115ZM15.5008 34.2775C16.6998 35.0486 18.1245 35.4981 19.653 35.4981C21.1818 35.4981 22.6068 35.0489 23.8062 34.278C26.532 35.7889 28.2587 38.669 28.2587 41.7988V42.4905H11.0473V41.7988C11.0473 38.6688 12.7746 35.7883 15.5008 34.2775Z" fill="black"/>
<path d="M55.1929 6.36088C50.6026 1.77488 43.5239 1.15137 38.2533 4.48912C37.5107 1.9005 35.1222 0 32.2964 0H7.00988C3.59263 0 0.8125 2.77813 0.8125 6.19275V33.4688C0.8125 34.1591 1.37213 34.7188 2.0625 34.7188C2.75287 34.7188 3.3125 34.1591 3.3125 33.4688V6.19275C3.3125 4.15662 4.97113 2.5 7.00988 2.5H32.2964C34.3351 2.5 35.9938 4.15662 35.9938 6.19275V6.28263C35.967 6.309 35.9397 6.33462 35.913 6.36112C33.8029 8.47125 32.4684 11.1435 32.0537 14.0891C31.6781 16.7577 32.1139 19.5228 33.2819 21.936L31.0182 28.946C30.8741 29.3924 30.992 29.8819 31.3236 30.2138C31.5617 30.452 31.8812 30.5801 32.2079 30.5801C32.336 30.5801 32.4654 30.5604 32.5913 30.5198L35.9938 29.423V55.494H3.3125V44.697C3.3125 44.0066 2.75287 43.447 2.0625 43.447C1.37213 43.447 0.8125 44.0066 0.8125 44.697V57.807C0.8125 61.2219 3.59263 64 7.00988 64H32.2964C35.7136 64 38.4938 61.2219 38.4938 57.8073V28.6174L39.6089 28.258C42.024 29.4249 44.7911 29.8603 47.4618 29.4851C50.4095 29.071 53.0829 27.7377 55.193 25.6295C57.7689 23.0559 59.1876 19.6344 59.1876 15.9951C59.1876 12.3559 57.7689 8.9345 55.1929 6.36088ZM32.2964 61.5H7.00988C5.03388 61.5 3.41512 59.9439 3.31725 57.9943H35.989C35.8911 59.9439 34.2723 61.5 32.2964 61.5ZM53.426 23.861C49.9855 27.2985 44.59 28.099 40.3051 25.8079C40.0061 25.648 39.6551 25.6164 39.3322 25.7205L34.1474 27.3918L35.8196 22.2132C35.924 21.8901 35.8924 21.5384 35.732 21.2389C33.4034 16.8918 34.1865 11.6234 37.6802 8.12975C39.852 5.96163 42.7031 4.87787 45.5547 4.87787C48.4056 4.87787 51.2568 5.96188 53.4263 8.12938C55.5295 10.2308 56.6878 13.0241 56.6878 15.9951C56.6878 18.9661 55.5291 21.7596 53.426 23.861Z" fill="black"/>
<path d="M2.0625 40.3347C2.75287 40.3347 3.3125 39.7751 3.3125 39.0847V39.0776C3.3125 38.3872 2.75287 37.8311 2.0625 37.8311C1.37213 37.8311 0.8125 38.3942 0.8125 39.0846C0.8125 39.775 1.37213 40.3347 2.0625 40.3347Z" fill="black"/>
</svg>
