<svg width="1882" height="827" viewBox="0 0 1882 827" fill="none" xmlns="http://www.w3.org/2000/svg">
<g opacity="0.5">
<path opacity="0.5" d="M1671.23 98.219L1640.05 157.032L1649.52 162.053L1680.7 103.24L1671.23 98.219Z" fill="#8FC9AE"/>
<path opacity="0.5" d="M1695.47 111.768L1655.68 90.6835L1686.12 81.3262L1695.47 111.768Z" fill="#8FC9AE"/>
</g>
<path d="M1637.34 173.352L1649.94 149.594" stroke="#CED7DA" stroke-width="4" stroke-linecap="round" stroke-linejoin="round" stroke-dasharray="3.82 6.69"/>
<path d="M87.2363 534.458C86.5368 534.466 85.8382 534.514 85.144 534.6C84.4982 529.854 81.2693 526.005 76.3679 526.05C74.0366 526.05 68.0373 526.799 67.6499 533.419C60.5011 530.519 55.0507 536.596 55.1089 542.408C55.1605 548.62 61.1081 553.005 68.3731 552.947C75.6382 552.889 81.0175 552.85 87.4107 552.792C94.6822 552.714 98.4729 548.575 98.4277 543.506C98.3825 538.436 94.5078 534.387 87.2363 534.458Z" fill="#EFEFEF" stroke="#EFEFEF" stroke-width="4" stroke-linecap="round" stroke-linejoin="round"/>
<path d="M995.827 147.688H1005.85" stroke="#CED7DA" stroke-width="4" stroke-linecap="round" stroke-linejoin="round"/>
<path d="M407.626 679.255V664.066" stroke="#EFEFEF" stroke-width="4" stroke-linecap="round" stroke-linejoin="round"/>
<path d="M415.22 671.659H400.031" stroke="#EFEFEF" stroke-width="4" stroke-linecap="round" stroke-linejoin="round"/>
<path d="M610.866 738.414C610.169 738.379 609.47 738.379 608.773 738.414C608.642 736.696 608.052 735.044 607.066 733.63C606.079 732.217 604.732 731.094 603.165 730.377C601.597 729.66 599.866 729.377 598.152 729.556C596.438 729.735 594.803 730.37 593.417 731.395C593.042 729.485 591.982 727.779 590.438 726.596C588.893 725.413 586.969 724.835 585.028 724.971C583.087 725.106 581.263 725.946 579.897 727.333C578.532 728.719 577.72 730.556 577.615 732.499C577.615 732.706 577.615 732.906 577.615 733.145C570.931 733.326 565.48 737.84 565.17 743.671C564.835 749.864 570.479 754.61 577.718 754.998L609.897 756.729C617.143 757.116 621.192 753.228 621.463 748.178C621.734 743.129 618.118 738.808 610.866 738.414Z" fill="#EFEFEF" stroke="#EFEFEF" stroke-width="4" stroke-linecap="round" stroke-linejoin="round"/>
<path d="M1721.37 17.7897C1720.49 17.7877 1719.61 17.8351 1718.74 17.9318C1718.46 15.7792 1717.61 13.7403 1716.28 12.0274C1714.94 10.3145 1713.18 8.99014 1711.16 8.19228C1709.14 7.39443 1706.95 7.15222 1704.8 7.49088C1702.66 7.82954 1700.64 8.73669 1698.97 10.1179C1698.37 7.74215 1696.93 5.66654 1694.91 4.2813C1692.89 2.89607 1690.43 2.29663 1688 2.59569C1685.57 2.89476 1683.33 4.07172 1681.7 5.9053C1680.08 7.73887 1679.18 10.1027 1679.18 12.5525C1679.18 12.8108 1679.18 13.0626 1679.18 13.3274C1670.78 13.9732 1664.23 20.0241 1664.22 27.3731C1664.22 35.1805 1671.61 40.773 1680.75 40.7859L1721.3 40.8311C1730.44 40.8311 1735.27 35.6649 1735.28 29.3298C1735.28 22.9947 1730.48 17.7962 1721.37 17.7897Z" fill="#EFEFEF" stroke="#CED7DA" stroke-width="4" stroke-linecap="round" stroke-linejoin="round"/>
<path d="M1157.37 681.578C1158.63 681.298 1159.9 681.014 1161.15 680.726" stroke="#EFEFEF" stroke-width="4" stroke-linecap="round" stroke-linejoin="round"/>
<path d="M1558.57 317.961C1559.52 316.766 1560.37 315.785 1561.1 315.029" stroke="#CED7DA" stroke-width="4" stroke-linecap="round" stroke-linejoin="round"/>
<path d="M185.588 498.552C186.55 497.68 187.525 496.821 188.468 495.969" stroke="#EFEFEF" stroke-width="4" stroke-linecap="round" stroke-linejoin="round"/>
<path d="M194.216 490.867C289.339 407.342 391.901 355.673 490.957 353.116" stroke="#7E8F94" stroke-width="4" stroke-linecap="round" stroke-linejoin="round" stroke-dasharray="6.23 6.23"/>
<path d="M494.787 353.039C496.078 353.039 497.37 353.039 498.661 353.039" stroke="#EFEFEF" stroke-width="4" stroke-linecap="round" stroke-linejoin="round"/>
<path d="M446.999 672.118C710.18 672.118 799.833 803.637 1089.47 803.637C1261.31 803.637 1395.62 715.611 1477.02 648.069" stroke="#EFEFEF" stroke-width="4" stroke-linecap="round" stroke-linejoin="round"/>
<path d="M144.019 493.832C143.346 493.827 142.674 493.861 142.005 493.935C141.794 492.288 141.144 490.727 140.125 489.416C139.105 488.104 137.753 487.09 136.208 486.48C134.664 485.869 132.983 485.684 131.343 485.943C129.702 486.203 128.161 486.898 126.881 487.955C126.423 486.137 125.317 484.549 123.771 483.489C122.225 482.429 120.345 481.97 118.485 482.198C116.624 482.426 114.911 483.326 113.667 484.729C112.423 486.132 111.735 487.94 111.731 489.815C111.731 490.015 111.731 490.203 111.731 490.403C105.312 490.919 100.294 495.53 100.287 501.155C100.287 507.128 105.944 511.41 112.932 511.423L143.974 511.468C150.968 511.468 154.662 507.535 154.668 502.66C154.675 497.784 151.013 493.838 144.019 493.832Z" fill="#EFEFEF" stroke="#EFEFEF" stroke-width="4" stroke-linecap="round" stroke-linejoin="round"/>
<path d="M1350.53 454.032C1349.37 448.596 1347.31 443.393 1344.43 438.637C1335.51 424.016 1308.09 402.099 1281.95 414.291C1274.9 417.572 1269.09 426.8 1266.06 433.742C1254.85 431.533 1243.41 435.589 1238.47 446.515C1236.27 451.408 1235.83 456.913 1237.24 462.091C1232.9 461.317 1228.42 462.072 1224.57 464.228C1220.72 466.384 1217.74 469.808 1216.14 473.916C1214.53 478.023 1214.4 482.561 1215.76 486.756C1217.13 490.95 1219.9 494.542 1223.62 496.918C1223.17 496.957 1222.71 497.002 1222.26 497.086C1218.6 497.725 1215.26 499.563 1212.76 502.311C1210.26 505.06 1208.74 508.562 1208.45 512.266C1208.16 515.969 1209.11 519.665 1211.15 522.77C1213.19 525.874 1216.21 528.212 1219.72 529.414C1216.07 530.764 1212.79 532.964 1210.15 535.831C1207.51 538.699 1205.59 542.152 1204.54 545.907C1203.5 549.662 1203.36 553.612 1204.14 557.43C1204.93 561.248 1206.6 564.826 1209.04 567.868C1211.47 570.911 1214.6 573.332 1218.15 574.931C1221.71 576.531 1225.59 577.263 1229.48 577.067C1233.37 576.872 1237.16 575.755 1240.54 573.808C1243.92 571.861 1246.78 569.139 1248.9 565.868C1252.34 568.773 1256.51 570.679 1260.96 571.377C1265.41 572.076 1269.96 571.541 1274.12 569.831C1278.29 568.121 1281.9 565.301 1284.58 561.678C1287.25 558.055 1288.88 553.768 1289.28 549.284C1292.76 550.853 1296.62 551.341 1300.38 550.687C1304.14 550.033 1307.61 548.266 1310.35 545.615C1313.09 542.965 1314.97 539.552 1315.75 535.82C1316.53 532.087 1316.18 528.207 1314.72 524.68C1318.84 524.908 1322.94 524.03 1326.6 522.135C1330.26 520.241 1333.34 517.401 1335.53 513.91C1337.72 510.42 1338.93 506.406 1339.04 502.288C1339.15 498.169 1338.16 494.096 1336.16 490.493C1337.6 489.655 1338.99 488.739 1340.32 487.748C1350.89 479.947 1353.2 466.547 1350.53 454.032Z" fill="#CED7DA" stroke="#CED7DA" stroke-width="4" stroke-linecap="round" stroke-linejoin="round"/>
<mask id="path-18-inside-1" fill="white">
<path d="M1333.98 484.519C1336.61 481.888 1338.2 478.389 1338.44 474.675C1338.69 470.96 1337.58 467.282 1335.32 464.325C1336.18 463.631 1337.01 462.892 1337.79 462.11C1343.99 455.937 1344.19 446.889 1341.21 438.908C1339.91 435.443 1338.04 432.22 1335.68 429.369C1328.38 420.619 1308.17 408.879 1292.16 419.47C1287.84 422.324 1284.92 428.969 1283.6 433.838C1276.01 433.483 1268.87 437.274 1266.69 444.952C1265.72 448.387 1265.97 452.054 1267.41 455.323C1264.47 455.233 1261.59 456.165 1259.27 457.961C1256.94 459.757 1255.31 462.305 1254.65 465.17C1254 468.035 1254.36 471.039 1255.67 473.668C1256.98 476.297 1259.17 478.389 1261.86 479.585C1261.56 479.663 1261.27 479.734 1260.98 479.83C1258.64 480.611 1256.62 482.149 1255.24 484.203C1253.87 486.257 1253.21 488.711 1253.38 491.177C1253.55 493.643 1254.54 495.983 1256.19 497.828C1257.83 499.673 1260.04 500.918 1262.48 501.367"/>
</mask>
<path d="M1333.98 484.519C1336.61 481.888 1338.2 478.389 1338.44 474.675C1338.69 470.96 1337.58 467.282 1335.32 464.325C1336.18 463.631 1337.01 462.892 1337.79 462.11C1343.99 455.937 1344.19 446.889 1341.21 438.908C1339.91 435.443 1338.04 432.22 1335.68 429.369C1328.38 420.619 1308.17 408.879 1292.16 419.47C1287.84 422.324 1284.92 428.969 1283.6 433.838C1276.01 433.483 1268.87 437.274 1266.69 444.952C1265.72 448.387 1265.97 452.054 1267.41 455.323C1264.47 455.233 1261.59 456.165 1259.27 457.961C1256.94 459.757 1255.31 462.305 1254.65 465.17C1254 468.035 1254.36 471.039 1255.67 473.668C1256.98 476.297 1259.17 478.389 1261.86 479.585C1261.56 479.663 1261.27 479.734 1260.98 479.83C1258.64 480.611 1256.62 482.149 1255.24 484.203C1253.87 486.257 1253.21 488.711 1253.38 491.177C1253.55 493.643 1254.54 495.983 1256.19 497.828C1257.83 499.673 1260.04 500.918 1262.48 501.367" fill="black" fill-opacity="0.2"/>
<path d="M1335.32 464.325L1332.81 461.209L1329.77 463.656L1332.14 466.756L1335.32 464.325ZM1337.79 462.11L1340.61 464.945L1340.62 464.943L1337.79 462.11ZM1341.21 438.908L1344.96 437.507L1344.95 437.502L1341.21 438.908ZM1335.68 429.369L1338.76 426.819L1338.76 426.813L1338.75 426.806L1335.68 429.369ZM1292.16 419.47L1289.95 416.133L1289.95 416.134L1292.16 419.47ZM1283.6 433.838L1283.41 437.834L1286.62 437.984L1287.46 434.888L1283.6 433.838ZM1266.69 444.952L1262.84 443.858L1262.84 443.863L1266.69 444.952ZM1267.41 455.323L1267.29 459.321L1273.62 459.517L1271.07 453.715L1267.41 455.323ZM1261.86 479.585L1262.89 483.45L1273.81 480.536L1263.48 475.931L1261.86 479.585ZM1260.98 479.83L1262.25 483.626L1262.26 483.621L1262.27 483.617L1260.98 479.83ZM1336.8 487.348C1340.12 484.032 1342.12 479.622 1342.44 474.94L1334.45 474.409C1334.27 477.156 1333.1 479.743 1331.15 481.689L1336.8 487.348ZM1342.44 474.94C1342.75 470.258 1341.35 465.622 1338.5 461.895L1332.14 466.756C1333.81 468.942 1334.64 471.662 1334.45 474.409L1342.44 474.94ZM1337.83 467.442C1338.8 466.659 1339.73 465.826 1340.61 464.945L1334.97 459.275C1334.28 459.958 1333.56 460.603 1332.81 461.209L1337.83 467.442ZM1340.62 464.943C1348.34 457.239 1348.24 446.301 1344.96 437.507L1337.46 440.308C1340.14 447.478 1339.63 454.635 1334.97 459.277L1340.62 464.943ZM1344.95 437.502C1343.5 433.622 1341.4 430.011 1338.76 426.819L1332.6 431.92C1334.68 434.428 1336.32 437.265 1337.46 440.313L1344.95 437.502ZM1338.75 426.806C1334.62 421.857 1327.12 416.316 1318.47 413.379C1309.75 410.418 1299.31 409.944 1289.95 416.133L1294.36 422.806C1301.02 418.404 1308.69 418.505 1315.9 420.954C1323.18 423.427 1329.44 428.131 1332.61 431.933L1338.75 426.806ZM1289.95 416.134C1287.02 418.073 1284.82 421.089 1283.24 423.981C1281.63 426.932 1280.47 430.111 1279.74 432.789L1287.46 434.888C1288.05 432.696 1289.01 430.119 1290.27 427.815C1291.56 425.455 1292.98 423.72 1294.36 422.805L1289.95 416.134ZM1283.79 429.843C1274.83 429.423 1265.66 433.964 1262.84 443.858L1270.54 446.046C1272.09 440.583 1277.19 437.543 1283.41 437.834L1283.79 429.843ZM1262.84 443.863C1261.62 448.192 1261.94 452.812 1263.75 456.932L1271.07 453.715C1270.01 451.296 1269.82 448.583 1270.54 446.041L1262.84 443.863ZM1267.53 451.325C1263.67 451.206 1259.88 452.432 1256.82 454.795L1261.71 461.127C1263.3 459.898 1265.27 459.259 1267.29 459.321L1267.53 451.325ZM1256.82 454.795C1253.76 457.157 1251.62 460.509 1250.76 464.278L1258.55 466.063C1259 464.101 1260.12 462.357 1261.71 461.127L1256.82 454.795ZM1250.76 464.278C1249.89 468.046 1250.37 471.997 1252.09 475.456L1259.25 471.881C1258.35 470.08 1258.1 468.024 1258.55 466.063L1250.76 464.278ZM1252.09 475.456C1253.82 478.914 1256.7 481.665 1260.23 483.239L1263.48 475.931C1261.65 475.112 1260.15 473.681 1259.25 471.881L1252.09 475.456ZM1260.82 475.72C1260.67 475.761 1260.15 475.889 1259.69 476.044L1262.27 483.617C1262.39 483.578 1262.46 483.564 1262.89 483.45L1260.82 475.72ZM1259.72 476.035C1256.53 477.095 1253.79 479.186 1251.92 481.977L1258.56 486.429C1259.45 485.113 1260.74 484.126 1262.25 483.626L1259.72 476.035ZM1251.92 481.977C1250.05 484.768 1249.16 488.102 1249.39 491.453L1257.37 490.901C1257.26 489.319 1257.68 487.746 1258.56 486.429L1251.92 481.977ZM1249.39 491.453C1249.62 494.805 1250.96 497.984 1253.2 500.491L1259.17 495.165C1258.11 493.982 1257.48 492.482 1257.37 490.901L1249.39 491.453ZM1253.2 500.491C1255.44 502.998 1258.44 504.69 1261.75 505.301L1263.2 497.434C1261.64 497.146 1260.22 496.347 1259.17 495.165L1253.2 500.491Z" fill="#CED7DA" mask="url(#path-18-inside-1)"/>
<path fill-rule="evenodd" clip-rule="evenodd" d="M1326.76 374.447C1324.49 377.282 1322.28 380.298 1320.18 383.488C1301.18 412.07 1310.93 451.941 1310.93 451.941C1310.93 451.941 1351.47 445.483 1370.46 416.901C1372.57 413.724 1374.49 410.52 1376.22 407.33L1326.76 374.447Z" fill="#EFEFEF" stroke="#CED7DA" stroke-width="4" stroke-linecap="round" stroke-linejoin="round"/>
<path fill-rule="evenodd" clip-rule="evenodd" d="M1338.21 382.054C1336.99 383.582 1335.81 385.199 1334.67 386.904C1324.47 402.254 1329.71 423.655 1329.71 423.655C1329.71 423.655 1351.48 420.187 1361.67 404.843C1362.81 403.121 1363.84 401.399 1364.77 399.677L1338.21 382.054Z" fill="#EFEFEF" stroke="#CED7DA" stroke-width="4" stroke-linecap="round" stroke-linejoin="round"/>
<path fill-rule="evenodd" clip-rule="evenodd" d="M1338.21 382.054C1336.99 383.582 1335.81 385.199 1334.67 386.904C1324.47 402.254 1329.71 423.655 1329.71 423.655C1329.71 423.655 1351.48 420.187 1361.67 404.843C1362.81 403.121 1363.84 401.399 1364.77 399.677L1338.21 382.054Z" fill="#8FC9AE" stroke="#CED7DA" stroke-width="4" stroke-linecap="round" stroke-linejoin="round"/>
<path d="M1397.12 386.477L1396.06 413.942C1387.67 426.612 1361.33 423.926 1337.3 407.943C1313.26 391.96 1300.56 368.738 1308.98 356.067L1333.92 344.443" fill="#EFEFEF"/>
<path d="M1397.12 386.477L1396.06 413.942C1387.67 426.612 1361.33 423.926 1337.3 407.943C1313.26 391.96 1300.56 368.738 1308.98 356.067L1333.92 344.443" stroke="#CED7DA" stroke-width="4" stroke-linecap="round" stroke-linejoin="round"/>
<mask id="path-25-inside-2" fill="white">
<path d="M1398.55 387.42L1395.75 396.086C1392.61 400.813 1371.86 397.985 1352.44 385.108C1333.02 372.231 1322.35 354.149 1325.49 349.428L1334.92 345.205"/>
</mask>
<path d="M1398.55 387.42L1395.75 396.086C1392.61 400.813 1371.86 397.985 1352.44 385.108C1333.02 372.231 1322.35 354.149 1325.49 349.428L1334.92 345.205" fill="black" fill-opacity="0.2"/>
<path d="M1395.75 396.086L1399.08 398.302L1399.39 397.842L1399.56 397.317L1395.75 396.086ZM1325.49 349.428L1323.86 345.778L1322.8 346.251L1322.16 347.214L1325.49 349.428ZM1394.75 386.189L1391.94 394.855L1399.56 397.317L1402.36 388.65L1394.75 386.189ZM1392.42 393.87C1392.64 393.539 1392.79 393.596 1392.34 393.768C1391.92 393.932 1391.19 394.106 1390.09 394.186C1387.9 394.348 1384.81 394.101 1381.04 393.288C1373.53 391.67 1363.95 387.942 1354.65 381.774L1350.23 388.441C1360.34 395.15 1370.85 399.275 1379.35 401.108C1383.59 402.021 1387.49 402.4 1390.68 402.165C1392.28 402.047 1393.84 401.767 1395.22 401.231C1396.59 400.703 1398.07 399.814 1399.08 398.302L1392.42 393.87ZM1354.65 381.774C1345.35 375.608 1338.19 368.219 1333.78 361.916C1331.57 358.751 1330.14 355.991 1329.44 353.907C1329.09 352.863 1328.96 352.124 1328.95 351.668C1328.93 351.189 1329.04 351.307 1328.82 351.643L1322.16 347.214C1321.15 348.73 1320.91 350.446 1320.95 351.909C1321 353.396 1321.34 354.944 1321.86 356.461C1322.88 359.497 1324.74 362.948 1327.23 366.503C1332.22 373.64 1340.11 381.731 1350.23 388.441L1354.65 381.774ZM1327.13 353.079L1336.55 348.856L1333.28 341.555L1323.86 345.778L1327.13 353.079Z" fill="#CED7DA" mask="url(#path-25-inside-2)"/>
<path fill-rule="evenodd" clip-rule="evenodd" d="M1416.56 382.636C1432.59 359.691 1496.99 261.578 1498.93 258.646C1515.16 234.223 1550.68 139.604 1526.26 123.369C1501.83 107.134 1429.55 175.128 1413.31 199.545C1411.2 202.728 1345.26 300.583 1329.92 325.058" fill="#EFEFEF"/>
<path d="M1416.56 382.636C1432.59 359.691 1496.99 261.578 1498.93 258.646C1515.16 234.223 1550.68 139.604 1526.26 123.369C1501.83 107.134 1429.55 175.128 1413.31 199.545C1411.2 202.728 1345.26 300.583 1329.92 325.058" stroke="#CED7DA" stroke-width="4" stroke-linecap="round" stroke-linejoin="round"/>
<path fill-rule="evenodd" clip-rule="evenodd" d="M1460.39 271.943C1457.3 276.584 1452.91 280.207 1447.77 282.353C1442.63 284.498 1436.96 285.071 1431.5 283.998C1426.03 282.926 1421 280.255 1417.05 276.326C1413.1 272.396 1410.4 267.383 1409.3 261.921C1408.2 256.458 1408.74 250.792 1410.86 245.638C1412.98 240.484 1416.58 236.074 1421.2 232.966C1425.83 229.857 1431.27 228.19 1436.84 228.175C1442.41 228.16 1447.87 229.797 1452.51 232.88C1458.73 237.016 1463.06 243.455 1464.54 250.78C1466.01 258.106 1464.52 265.718 1460.39 271.943Z" fill="#EFEFEF" stroke="#CED7DA" stroke-width="4" stroke-linecap="round" stroke-linejoin="round"/>
<path fill-rule="evenodd" clip-rule="evenodd" d="M1455.34 268.598C1452.92 272.242 1449.47 275.086 1445.44 276.771C1441.4 278.456 1436.95 278.906 1432.66 278.063C1428.36 277.221 1424.42 275.124 1421.31 272.038C1418.21 268.953 1416.09 265.016 1415.23 260.727C1414.36 256.438 1414.79 251.988 1416.45 247.941C1418.12 243.894 1420.94 240.431 1424.57 237.991C1428.21 235.55 1432.48 234.241 1436.86 234.229C1441.23 234.217 1445.51 235.502 1449.16 237.923C1451.58 239.531 1453.66 241.6 1455.28 244.011C1456.9 246.423 1458.03 249.13 1458.6 251.979C1459.18 254.827 1459.19 257.761 1458.63 260.613C1458.07 263.464 1456.95 266.177 1455.34 268.598Z" fill="#8FC9AE" stroke="#CED7DA" stroke-width="4" stroke-linecap="round" stroke-linejoin="round"/>
<path fill-rule="evenodd" clip-rule="evenodd" d="M1418.28 380.452C1409.89 393.116 1383.57 390.43 1359.52 374.453C1335.47 358.476 1322.79 335.267 1331.21 322.604" fill="#EFEFEF"/>
<path d="M1418.28 380.452C1409.89 393.116 1383.57 390.43 1359.52 374.453C1335.47 358.476 1322.79 335.267 1331.21 322.604" stroke="#CED7DA" stroke-width="4" stroke-linecap="round" stroke-linejoin="round"/>
<path d="M1462.91 313.278C1454.52 325.948 1428.19 323.262 1404.15 307.285C1380.1 291.309 1367.42 268.093 1375.84 255.436" stroke="#CED7DA" stroke-width="4" stroke-linecap="round" stroke-linejoin="round"/>
<path d="M1458.41 318.877C1450.02 331.547 1423.69 328.86 1399.64 312.884C1375.6 296.907 1362.93 273.698 1371.34 261.034" stroke="#CED7DA" stroke-width="4" stroke-linecap="round" stroke-linejoin="round" stroke-dasharray="3.82 6.69"/>
<path d="M1519.24 216.716C1511.91 227.758 1488.96 225.421 1468 211.485C1447.04 197.549 1435.98 177.31 1443.31 166.28" stroke="#CED7DA" stroke-width="4" stroke-linecap="round" stroke-linejoin="round" stroke-dasharray="3.82 6.69"/>
<path fill-rule="evenodd" clip-rule="evenodd" d="M1520.27 211.62C1513.21 222.249 1491.11 220.015 1470.91 206.576C1450.71 193.138 1440.06 173.642 1447.13 163.019" fill="#EFEFEF"/>
<path d="M1520.27 211.62C1513.21 222.249 1491.11 220.015 1470.91 206.576C1450.71 193.138 1440.06 173.642 1447.13 163.019" stroke="#CED7DA" stroke-width="4" stroke-linecap="round" stroke-linejoin="round"/>
<path fill-rule="evenodd" clip-rule="evenodd" d="M1329.64 324.871L1299.12 304.607L1374.21 257.781L1329.64 324.871Z" fill="#EFEFEF" stroke="#CED7DA" stroke-width="4" stroke-linecap="round" stroke-linejoin="round"/>
<path fill-rule="evenodd" clip-rule="evenodd" d="M1416.8 382.789L1446.84 402.737L1460.86 316.468L1416.8 382.789Z" fill="#EFEFEF" stroke="#CED7DA" stroke-width="4" stroke-linecap="round" stroke-linejoin="round"/>
<path d="M1419.58 382.244L1457.4 325.312L1454.24 344.747C1444.37 358.062 1435.39 372.029 1426.44 385.942C1426.31 386.143 1426.18 386.343 1426.05 386.544L1419.58 382.244Z" fill="black" fill-opacity="0.2" stroke="#CED7DA" stroke-width="4"/>
<path d="M1524.27 125.578L1535.9 108" stroke="#CED7DA" stroke-width="4" stroke-linecap="round" stroke-linejoin="round"/>
<path d="M1497.26 257.553L1497.26 257.552C1505.01 245.899 1517.41 217.583 1525.28 189.664C1529.21 175.723 1531.97 162.004 1532.48 150.609C1532.74 144.912 1532.43 139.87 1531.46 135.706C1530.86 133.132 1530.02 130.944 1528.94 129.152C1528.57 130.482 1528.11 132.135 1527.56 134.073C1525.99 139.6 1523.69 147.449 1520.74 156.744C1514.86 175.325 1506.42 199.717 1496.21 222.895C1489.41 238.345 1468.08 274.398 1447.85 307.508C1427.59 340.672 1408.3 371.099 1405.46 375.395M1497.26 257.553L1403.79 374.292M1497.26 257.553C1497.02 257.909 1495.88 259.645 1494.03 262.465C1480.49 283.047 1429 361.332 1414.91 381.49L1414.89 381.52L1414.88 381.533C1414.88 381.533 1414.88 381.534 1414.88 381.534C1414.88 381.535 1414.88 381.535 1414.88 381.536C1414.88 381.54 1414.87 381.545 1414.87 381.552C1414.87 381.558 1414.86 381.565 1414.85 381.574C1414.82 381.619 1414.76 381.699 1414.67 381.808C1414.49 382.025 1414.18 382.354 1413.75 382.743C1412.87 383.519 1411.44 384.539 1409.31 385.374C1405.51 386.862 1399.3 387.829 1389.75 385.531M1497.26 257.553L1385.78 386.259C1385.99 386.231 1386.2 386.201 1386.41 386.168C1387.41 386.017 1388.54 385.815 1389.75 385.531M1405.46 375.395L1403.79 374.292M1405.46 375.395C1405.46 375.394 1405.46 375.394 1405.46 375.393L1403.79 374.292M1405.46 375.395C1401.28 381.73 1394.81 384.346 1389.75 385.531M1403.79 374.292C1398.85 381.777 1390.31 383.628 1385.32 384.304C1385.62 384.394 1385.94 384.49 1386.28 384.594C1387.48 384.954 1388.64 385.265 1389.75 385.531" fill="black" fill-opacity="0.2" stroke="#CED7DA" stroke-width="4"/>
<path d="M1336.94 496.163C1339.93 493.947 1342.02 490.719 1342.81 487.081C1343.6 483.443 1343.04 479.641 1341.24 476.382C1342.2 475.827 1343.13 475.219 1344.02 474.561C1351.05 469.363 1352.59 460.445 1350.81 452.114C1350.04 448.495 1348.67 445.03 1346.75 441.866C1340.81 432.134 1322.56 417.546 1305.16 425.663C1300.47 427.846 1296.6 433.987 1294.58 438.579C1287.12 437.106 1279.51 439.806 1276.22 447.084C1274.76 450.33 1274.47 453.98 1275.4 457.416C1272.51 456.908 1269.53 457.417 1266.98 458.855C1264.42 460.293 1262.44 462.571 1261.38 465.304C1260.31 468.036 1260.23 471.052 1261.13 473.841C1262.04 476.63 1263.89 479.018 1266.36 480.599C1266.05 480.599 1265.75 480.658 1265.45 480.709C1263.02 481.138 1260.8 482.363 1259.14 484.192C1257.47 486.02 1256.47 488.349 1256.27 490.813C1256.08 493.276 1256.71 495.734 1258.07 497.8C1259.42 499.866 1261.42 501.423 1263.76 502.227" fill="#CED7DA"/>
<path d="M1336.94 496.163C1339.93 493.947 1342.02 490.719 1342.81 487.081C1343.6 483.443 1343.04 479.641 1341.24 476.382C1342.2 475.827 1343.13 475.219 1344.02 474.561C1351.05 469.363 1352.59 460.445 1350.81 452.114C1350.04 448.495 1348.67 445.03 1346.75 441.866C1340.81 432.134 1322.56 417.546 1305.16 425.663C1300.47 427.846 1296.6 433.987 1294.58 438.579C1287.12 437.106 1279.51 439.806 1276.22 447.084C1274.76 450.33 1274.47 453.98 1275.4 457.416C1272.51 456.908 1269.53 457.417 1266.98 458.855C1264.42 460.293 1262.44 462.571 1261.38 465.304C1260.31 468.036 1260.23 471.052 1261.13 473.841C1262.04 476.63 1263.89 479.018 1266.36 480.599C1266.05 480.599 1265.75 480.658 1265.45 480.709C1263.02 481.138 1260.8 482.363 1259.14 484.192C1257.47 486.02 1256.47 488.349 1256.27 490.813C1256.08 493.276 1256.71 495.734 1258.07 497.8C1259.42 499.866 1261.42 501.423 1263.76 502.227" stroke="#CED7DA" stroke-width="4" stroke-linecap="round" stroke-linejoin="round"/>
<path d="M1677.57 316.184C1678.11 318.054 1679.02 319.796 1680.25 321.309C1681.47 322.822 1682.99 324.076 1684.7 324.996C1686.42 325.916 1688.3 326.485 1690.24 326.668C1692.18 326.852 1694.14 326.646 1695.99 326.065C1697.85 325.483 1699.57 324.536 1701.06 323.28C1702.55 322.023 1703.77 320.483 1704.66 318.748C1705.54 317.014 1706.07 315.12 1706.21 313.178C1706.36 311.237 1706.11 309.286 1705.49 307.44C1703.31 300.459 1701.77 290.566 1709.45 286.129C1713.79 283.617 1719.97 283.546 1723.97 280.886C1727.35 278.651 1725.85 273.982 1725.67 270.288C1725.27 262.539 1724.16 254.46 1724.28 246.782C1717.94 246.182 1707.57 247.241 1701.99 250.657C1697.18 253.602 1692.4 259.052 1688.62 263.191C1684.4 267.822 1680.35 272.813 1676.35 277.683C1671.8 283.262 1668.77 288.183 1671.09 295.558L1677.57 316.184Z" fill="#EFEFEF" stroke="#CED7DA" stroke-width="4" stroke-linecap="round" stroke-linejoin="round"/>
<path d="M1679.49 315.626L1679.48 315.605L1679.48 315.584L1672.99 294.96C1672.99 294.959 1672.99 294.959 1672.99 294.958C1671.97 291.68 1672.14 289.057 1673.02 286.631C1673.94 284.12 1675.64 281.716 1677.9 278.95C1678.28 278.493 1678.65 278.035 1679.03 277.576C1682.67 273.142 1686.31 268.692 1690.1 264.539L1690.1 264.538C1690.36 264.258 1690.62 263.973 1690.88 263.685C1694.57 259.627 1698.83 254.94 1703.04 252.363L1703.04 252.362C1705.49 250.858 1709.17 249.791 1713.15 249.191C1716.34 248.709 1719.57 248.548 1722.28 248.654C1722.31 253.066 1722.69 257.651 1723.06 262.122C1723.3 264.948 1723.53 267.729 1723.67 270.392C1723.71 271.226 1723.82 272.11 1723.91 272.925C1723.93 273.092 1723.95 273.256 1723.97 273.416C1724.08 274.403 1724.17 275.292 1724.15 276.108C1724.13 277.724 1723.75 278.632 1722.87 279.219L1722.87 279.22C1721.2 280.331 1718.99 280.946 1716.34 281.626C1716.21 281.659 1716.08 281.692 1715.95 281.725C1713.54 282.343 1710.78 283.048 1708.45 284.399C1703.88 287.038 1702.11 291.325 1701.78 295.676C1701.45 299.954 1702.47 304.461 1703.58 308.037L1703.59 308.057L1703.6 308.077C1704.13 309.67 1704.34 311.355 1704.22 313.031C1704.1 314.707 1703.64 316.342 1702.87 317.84C1702.11 319.337 1701.06 320.667 1699.77 321.752C1698.49 322.836 1697 323.654 1695.4 324.156C1693.79 324.658 1692.1 324.835 1690.43 324.677C1688.76 324.519 1687.13 324.028 1685.65 323.233C1684.17 322.439 1682.86 321.357 1681.8 320.051L1680.25 321.309L1681.8 320.051C1680.74 318.744 1679.96 317.24 1679.49 315.626Z" fill="black" fill-opacity="0.2" stroke="#CED7DA" stroke-width="4"/>
<path d="M1645.42 318.78C1646.58 322.483 1649.16 325.573 1652.6 327.371C1656.03 329.169 1660.05 329.529 1663.75 328.37C1667.45 327.208 1670.54 324.624 1672.34 321.185C1674.14 317.746 1674.5 313.734 1673.34 310.03L1666.88 289.365C1665.72 285.663 1663.14 282.572 1659.7 280.774C1656.26 278.976 1652.25 278.617 1648.55 279.775C1644.84 280.935 1641.75 283.518 1639.96 286.956C1638.16 290.394 1637.8 294.406 1638.96 298.109L1645.42 318.78Z" fill="#EFEFEF" stroke="#CED7DA" stroke-width="4" stroke-linecap="round" stroke-linejoin="round"/>
<path d="M1671.43 310.627L1671.43 310.626L1664.97 289.963C1664.97 289.963 1664.97 289.962 1664.97 289.962C1664.97 289.962 1664.97 289.962 1664.97 289.961C1663.97 286.766 1661.74 284.099 1658.77 282.546C1655.8 280.994 1652.34 280.684 1649.15 281.684L1671.43 310.627ZM1671.43 310.627C1672.43 313.825 1672.12 317.289 1670.57 320.258C1669.02 323.227 1666.35 325.459 1663.15 326.462L1671.43 310.627ZM1640.87 297.512L1640.87 297.512L1647.32 318.182C1647.32 318.182 1647.32 318.183 1647.32 318.183C1648.33 321.379 1650.56 324.046 1653.52 325.599C1656.49 327.151 1659.95 327.461 1663.15 326.462L1640.87 297.512ZM1640.87 297.512C1639.87 294.315 1640.18 290.852 1641.73 287.883C1643.28 284.916 1645.95 282.686 1649.14 281.684L1640.87 297.512Z" fill="black" fill-opacity="0.2" stroke="#CED7DA" stroke-width="4"/>
<path d="M1611.42 310.489C1610.93 314.338 1611.98 318.225 1614.35 321.298C1616.72 324.37 1620.21 326.375 1624.06 326.873C1627.91 327.369 1631.8 326.316 1634.87 323.946C1637.94 321.576 1639.95 318.083 1640.44 314.235L1643.21 292.782C1643.71 288.934 1642.66 285.046 1640.29 281.973C1637.92 278.901 1634.42 276.896 1630.58 276.399C1626.73 275.902 1622.84 276.954 1619.77 279.323C1616.7 281.691 1614.69 285.183 1614.19 289.03L1611.42 310.489Z" fill="#EFEFEF" stroke="#CED7DA" stroke-width="4" stroke-linecap="round" stroke-linejoin="round"/>
<path d="M1613.4 310.745C1612.98 314.067 1613.89 317.424 1615.93 320.076C1617.98 322.729 1620.99 324.46 1624.32 324.889C1627.64 325.317 1630.99 324.408 1633.65 322.362C1636.3 320.316 1638.03 317.301 1638.46 313.979L1613.4 310.745ZM1613.4 310.745C1613.4 310.745 1613.4 310.745 1613.4 310.745L1616.18 289.287C1616.18 289.287 1616.18 289.287 1616.18 289.286C1616.61 285.965 1618.34 282.951 1620.99 280.907C1623.64 278.862 1627 277.954 1630.32 278.382L1613.4 310.745ZM1641.23 292.526L1638.46 313.978L1630.32 278.382C1633.64 278.812 1636.66 280.543 1638.7 283.195C1640.75 285.847 1641.66 289.204 1641.23 292.526C1641.23 292.526 1641.23 292.526 1641.23 292.526Z" fill="black" fill-opacity="0.2" stroke="#CED7DA" stroke-width="4"/>
<path d="M1997.78 313.802C1983.07 310.45 1967.59 306.698 1950.35 302.261C1938.23 299.123 1829.8 279.659 1802.8 261.067C1797.83 257.638 1743.66 205.382 1738.12 203.742C1732.47 202.075 1724.13 206.415 1707.2 206.815C1681.87 207.416 1661.55 206.04 1653.82 211.659C1647.62 216.179 1632.69 233.053 1627.29 240.654C1621.58 248.694 1609.37 266.957 1603.27 274.88C1597.39 282.501 1588.84 292.039 1596.46 303.559C1600.75 310.017 1607.14 307.776 1612.82 301.383C1618.34 295.164 1636.19 272.704 1643.41 266.634C1650.51 260.654 1659.29 259.53 1666.2 253.512C1670.76 249.566 1671.54 248.094 1677.61 247.054C1683.25 246.118 1688.91 243.56 1694.63 243.257C1700.8 242.934 1705.65 245.194 1712.12 244.283C1716.92 243.638 1722.62 240.273 1724.77 246.279C1726.19 250.205 1722.97 256.321 1722.03 260.079C1720.62 265.775 1720.29 271.703 1719.25 277.515C1718.43 282.081 1716.67 286.627 1715.9 291.251C1715.5 293.379 1715.38 295.55 1715.55 297.709C1716.26 305.529 1724.59 313.543 1729.63 318.793C1736.17 325.632 1745.39 333.853 1754.86 334.602C1787.03 337.133 1901.56 394.956 1997.78 445.088V313.802Z" stroke="#CED7DA" stroke-width="4" stroke-linecap="round" stroke-linejoin="round"/>
<path d="M1674.02 247.286C1667.11 249.469 1659.34 241.222 1658.8 234.765L1674.02 247.286Z" fill="#EFEFEF"/>
<path d="M1674.02 247.286C1667.11 249.469 1659.34 241.222 1658.8 234.765" stroke="#CED7DA" stroke-width="4" stroke-linecap="round" stroke-linejoin="round"/>
<path d="M1646.06 264.161C1641.75 267.118 1634.31 264.587 1631.01 261.287L1646.06 264.161Z" fill="#EFEFEF"/>
<path d="M1646.06 264.161C1641.75 267.118 1634.31 264.587 1631.01 261.287" stroke="#CED7DA" stroke-width="4" stroke-linecap="round" stroke-linejoin="round"/>
<path d="M1714.51 266.583L1600.31 319.136C1599.38 317.191 1597.9 315.565 1596.05 314.461C1597.34 311.568 1597.47 307.887 1596.98 306.834C1595.23 303.018 1590.28 302.314 1590.28 302.314C1590.28 302.314 1592.71 297.257 1590.92 293.77C1590.45 292.847 1588.21 290.974 1585.58 289.598C1586.38 287.448 1584.52 284.355 1584.08 283.657L1698.31 231.097C1698.66 230.933 1699.05 230.84 1699.44 230.825C1699.83 230.809 1700.22 230.871 1700.58 231.007C1700.95 231.142 1701.28 231.349 1701.57 231.615C1701.85 231.881 1702.08 232.201 1702.24 232.557C1702.24 232.557 1706.86 236.967 1711.65 247.41C1716.44 257.852 1716.01 262.611 1716.01 262.611C1716.17 262.97 1716.26 263.357 1716.27 263.751C1716.29 264.145 1716.22 264.538 1716.09 264.907C1715.95 265.277 1715.74 265.615 1715.47 265.902C1715.2 266.19 1714.87 266.421 1714.51 266.583Z" fill="#8FC9AE" stroke="#CED7DA" stroke-width="4" stroke-linecap="round" stroke-linejoin="round"/>
<path d="M1590.82 293.654C1590.25 292.698 1588.09 290.922 1585.55 289.598C1586.35 287.448 1584.5 284.355 1584.05 283.657L1698.28 231.097C1698.64 230.933 1699.02 230.84 1699.41 230.825C1699.8 230.809 1700.19 230.871 1700.56 231.007C1700.92 231.142 1701.26 231.349 1701.54 231.615C1701.83 231.881 1702.06 232.201 1702.22 232.557C1704.23 234.723 1706 237.106 1707.49 239.66L1590.82 293.654Z" fill="#8FC9AE" stroke="#CED7DA" stroke-width="4" stroke-linecap="round" stroke-linejoin="round"/>
<path d="M1597.06 307.111L1713.91 253.047C1716.24 259.621 1715.98 262.643 1715.98 262.643C1716.3 263.361 1716.33 264.176 1716.06 264.914C1715.78 265.651 1715.23 266.251 1714.51 266.582L1600.31 319.136C1599.38 317.191 1597.9 315.564 1596.05 314.46C1597.23 311.768 1597.45 308.416 1597.06 307.111Z" fill="#8FC9AE" stroke="#CED7DA" stroke-width="4" stroke-linecap="round" stroke-linejoin="round"/>
<path d="M1733.84 257.736L1715.44 266.163C1715.24 265.769 1713.17 256.134 1709.19 247.435C1705.21 238.737 1699.39 231.052 1699.17 230.71L1717.61 222.263C1722.38 220.1 1727.12 227.726 1731.9 238.207C1736.69 248.688 1737.65 255.998 1733.84 257.736Z" fill="#EFEFEF" stroke="#CED7DA" stroke-width="4" stroke-miterlimit="10"/>
<path d="M1733.84 257.736L1715.44 266.163C1715.24 265.769 1713.17 256.134 1709.19 247.435C1705.21 238.737 1699.39 231.052 1699.17 230.71L1717.61 222.263C1722.38 220.1 1727.12 227.726 1731.9 238.207C1736.69 248.688 1737.65 255.998 1733.84 257.736Z" fill="#EFEFEF" stroke="#CED7DA" stroke-width="4" stroke-linecap="round" stroke-linejoin="round"/>
<path d="M1583.95 283.509C1583.98 283.56 1584.02 283.61 1584.05 283.657L1583.75 283.799L1583.95 283.509Z" fill="#EFEFEF" stroke="#CED7DA" stroke-width="4" stroke-linecap="round" stroke-linejoin="round"/>
<path d="M1600.42 319.375L1599.89 319.323L1600.31 319.136C1600.35 319.212 1600.39 319.292 1600.42 319.375Z" fill="#EFEFEF" stroke="#CED7DA" stroke-width="4" stroke-linecap="round" stroke-linejoin="round"/>
<path d="M1585.55 289.597C1588.19 290.973 1590.42 292.826 1590.9 293.769C1592.71 297.256 1590.25 302.313 1590.25 302.313C1590.25 302.313 1595.21 303.017 1596.95 306.833C1597.44 307.886 1597.3 311.567 1596.02 314.46C1597.87 315.564 1599.35 317.19 1600.28 319.135L1599.86 319.323L1594.29 318.806C1594.29 318.748 1594.22 318.703 1594.2 318.651L1580.44 288.564C1580.44 288.564 1580.44 288.506 1580.44 288.467L1583.75 283.798L1584.05 283.656C1584.5 284.354 1586.35 287.447 1585.55 289.597Z" fill="#EFEFEF" stroke="#CED7DA" stroke-width="4" stroke-linecap="round" stroke-linejoin="round"/>
<path d="M1590.28 302.314C1590.28 302.314 1595.23 303.018 1596.98 306.834C1597.47 307.887 1597.32 311.568 1596.05 314.461C1597.9 315.565 1599.38 317.192 1600.31 319.136L1599.89 319.324L1594.31 318.807L1580.75 317.516L1576.88 317.154L1573.59 309.966L1570.29 302.772L1572.55 299.544L1580.46 288.404L1583.77 283.735L1584.07 283.593C1584.52 284.29 1586.37 287.384 1585.57 289.534C1588.21 290.909 1590.44 292.763 1590.92 293.706C1592.71 297.257 1590.28 302.314 1590.28 302.314Z" fill="#EFEFEF" stroke="#CED7DA" stroke-width="4" stroke-linecap="round" stroke-linejoin="round"/>
<path d="M1576.83 317.16L1561.11 315.675L1570.27 302.798L1570.27 302.804L1573.57 309.998L1576.83 317.16Z" fill="black" stroke="#CED7DA" stroke-width="4" stroke-miterlimit="10"/>
<path d="M1729.98 281.759C1722.13 282.089 1715.06 284.291 1707.49 283.8C1698.49 283.212 1688.27 279.454 1679.25 280.203C1663.82 281.494 1632.59 277.064 1627.32 293.958C1622.46 309.508 1637.55 313.796 1646.9 314.235C1663.97 315.03 1666.27 317.742 1678.44 317.161C1689.2 316.651 1696.99 319.834 1707.5 322.605C1718.4 325.478 1723.59 328.152 1734.46 331.161C1741.26 333.04 1750.01 335.959 1756.9 333.667" fill="#F5F5F5"/>
<path d="M1729.98 281.759C1722.13 282.089 1715.06 284.291 1707.49 283.8C1698.49 283.212 1688.27 279.454 1679.25 280.203C1663.82 281.494 1632.59 277.064 1627.32 293.958C1622.46 309.508 1637.55 313.796 1646.9 314.235C1663.97 315.03 1666.27 317.742 1678.44 317.161C1689.2 316.651 1696.99 319.834 1707.5 322.605C1718.4 325.478 1723.59 328.152 1734.46 331.161C1741.26 333.04 1750.01 335.959 1756.9 333.667" stroke="#CED7DA" stroke-width="4" stroke-linecap="round" stroke-linejoin="round"/>
<path d="M1636.49 291.328L1631.01 306.827C1633.36 310.056 1654.26 315.119 1656.14 304.102C1658.8 288.358 1644.74 291.328 1636.49 291.328Z" fill="#EFEFEF" stroke="#CED7DA" stroke-width="4" stroke-linecap="round" stroke-linejoin="round"/>
<path d="M1681.84 314.305C1686.75 310.74 1693.84 295.519 1689.96 291.328L1681.84 314.305Z" fill="#EFEFEF"/>
<path d="M1681.84 314.305C1686.75 310.74 1693.84 295.519 1689.96 291.328" stroke="#CED7DA" stroke-width="4" stroke-linecap="round" stroke-linejoin="round"/>
<path d="M1689.96 314.306C1693.91 310.134 1700.13 295.804 1698.14 290.625L1689.96 314.306Z" fill="#EFEFEF"/>
<path d="M1689.96 314.306C1693.91 310.134 1700.13 295.804 1698.14 290.625" stroke="#CED7DA" stroke-width="4" stroke-linecap="round" stroke-linejoin="round"/>
<path d="M1102.12 743.419V619.055" stroke="#8FC9AE" stroke-width="4" stroke-linecap="round" stroke-linejoin="round"/>
<path d="M1117.17 644.711H1087.07V714.268H1117.17V644.711Z" fill="#8FC9AE" stroke="#8FC9AE" stroke-width="4" stroke-linecap="round" stroke-linejoin="round"/>
<path d="M1064.73 824.682V656.993" stroke="#7E8F94" stroke-width="4" stroke-linecap="round" stroke-linejoin="round"/>
<path d="M1079.78 682.65H1049.68V714.248H1079.78V682.65Z" fill="#7E8F94" stroke="#7E8F94" stroke-width="4" stroke-linecap="round" stroke-linejoin="round"/>
<path d="M1027.34 700.345V619.035" stroke="#7E8F94" stroke-width="4" stroke-linecap="round" stroke-linejoin="round"/>
<path d="M1042.39 635.812H1012.29V681.288H1042.39V635.812Z" fill="#7E8F94" stroke="#7E8F94" stroke-width="4" stroke-linecap="round" stroke-linejoin="round"/>
<path d="M989.957 699.189V578.622" stroke="#7E8F94" stroke-width="4" stroke-linecap="round" stroke-linejoin="round"/>
<path d="M1005.01 600.476H974.91V670.032H1005.01V600.476Z" fill="#7E8F94" stroke="#7E8F94" stroke-width="4" stroke-linecap="round" stroke-linejoin="round"/>
<path d="M952.573 681.217V576.627" stroke="#8FC9AE" stroke-width="4" stroke-linecap="round" stroke-linejoin="round"/>
<path d="M967.626 601.625H937.526V652.06H967.626V601.625Z" fill="#8FC9AE" stroke="#8FC9AE" stroke-width="4" stroke-linecap="round" stroke-linejoin="round"/>
<path d="M915.188 706.873V627.714" stroke="#8FC9AE" stroke-width="4" stroke-linecap="round" stroke-linejoin="round"/>
<path d="M930.235 653.371H900.136V677.717H930.235V653.371Z" fill="#8FC9AE" stroke="#8FC9AE" stroke-width="4" stroke-linecap="round" stroke-linejoin="round"/>
<path d="M877.798 714.101V629.22" stroke="#8FC9AE" stroke-width="4" stroke-linecap="round" stroke-linejoin="round"/>
<path d="M892.851 634.767H862.751V684.95H892.851V634.767Z" fill="#8FC9AE" stroke="#8FC9AE" stroke-width="4" stroke-linecap="round" stroke-linejoin="round"/>
<path d="M578.253 620.952V453.263" stroke="#7E8F94" stroke-width="4" stroke-linecap="round" stroke-linejoin="round"/>
<path d="M593.3 478.92H563.2V510.518H593.3V478.92Z" fill="#7E8F94" stroke="#7E8F94" stroke-width="4" stroke-linecap="round" stroke-linejoin="round"/>
<path d="M540.87 522.446V441.143" stroke="#7E8F94" stroke-width="4" stroke-linecap="round" stroke-linejoin="round"/>
<path d="M555.916 457.913H525.817V503.389H555.916V457.913Z" fill="#7E8F94" stroke="#7E8F94" stroke-width="4" stroke-linecap="round" stroke-linejoin="round"/>
<path d="M503.479 501.916V334.505" stroke="#8FC9AE" stroke-width="4" stroke-linecap="round" stroke-linejoin="round"/>
<path d="M518.532 409.855H488.433V457.669H518.532V409.855Z" fill="#8FC9AE" stroke="#8FC9AE" stroke-width="4" stroke-linecap="round" stroke-linejoin="round"/>
<path d="M466.095 503.325V424.565" stroke="#8FC9AE" stroke-width="4" stroke-linecap="round" stroke-linejoin="round"/>
<path d="M481.148 449.563H451.048V474.168H481.148V449.563Z" fill="#8FC9AE" stroke="#8FC9AE" stroke-width="4" stroke-linecap="round" stroke-linejoin="round"/>
<path d="M428.711 528.975V430.448" stroke="#8FC9AE" stroke-width="4" stroke-linecap="round" stroke-linejoin="round"/>
<path d="M443.757 456.099H413.658V499.824H443.757V456.099Z" fill="#8FC9AE" stroke="#8FC9AE" stroke-width="4" stroke-linecap="round" stroke-linejoin="round"/>
<path d="M129.205 707.739V639.351" stroke="#EFEFEF" stroke-width="4" stroke-linecap="round" stroke-linejoin="round"/>
<path d="M144.252 688.411H114.152V694.824H144.252V688.411Z" fill="#7E8F94" stroke="#7E8F94" stroke-width="4" stroke-linecap="round" stroke-linejoin="round"/>
<path d="M91.8149 717.562V622.826" stroke="#7E8F94" stroke-width="4" stroke-linecap="round" stroke-linejoin="round"/>
<path d="M106.868 664.058H76.7683V688.403H106.868V664.058Z" fill="#7E8F94" stroke="#7E8F94" stroke-width="4" stroke-linecap="round" stroke-linejoin="round"/>
<path d="M54.4307 731.885V653.126" stroke="#8FC9AE" stroke-width="4" stroke-linecap="round" stroke-linejoin="round"/>
<path d="M69.4838 678.124H39.384V702.728H69.4838V678.124Z" fill="#8FC9AE" stroke="#8FC9AE" stroke-width="4" stroke-linecap="round" stroke-linejoin="round"/>
<path d="M17.0469 776.916V678.383" stroke="#8FC9AE" stroke-width="4" stroke-linecap="round" stroke-linejoin="round"/>
<path d="M32.0997 704.038H2V747.764H32.0997V704.038Z" fill="#8FC9AE" stroke="#8FC9AE" stroke-width="4" stroke-linecap="round" stroke-linejoin="round"/>
<path d="M391.326 555.574V470.699" stroke="#8FC9AE" stroke-width="4" stroke-linecap="round" stroke-linejoin="round"/>
<path d="M406.373 476.24H376.273V526.424H406.373V476.24Z" fill="#8FC9AE" stroke="#8FC9AE" stroke-width="4" stroke-linecap="round" stroke-linejoin="round"/>
<path d="M354.123 551.151V469.841" stroke="#7E8F94" stroke-width="4" stroke-linecap="round" stroke-linejoin="round"/>
<path d="M369.17 486.618H339.07V532.094H369.17V486.618Z" fill="#7E8F94" stroke="#7E8F94" stroke-width="4" stroke-linecap="round" stroke-linejoin="round"/>
<path d="M316.733 541.599V446.863" stroke="#7E8F94" stroke-width="4" stroke-linecap="round" stroke-linejoin="round"/>
<path d="M331.786 488.098H301.687V512.443H331.786V488.098Z" fill="#7E8F94" stroke="#7E8F94" stroke-width="4" stroke-linecap="round" stroke-linejoin="round"/>
<path d="M279.349 543.001V464.242" stroke="#8FC9AE" stroke-width="4" stroke-linecap="round" stroke-linejoin="round"/>
<path d="M294.402 489.247H264.302V513.851H294.402V489.247Z" fill="#8FC9AE" stroke="#8FC9AE" stroke-width="4" stroke-linecap="round" stroke-linejoin="round"/>
<path d="M241.965 568.659V470.126" stroke="#8FC9AE" stroke-width="4" stroke-linecap="round" stroke-linejoin="round"/>
<path d="M257.018 495.781H226.918V539.5H257.018V495.781Z" fill="#8FC9AE" stroke="#8FC9AE" stroke-width="4" stroke-linecap="round" stroke-linejoin="round"/>
<path d="M204.581 615.903V531.028" stroke="#8FC9AE" stroke-width="4" stroke-linecap="round" stroke-linejoin="round"/>
<path d="M219.627 536.568H189.528V586.752H219.627V536.568Z" fill="#8FC9AE" stroke="#8FC9AE" stroke-width="4" stroke-linecap="round" stroke-linejoin="round"/>
<path d="M166.803 717.187V580.644" stroke="#8FC9AE" stroke-width="4" stroke-linecap="round" stroke-linejoin="round"/>
<path d="M181.856 586.185H151.756V688.03H181.856V586.185Z" fill="#8FC9AE" stroke="#8FC9AE" stroke-width="4" stroke-linecap="round" stroke-linejoin="round"/>
<path d="M840.414 662.658V583.505" stroke="#7E8F94" stroke-width="4" stroke-linecap="round" stroke-linejoin="round"/>
<path d="M855.467 633.508H825.368V652.068H855.467V633.508Z" fill="#7E8F94" stroke="#7E8F94" stroke-width="4" stroke-linecap="round" stroke-linejoin="round"/>
<path d="M803.03 628.819V536.744" stroke="#7E8F94" stroke-width="4" stroke-linecap="round" stroke-linejoin="round"/>
<path d="M818.076 577.46H787.977V638.899H818.076V577.46Z" fill="#7E8F94" stroke="#7E8F94" stroke-width="4" stroke-linecap="round" stroke-linejoin="round"/>
<path d="M765.639 634.443V510.079" stroke="#EFEFEF" stroke-width="4" stroke-linecap="round" stroke-linejoin="round"/>
<path d="M780.692 535.736H750.593V605.293H780.692V535.736Z" fill="#8FC9AE" stroke="#8FC9AE" stroke-width="4" stroke-linecap="round" stroke-linejoin="round"/>
<path d="M728.255 611.661V487.297" stroke="#7E8F94" stroke-width="4" stroke-linecap="round" stroke-linejoin="round"/>
<path d="M743.308 537.408H713.209V582.509H743.308V537.408Z" fill="#7E8F94" stroke="#7E8F94" stroke-width="4" stroke-linecap="round" stroke-linejoin="round"/>
<path d="M690.871 657.768V533.397" stroke="#8FC9AE" stroke-width="4" stroke-linecap="round" stroke-linejoin="round"/>
<path d="M705.924 559.055H675.824V628.611H705.924V559.055Z" fill="#8FC9AE" stroke="#8FC9AE" stroke-width="4" stroke-linecap="round" stroke-linejoin="round"/>
<path d="M653.487 587.987V487.297" stroke="#7E8F94" stroke-width="4" stroke-linecap="round" stroke-linejoin="round"/>
<path d="M668.533 512.954H638.434V556.68H668.533V512.954Z" fill="#7E8F94" stroke="#7E8F94" stroke-width="4" stroke-linecap="round" stroke-linejoin="round"/>
<path d="M616.096 532.19V459.495" stroke="#7E8F94" stroke-width="4" stroke-linecap="round" stroke-linejoin="round"/>
<path d="M631.15 485.146H601.05V503.035H631.15V485.146Z" fill="#7E8F94" stroke="#7E8F94" stroke-width="4" stroke-linecap="round" stroke-linejoin="round"/>
<path d="M1139.5 679.487V596.686" stroke="#8FC9AE" stroke-width="4" stroke-linecap="round" stroke-linejoin="round"/>
<path d="M1154.55 602.651H1124.45V657.116H1154.55V602.651Z" fill="#8FC9AE" stroke="#8FC9AE" stroke-width="4" stroke-linecap="round" stroke-linejoin="round"/>
<path d="M1176.88 656.793V523.537" stroke="#8FC9AE" stroke-width="4" stroke-linecap="round" stroke-linejoin="round"/>
<path d="M1191.94 535.679H1161.84V615.297H1191.94V535.679Z" fill="#8FC9AE" stroke="#8FC9AE" stroke-width="4" stroke-linecap="round" stroke-linejoin="round"/>
<path d="M1243.71 642.69C1243.07 642.979 1242.45 643.304 1241.86 643.665C1240.94 642.204 1239.65 641.013 1238.12 640.219C1236.59 639.424 1234.88 639.053 1233.16 639.146C1231.44 639.238 1229.77 639.79 1228.34 640.743C1226.9 641.697 1225.75 643.018 1224.99 644.569C1223.78 643.05 1222.04 642.028 1220.13 641.697C1218.21 641.365 1216.23 641.746 1214.58 642.769C1212.92 643.791 1211.69 645.384 1211.13 647.247C1210.56 649.111 1210.7 651.117 1211.51 652.887C1211.59 653.074 1211.68 653.248 1211.78 653.436C1205.97 656.665 1203.21 663.226 1205.64 668.534C1208.22 674.172 1215.42 675.76 1222.01 672.744L1251.32 659.345C1257.92 656.322 1259.71 651.008 1257.6 646.429C1255.49 641.85 1250.31 639.674 1243.71 642.69Z" fill="#EFEFEF" stroke="#CED7DA" stroke-width="4" stroke-linecap="round" stroke-linejoin="round"/>
<path d="M1176.97 550.254C1176.35 550.562 1175.73 550.907 1175.15 551.287C1172.49 547.302 1167.94 545.217 1163.52 547.412C1161.44 548.445 1156.35 551.707 1158.87 557.835C1151.15 558.332 1148.88 566.153 1151.47 571.396C1154.21 576.969 1161.47 578.345 1167.99 575.142L1185.08 566.747C1191.59 563.518 1193.22 558.151 1190.98 553.605C1188.75 549.059 1183.51 547.031 1176.97 550.254Z" fill="#EFEFEF" stroke="#EFEFEF" stroke-width="4" stroke-linecap="round" stroke-linejoin="round"/>
<path d="M538.286 301.655C538.286 303.71 537.47 305.681 536.017 307.134C534.563 308.587 532.592 309.404 530.537 309.404H515.038L503.414 322.319L491.144 309.404H476.292C474.236 309.404 472.265 308.587 470.812 307.134C469.359 305.681 468.542 303.71 468.542 301.655V273.337C468.542 271.282 469.359 269.311 470.812 267.858C472.265 266.404 474.236 265.588 476.292 265.588H530.537C532.592 265.588 534.563 266.404 536.017 267.858C537.47 269.311 538.286 271.282 538.286 273.337V301.655Z" fill="#8FC9AE" stroke="#CED7DA" stroke-width="4" stroke-linecap="round" stroke-linejoin="round"/>
</svg>
