<svg width="890" height="410" viewBox="0 0 890 410" fill="none" xmlns="http://www.w3.org/2000/svg">
<path d="M50.0301 243.916C49.6317 243.921 49.2339 243.948 48.8386 243.997C48.4709 241.294 46.6322 239.102 43.841 239.128C42.5134 239.128 39.0971 239.555 38.8765 243.324C34.8055 241.673 31.7018 245.133 31.7349 248.443C31.7643 251.981 35.1512 254.478 39.2883 254.445C43.4254 254.412 46.4887 254.389 50.1294 254.356C54.2702 254.312 56.4288 251.955 56.4031 249.068C56.3773 246.181 54.1709 243.876 50.0301 243.916Z" fill="white" stroke="#CED7DA" stroke-linecap="round" stroke-linejoin="round"/>
<path d="M567.433 23.667H573.14" stroke="#CED7DA" stroke-linecap="round" stroke-linejoin="round"/>
<path d="M232.478 326.371V317.722" stroke="#CED7DA" stroke-linecap="round" stroke-linejoin="round"/>
<path d="M236.803 322.046H228.154" stroke="#CED7DA" stroke-linecap="round" stroke-linejoin="round"/>
<path d="M348.214 360.06C347.817 360.04 347.42 360.04 347.023 360.06C346.948 359.082 346.612 358.141 346.05 357.336C345.489 356.531 344.722 355.891 343.829 355.483C342.936 355.075 341.951 354.914 340.974 355.016C339.998 355.118 339.067 355.479 338.278 356.063C338.064 354.976 337.461 354.004 336.581 353.33C335.702 352.657 334.606 352.327 333.501 352.405C332.396 352.482 331.357 352.96 330.579 353.75C329.802 354.539 329.34 355.585 329.279 356.692C329.279 356.809 329.279 356.923 329.279 357.059C325.473 357.162 322.369 359.733 322.193 363.054C322.002 366.58 325.216 369.283 329.338 369.504L347.663 370.489C351.789 370.71 354.095 368.496 354.249 365.621C354.403 362.745 352.344 360.285 348.214 360.06Z" fill="white" stroke="#CED7DA" stroke-linecap="round" stroke-linejoin="round"/>
<path d="M659.424 327.694C660.145 327.535 660.863 327.373 661.579 327.209" stroke="#CED7DA" stroke-linecap="round" stroke-linejoin="round"/>
<path d="M887.891 120.63C888.432 119.95 888.914 119.391 889.333 118.961" stroke="#CED7DA" stroke-linecap="round" stroke-linejoin="round"/>
<path d="M106.037 223.469C106.585 222.973 107.14 222.483 107.677 221.998" stroke="#CED7DA" stroke-linecap="round" stroke-linejoin="round"/>
<path d="M282.112 140.605C282.848 140.605 283.583 140.605 284.319 140.605" stroke="#CED7DA" stroke-linecap="round" stroke-linejoin="round"/>
<path d="M82.3656 220.781C81.9823 220.778 81.5992 220.797 81.2183 220.839C81.098 219.901 80.7284 219.013 80.1478 218.266C79.5672 217.519 78.797 216.942 77.9174 216.594C77.0378 216.246 76.081 216.141 75.1468 216.288C74.2125 216.436 73.335 216.832 72.6057 217.434C72.3453 216.399 71.7156 215.494 70.8352 214.891C69.9548 214.287 68.8842 214.026 67.8246 214.156C66.765 214.286 65.7895 214.798 65.0812 215.597C64.373 216.396 63.9808 217.426 63.9785 218.493C63.9785 218.607 63.9785 218.714 63.9785 218.828C60.3231 219.122 57.4658 221.748 57.4621 224.951C57.4621 228.352 60.6835 230.791 64.6625 230.798L82.3399 230.824C86.3225 230.824 88.426 228.584 88.4297 225.808C88.4334 223.031 86.3483 220.784 82.3656 220.781Z" fill="white" stroke="#CED7DA" stroke-linecap="round" stroke-linejoin="round"/>
<path d="M769.423 198.117C768.761 195.022 767.586 192.058 765.948 189.35C760.869 181.024 745.251 168.543 730.365 175.486C726.353 177.354 723.047 182.609 721.319 186.563C714.938 185.305 708.422 187.614 705.609 193.837C704.355 196.623 704.107 199.758 704.906 202.706C702.433 202.265 699.884 202.695 697.693 203.923C695.502 205.151 693.804 207.1 692.889 209.44C691.975 211.779 691.899 214.363 692.676 216.752C693.453 219.14 695.035 221.186 697.151 222.539C696.893 222.561 696.636 222.587 696.378 222.634C694.294 222.998 692.39 224.045 690.966 225.61C689.543 227.175 688.68 229.169 688.514 231.278C688.349 233.388 688.89 235.492 690.052 237.26C691.214 239.028 692.931 240.359 694.933 241.044C692.851 241.813 690.982 243.065 689.479 244.698C687.976 246.331 686.882 248.297 686.288 250.436C685.694 252.574 685.616 254.823 686.061 256.997C686.506 259.172 687.462 261.209 688.848 262.942C690.235 264.675 692.014 266.053 694.038 266.964C696.062 267.875 698.273 268.291 700.49 268.18C702.706 268.069 704.865 267.433 706.787 266.324C708.71 265.215 710.341 263.666 711.548 261.803C713.506 263.457 715.881 264.542 718.414 264.94C720.946 265.338 723.54 265.033 725.911 264.059C728.283 263.085 730.341 261.48 731.863 259.417C733.385 257.353 734.312 254.912 734.543 252.359C736.522 253.252 738.724 253.53 740.863 253.158C743.002 252.785 744.98 251.779 746.541 250.27C748.102 248.76 749.174 246.817 749.618 244.692C750.062 242.566 749.858 240.356 749.032 238.348C751.374 238.478 753.709 237.978 755.792 236.899C757.876 235.82 759.632 234.203 760.878 232.215C762.125 230.227 762.815 227.942 762.878 225.596C762.941 223.251 762.375 220.932 761.237 218.88C762.056 218.403 762.848 217.881 763.609 217.317C769.625 212.875 770.942 205.244 769.423 198.117Z" fill="white" stroke="#CED7DA" stroke-linecap="round" stroke-linejoin="round"/>
<mask id="path-12-inside-1" fill="white">
<path d="M759.994 215.478C761.494 213.98 762.398 211.988 762.539 209.873C762.679 207.757 762.047 205.663 760.759 203.979C761.25 203.584 761.72 203.163 762.167 202.718C765.694 199.202 765.812 194.05 764.113 189.505C763.372 187.532 762.308 185.696 760.965 184.073C756.806 179.09 745.299 172.405 736.179 178.436C733.723 180.061 732.06 183.845 731.306 186.618C726.985 186.416 722.922 188.574 721.679 192.947C721.125 194.903 721.269 196.991 722.087 198.853C720.414 198.801 718.775 199.332 717.451 200.355C716.126 201.378 715.197 202.829 714.824 204.46C714.451 206.092 714.655 207.802 715.403 209.299C716.151 210.797 717.396 211.988 718.925 212.669C718.759 212.713 718.59 212.753 718.428 212.809C717.092 213.253 715.942 214.129 715.158 215.299C714.375 216.468 714.002 217.865 714.099 219.27C714.197 220.675 714.758 222.007 715.696 223.057C716.633 224.108 717.893 224.817 719.278 225.073"/>
</mask>
<path d="M759.994 215.478C761.494 213.98 762.398 211.988 762.539 209.873C762.679 207.757 762.047 205.663 760.759 203.979C761.25 203.584 761.72 203.163 762.167 202.718C765.694 199.202 765.812 194.05 764.113 189.505C763.372 187.532 762.308 185.696 760.965 184.073C756.806 179.09 745.299 172.405 736.179 178.436C733.723 180.061 732.06 183.845 731.306 186.618C726.985 186.416 722.922 188.574 721.679 192.947C721.125 194.903 721.269 196.991 722.087 198.853C720.414 198.801 718.775 199.332 717.451 200.355C716.126 201.378 715.197 202.829 714.824 204.46C714.451 206.092 714.655 207.802 715.403 209.299C716.151 210.797 717.396 211.988 718.925 212.669C718.759 212.713 718.59 212.753 718.428 212.809C717.092 213.253 715.942 214.129 715.158 215.299C714.375 216.468 714.002 217.865 714.099 219.27C714.197 220.675 714.758 222.007 715.696 223.057C716.633 224.108 717.893 224.817 719.278 225.073" fill="black" fill-opacity="0.2"/>
<path d="M760.759 203.979L760.132 203.2L759.372 203.812L759.965 204.587L760.759 203.979ZM762.167 202.718L762.873 203.426L762.873 203.426L762.167 202.718ZM764.113 189.505L765.049 189.155L765.049 189.153L764.113 189.505ZM760.965 184.073L761.735 183.436L761.733 183.432L760.965 184.073ZM736.179 178.436L735.627 177.602L735.627 177.602L736.179 178.436ZM731.306 186.618L731.26 187.617L732.061 187.654L732.271 186.88L731.306 186.618ZM721.679 192.947L720.717 192.673L720.717 192.674L721.679 192.947ZM722.087 198.853L722.056 199.852L723.64 199.901L723.003 198.451L722.087 198.853ZM718.925 212.669L719.182 213.635L721.915 212.906L719.332 211.755L718.925 212.669ZM718.428 212.809L718.744 213.758L718.751 213.755L718.428 212.809ZM760.701 216.186C762.372 214.516 763.38 212.296 763.537 209.939L761.541 209.806C761.416 211.68 760.615 213.444 759.287 214.771L760.701 216.186ZM763.537 209.939C763.693 207.582 762.989 205.248 761.553 203.372L759.965 204.587C761.105 206.078 761.666 207.933 761.541 209.806L763.537 209.939ZM761.386 204.758C761.905 204.341 762.401 203.896 762.873 203.426L761.462 202.009C761.04 202.429 760.596 202.827 760.132 203.2L761.386 204.758ZM762.873 203.426C766.784 199.528 766.824 193.903 765.049 189.155L763.176 189.855C764.799 194.197 764.604 198.877 761.461 202.01L762.873 203.426ZM765.049 189.153C764.27 187.077 763.15 185.144 761.735 183.436L760.195 184.711C761.467 186.249 762.475 187.987 763.177 189.856L765.049 189.153ZM761.733 183.432C759.533 180.798 755.461 177.776 750.754 176.177C746.029 174.573 740.525 174.363 735.627 177.602L736.731 179.27C740.953 176.478 745.763 176.595 750.111 178.071C754.476 179.553 758.237 182.366 760.197 184.714L761.733 183.432ZM735.627 177.602C734.205 178.543 733.08 180.055 732.227 181.617C731.366 183.194 730.735 184.909 730.341 186.356L732.271 186.88C732.632 185.555 733.209 183.991 733.982 182.576C734.762 181.147 735.696 179.954 736.731 179.27L735.627 177.602ZM731.353 185.619C726.69 185.401 722.118 187.747 720.717 192.673L722.641 193.22C723.726 189.402 727.281 187.431 731.26 187.617L731.353 185.619ZM720.717 192.674C720.1 194.854 720.26 197.181 721.172 199.255L723.003 198.451C722.278 196.802 722.151 194.952 722.641 193.219L720.717 192.674ZM722.118 197.853C720.213 197.795 718.348 198.399 716.84 199.563L718.062 201.146C719.203 200.265 720.615 199.808 722.056 199.852L722.118 197.853ZM716.84 199.563C715.331 200.728 714.274 202.38 713.849 204.237L715.799 204.683C716.121 203.278 716.92 202.028 718.062 201.146L716.84 199.563ZM713.849 204.237C713.424 206.094 713.657 208.042 714.509 209.746L716.298 208.853C715.653 207.563 715.477 206.089 715.799 204.683L713.849 204.237ZM714.509 209.746C715.36 211.451 716.777 212.807 718.518 213.582L719.332 211.755C718.015 211.169 716.942 210.142 716.298 208.853L714.509 209.746ZM718.667 211.703C718.536 211.738 718.31 211.792 718.105 211.862L718.751 213.755C718.87 213.714 718.982 213.688 719.182 213.635L718.667 211.703ZM718.112 211.86C716.566 212.374 715.235 213.388 714.327 214.742L715.989 215.855C716.649 214.87 717.618 214.132 718.744 213.757L718.112 211.86ZM714.327 214.742C713.42 216.096 712.989 217.713 713.102 219.339L715.097 219.201C715.015 218.018 715.329 216.841 715.989 215.855L714.327 214.742ZM713.102 219.339C713.214 220.965 713.864 222.507 714.95 223.723L716.442 222.392C715.652 221.507 715.179 220.384 715.097 219.201L713.102 219.339ZM714.95 223.723C716.035 224.939 717.493 225.76 719.096 226.056L719.459 224.09C718.293 223.874 717.232 223.277 716.442 222.392L714.95 223.723Z" fill="#CED7DA" mask="url(#path-12-inside-1)"/>
<path fill-rule="evenodd" clip-rule="evenodd" d="M755.883 152.797C754.592 154.411 753.334 156.129 752.135 157.945C741.32 174.222 746.873 196.926 746.873 196.926C746.873 196.926 769.956 193.249 780.768 176.972C781.97 175.163 783.063 173.339 784.048 171.522L755.883 152.797Z" fill="white" stroke="#CED7DA" stroke-linecap="round" stroke-linejoin="round"/>
<path fill-rule="evenodd" clip-rule="evenodd" d="M762.406 157.128C761.713 157.998 761.04 158.919 760.388 159.89C754.581 168.631 757.563 180.818 757.563 180.818C757.563 180.818 769.963 178.843 775.766 170.106C776.414 169.125 777.001 168.144 777.528 167.164L762.406 157.128Z" fill="white" stroke="#CED7DA" stroke-linecap="round" stroke-linejoin="round"/>
<path fill-rule="evenodd" clip-rule="evenodd" d="M762.406 157.128C761.713 157.998 761.04 158.919 760.388 159.89C754.581 168.631 757.563 180.818 757.563 180.818C757.563 180.818 769.963 178.843 775.766 170.106C776.414 169.125 777.001 168.144 777.528 167.164L762.406 157.128Z" fill="#F5F5F5" stroke="#CED7DA" stroke-linecap="round" stroke-linejoin="round"/>
<path d="M795.952 159.646L795.349 175.286C790.568 182.502 775.572 180.972 761.884 171.87C748.197 162.768 740.967 149.544 745.762 142.329L759.961 135.71" fill="white"/>
<path d="M795.952 159.646L795.349 175.286C790.568 182.502 775.572 180.972 761.884 171.87C748.197 162.768 740.967 149.544 745.762 142.329L759.961 135.71" stroke="#CED7DA" stroke-linecap="round" stroke-linejoin="round"/>
<mask id="path-19-inside-2" fill="white">
<path d="M796.768 160.184L795.172 165.119C793.382 167.811 781.566 166.2 770.508 158.867C759.45 151.535 753.375 141.238 755.162 138.55L760.531 136.145"/>
</mask>
<path d="M796.768 160.184L795.172 165.119C793.382 167.811 781.566 166.2 770.508 158.867C759.45 151.535 753.375 141.238 755.162 138.55L760.531 136.145" fill="black" fill-opacity="0.2"/>
<path d="M795.172 165.119L796.005 165.673L796.081 165.558L796.124 165.427L795.172 165.119ZM755.162 138.55L754.753 137.637L754.489 137.755L754.329 137.996L755.162 138.55ZM795.817 159.876L794.221 164.811L796.124 165.427L797.72 160.492L795.817 159.876ZM794.34 164.565C794.269 164.671 794.093 164.836 793.692 164.991C793.296 165.144 792.748 165.26 792.045 165.312C790.638 165.415 788.748 165.254 786.526 164.775C782.091 163.819 776.488 161.633 771.061 158.034L769.955 159.701C775.586 163.435 781.42 165.72 786.105 166.73C788.443 167.234 790.534 167.428 792.192 167.306C793.02 167.245 793.776 167.103 794.412 166.857C795.043 166.613 795.628 166.24 796.005 165.673L794.34 164.565ZM771.061 158.034C765.634 154.436 761.442 150.116 758.837 146.393C757.533 144.529 756.649 142.847 756.199 141.508C755.973 140.838 755.867 140.288 755.854 139.864C755.841 139.433 755.925 139.208 755.995 139.103L754.329 137.996C753.952 138.563 753.835 139.248 753.855 139.924C753.876 140.606 754.038 141.358 754.303 142.146C754.834 143.723 755.826 145.578 757.199 147.54C759.949 151.471 764.324 155.966 769.955 159.701L771.061 158.034ZM755.571 139.462L760.94 137.057L760.122 135.232L754.753 137.637L755.571 139.462Z" fill="#CED7DA" mask="url(#path-19-inside-2)"/>
<path fill-rule="evenodd" clip-rule="evenodd" d="M807.025 157.46C816.148 144.394 852.823 88.5225 853.927 86.853C863.168 72.9449 883.398 19.0633 869.49 9.81823C855.581 0.573175 814.42 39.2928 805.171 53.1972C803.969 55.0101 766.422 110.734 757.685 124.672" fill="white"/>
<path d="M807.025 157.46C816.148 144.394 852.823 88.5225 853.927 86.853C863.168 72.9449 883.398 19.0633 869.49 9.81823C855.581 0.573176 814.42 39.2928 805.171 53.1972C803.969 55.0101 766.422 110.734 757.685 124.672" stroke="#CED7DA" stroke-linecap="round" stroke-linejoin="round"/>
<path fill-rule="evenodd" clip-rule="evenodd" d="M831.98 94.4252C830.224 97.0681 827.723 99.131 824.795 100.353C821.866 101.575 818.641 101.901 815.527 101.29C812.414 100.679 809.551 99.1586 807.301 96.9208C805.051 94.6829 803.516 91.8283 802.888 88.7177C802.261 85.6071 802.57 82.3804 803.777 79.4455C804.983 76.5106 807.033 73.9993 809.666 72.2292C812.3 70.4591 815.399 69.5097 818.572 69.501C821.746 69.4923 824.85 70.4248 827.493 72.1804C831.038 74.5357 833.501 78.2023 834.343 82.3738C835.184 86.5453 834.334 90.8802 831.98 94.4252Z" fill="white" stroke="#CED7DA" stroke-linecap="round" stroke-linejoin="round"/>
<path fill-rule="evenodd" clip-rule="evenodd" d="M829.108 92.5199C827.729 94.5952 825.765 96.215 823.466 97.1745C821.166 98.1339 818.634 98.39 816.189 97.9103C813.744 97.4305 811.496 96.2366 809.729 94.4793C807.963 92.7221 806.757 90.4805 806.264 88.038C805.772 85.5954 806.014 83.0617 806.962 80.7571C807.909 78.4525 809.518 76.4806 811.586 75.0906C813.654 73.7007 816.088 72.9551 818.58 72.9483C821.071 72.9414 823.509 73.6736 825.585 75.0521C826.963 75.9676 828.148 77.1457 829.071 78.5191C829.994 79.8924 830.637 81.4342 830.965 83.0563C831.292 84.6784 831.296 86.349 830.977 87.9728C830.659 89.5966 830.024 91.1417 829.108 92.5199Z" fill="#F5F5F5" stroke="#CED7DA" stroke-linecap="round" stroke-linejoin="round"/>
<path fill-rule="evenodd" clip-rule="evenodd" d="M808.003 156.216C803.222 163.427 788.233 161.897 774.538 152.799C760.844 143.702 753.625 130.485 758.42 123.273" fill="white"/>
<path d="M808.003 156.216C803.222 163.427 788.233 161.897 774.538 152.799C760.844 143.702 753.625 130.485 758.42 123.273" stroke="#CED7DA" stroke-linecap="round" stroke-linejoin="round"/>
<path d="M833.418 117.963C828.637 125.178 813.648 123.648 799.953 114.55C786.258 105.453 779.04 92.2322 783.831 85.0244" stroke="#CED7DA" stroke-linecap="round" stroke-linejoin="round"/>
<path d="M830.854 121.152C826.074 128.367 811.085 126.837 797.39 117.739C783.695 108.641 776.48 95.4243 781.272 88.2129" stroke="#CED7DA" stroke-linecap="round" stroke-linejoin="round" stroke-dasharray="3.82 6.69"/>
<path d="M865.496 62.9756C861.318 69.264 848.252 67.9328 836.315 59.9969C824.379 52.061 818.079 40.5359 822.257 34.2549" stroke="#CED7DA" stroke-linecap="round" stroke-linejoin="round" stroke-dasharray="3.82 6.69"/>
<path fill-rule="evenodd" clip-rule="evenodd" d="M866.081 60.0738C862.057 66.1268 849.473 64.8544 837.97 57.2017C826.467 49.549 820.407 38.4468 824.43 32.3975" fill="white"/>
<path d="M866.081 60.0738C862.057 66.1268 849.473 64.8544 837.97 57.2017C826.467 49.549 820.407 38.4468 824.43 32.3975" stroke="#CED7DA" stroke-linecap="round" stroke-linejoin="round"/>
<path fill-rule="evenodd" clip-rule="evenodd" d="M757.523 124.565L740.147 113.025L782.905 86.3604L757.523 124.565Z" fill="white" stroke="#CED7DA" stroke-linecap="round" stroke-linejoin="round"/>
<path fill-rule="evenodd" clip-rule="evenodd" d="M807.161 157.546L824.265 168.906L832.252 119.779L807.161 157.546Z" fill="white" stroke="#CED7DA" stroke-linecap="round" stroke-linejoin="round"/>
<path d="M807.854 157.415L831.387 121.997L829.086 136.139C823.44 143.741 818.308 151.722 813.183 159.693C812.994 159.987 812.805 160.281 812.616 160.575L807.854 157.415Z" fill="black" fill-opacity="0.2" stroke="#CED7DA"/>
<path d="M868.361 11.0764L874.984 1.06641" stroke="#CED7DA" stroke-linecap="round" stroke-linejoin="round"/>
<path d="M853.51 86.5834L853.51 86.5837C853.377 86.7843 852.731 87.766 851.682 89.3609C843.994 101.05 814.638 145.681 806.608 157.173L806.602 157.18L806.599 157.186L806.598 157.187L806.598 157.187L806.598 157.187L806.597 157.188L806.593 157.194C806.588 157.201 806.579 157.215 806.566 157.233C806.539 157.269 806.496 157.326 806.434 157.399C806.312 157.544 806.119 157.755 805.843 157.999C805.294 158.486 804.416 159.109 803.125 159.614C800.55 160.622 796.277 161.185 789.597 159.187C789.323 159.105 789.076 159.03 788.855 158.962C789.132 158.928 789.434 158.888 789.757 158.84C792.667 158.399 797.377 157.216 800.168 152.983C801.779 150.545 812.761 133.228 824.298 114.344C835.827 95.4739 847.943 74.9864 851.795 66.2365C857.595 53.0668 862.393 39.2008 865.74 28.6311C867.414 23.3453 868.726 18.8818 869.619 15.7393C870.066 14.168 870.408 12.9268 870.638 12.0781C870.682 11.9188 870.721 11.7732 870.756 11.6419C871.825 12.9126 872.588 14.618 873.073 16.6986C873.644 19.146 873.821 22.0798 873.675 25.3589C873.381 31.9174 871.794 39.7825 869.549 47.7442C865.058 63.6764 857.971 79.8713 853.51 86.5834Z" fill="black" fill-opacity="0.2" stroke="#CED7DA"/>
<path d="M706.885 248.17C708.149 247.949 709.354 247.469 710.424 246.761C711.494 246.053 712.406 245.132 713.103 244.055C714.407 245.154 715.987 245.875 717.671 246.14C719.356 246.404 721.081 246.202 722.659 245.555C724.236 244.908 725.607 243.841 726.62 242.469C727.634 241.098 728.253 239.475 728.409 237.777" fill="white"/>
<path d="M706.885 248.17C708.149 247.949 709.354 247.469 710.424 246.761C711.494 246.053 712.406 245.132 713.103 244.055C714.407 245.154 715.987 245.875 717.671 246.14C719.356 246.404 721.081 246.202 722.659 245.555C724.236 244.908 725.607 243.841 726.62 242.469C727.634 241.098 728.253 239.475 728.409 237.777" stroke="#CED7DA" stroke-linecap="round" stroke-linejoin="round"/>
<path d="M761.682 222.108C763.386 220.846 764.574 219.008 765.024 216.936C765.475 214.864 765.157 212.699 764.131 210.844C764.677 210.527 765.205 210.181 765.713 209.807C769.717 206.846 770.593 201.768 769.581 197.024C769.142 194.963 768.361 192.99 767.268 191.188C763.889 185.646 753.492 177.339 743.585 181.961C740.912 183.204 738.713 186.701 737.562 189.316C733.314 188.478 728.979 190.015 727.103 194.159C726.274 196.008 726.109 198.087 726.636 200.043C724.992 199.754 723.297 200.044 721.842 200.862C720.387 201.681 719.26 202.979 718.653 204.535C718.046 206.091 717.997 207.809 718.514 209.397C719.031 210.984 720.082 212.344 721.488 213.245C721.315 213.245 721.142 213.278 720.973 213.308C719.587 213.552 718.322 214.249 717.376 215.291C716.43 216.332 715.856 217.658 715.746 219.061C715.636 220.464 715.995 221.863 716.767 223.04C717.538 224.216 718.679 225.103 720.009 225.561" fill="white"/>
<path d="M761.682 222.108C763.386 220.846 764.574 219.008 765.024 216.936C765.475 214.864 765.157 212.699 764.131 210.844C764.677 210.527 765.205 210.181 765.713 209.807C769.717 206.846 770.593 201.768 769.581 197.024C769.142 194.963 768.361 192.99 767.268 191.188C763.889 185.646 753.492 177.339 743.585 181.961C740.912 183.204 738.713 186.701 737.562 189.316C733.314 188.478 728.979 190.015 727.103 194.159C726.274 196.008 726.109 198.087 726.636 200.043C724.992 199.754 723.297 200.044 721.842 200.862C720.387 201.681 719.26 202.979 718.653 204.535C718.046 206.091 717.997 207.809 718.514 209.397C719.031 210.984 720.082 212.344 721.488 213.245C721.315 213.245 721.142 213.278 720.973 213.308C719.587 213.552 718.322 214.249 717.376 215.291C716.43 216.332 715.856 217.658 715.746 219.061C715.636 220.464 715.995 221.863 716.767 223.04C717.538 224.216 718.679 225.103 720.009 225.561" stroke="#CED7DA" stroke-linecap="round" stroke-linejoin="round"/>
<path d="M745.211 212.79C745.955 211.745 746.474 210.557 746.737 209.301C747 208.046 747 206.749 746.737 205.494C748.438 205.36 750.07 204.761 751.454 203.764C752.839 202.767 753.924 201.409 754.59 199.838C755.256 198.268 755.479 196.544 755.233 194.855C754.988 193.167 754.284 191.578 753.198 190.262" fill="white"/>
<path d="M745.211 212.79C745.955 211.745 746.474 210.557 746.737 209.301C747 208.046 747 206.749 746.737 205.494C748.438 205.36 750.07 204.761 751.454 203.764C752.839 202.767 753.924 201.409 754.59 199.838C755.256 198.268 755.479 196.544 755.233 194.855C754.988 193.167 754.284 191.578 753.198 190.262" stroke="#CED7DA" stroke-linecap="round" stroke-linejoin="round"/>
<path d="M627.96 362.91V292.09" stroke="#CED7DA" stroke-linecap="round" stroke-linejoin="round"/>
<path d="M636.532 306.7H619.391V346.31H636.532V306.7Z" fill="#F5F5F5" stroke="#CED7DA" stroke-linecap="round" stroke-linejoin="round"/>
<path d="M606.671 409.186V313.694" stroke="#CED7DA" stroke-linecap="round" stroke-linejoin="round"/>
<path d="M615.24 328.305H598.099V346.298H615.24V328.305Z" fill="white" stroke="#CED7DA" stroke-linecap="round" stroke-linejoin="round"/>
<path d="M585.379 338.382V292.079" stroke="#CED7DA" stroke-linecap="round" stroke-linejoin="round"/>
<path d="M593.951 301.633H576.81V327.529H593.951V301.633Z" fill="white" stroke="#CED7DA" stroke-linecap="round" stroke-linejoin="round"/>
<path d="M564.09 337.723V269.065" stroke="#CED7DA" stroke-linecap="round" stroke-linejoin="round"/>
<path d="M572.662 281.51H555.522V321.119H572.662V281.51Z" fill="white" stroke="#CED7DA" stroke-linecap="round" stroke-linejoin="round"/>
<path d="M542.802 327.488V267.929" stroke="#CED7DA" stroke-linecap="round" stroke-linejoin="round"/>
<path d="M551.374 282.164H534.233V310.885H551.374V282.164Z" fill="#F5F5F5" stroke="#CED7DA" stroke-linecap="round" stroke-linejoin="round"/>
<path d="M521.513 342.098V297.021" stroke="#CED7DA" stroke-linecap="round" stroke-linejoin="round"/>
<path d="M530.081 311.632H512.941V325.496H530.081V311.632Z" fill="#F5F5F5" stroke="#CED7DA" stroke-linecap="round" stroke-linejoin="round"/>
<path d="M500.221 346.215V297.879" stroke="#CED7DA" stroke-linecap="round" stroke-linejoin="round"/>
<path d="M508.793 301.037H491.652V329.614H508.793V301.037Z" fill="#F5F5F5" stroke="#CED7DA" stroke-linecap="round" stroke-linejoin="round"/>
<path d="M329.643 293.17V197.679" stroke="#CED7DA" stroke-linecap="round" stroke-linejoin="round"/>
<path d="M338.212 212.289H321.071V230.283H338.212V212.289Z" fill="white" stroke="#CED7DA" stroke-linecap="round" stroke-linejoin="round"/>
<path d="M308.355 237.075V190.776" stroke="#CED7DA" stroke-linecap="round" stroke-linejoin="round"/>
<path d="M316.923 200.327H299.783V226.224H316.923V200.327Z" fill="white" stroke="#CED7DA" stroke-linecap="round" stroke-linejoin="round"/>
<path d="M295.634 172.96H278.494V200.188H295.634V172.96Z" fill="#F5F5F5" stroke="#CED7DA" stroke-linecap="round" stroke-linejoin="round"/>
<path d="M265.774 226.187V181.337" stroke="#CED7DA" stroke-linecap="round" stroke-linejoin="round"/>
<path d="M274.346 195.572H257.205V209.583H274.346V195.572Z" fill="#F5F5F5" stroke="#CED7DA" stroke-linecap="round" stroke-linejoin="round"/>
<path d="M244.485 240.793V184.687" stroke="#CED7DA" stroke-linecap="round" stroke-linejoin="round"/>
<path d="M253.054 199.294H235.913V224.194H253.054V199.294Z" fill="#F5F5F5" stroke="#CED7DA" stroke-linecap="round" stroke-linejoin="round"/>
<path d="M73.9296 342.591V303.647" stroke="#CED7DA" stroke-linecap="round" stroke-linejoin="round"/>
<path d="M82.4979 331.585H65.3575V335.237H82.4979V331.585Z" fill="white" stroke="#CED7DA" stroke-linecap="round" stroke-linejoin="round"/>
<path d="M52.6374 348.185V294.237" stroke="#CED7DA" stroke-linecap="round" stroke-linejoin="round"/>
<path d="M61.2095 317.717H44.069V331.581H61.2095V317.717Z" fill="white" stroke="#CED7DA" stroke-linecap="round" stroke-linejoin="round"/>
<path d="M31.3487 356.342V311.492" stroke="#CED7DA" stroke-linecap="round" stroke-linejoin="round"/>
<path d="M39.9208 325.728H22.7803V339.739H39.9208V325.728Z" fill="#F5F5F5" stroke="#CED7DA" stroke-linecap="round" stroke-linejoin="round"/>
<path d="M10.0602 381.985V325.875" stroke="#CED7DA" stroke-linecap="round" stroke-linejoin="round"/>
<path d="M18.6322 340.484H1.4917V365.384H18.6322V340.484Z" fill="#F5F5F5" stroke="#CED7DA" stroke-linecap="round" stroke-linejoin="round"/>
<path d="M223.196 255.94V207.607" stroke="#CED7DA" stroke-linecap="round" stroke-linejoin="round"/>
<path d="M231.765 210.764H214.624V239.341H231.765V210.764Z" fill="#F5F5F5" stroke="#CED7DA" stroke-linecap="round" stroke-linejoin="round"/>
<path d="M202.011 253.422V207.119" stroke="#CED7DA" stroke-linecap="round" stroke-linejoin="round"/>
<path d="M210.579 216.673H193.439V242.569H210.579V216.673Z" fill="white" stroke="#CED7DA" stroke-linecap="round" stroke-linejoin="round"/>
<path d="M180.719 247.982V194.034" stroke="#CED7DA" stroke-linecap="round" stroke-linejoin="round"/>
<path d="M189.291 217.516H172.15V231.38H189.291V217.516Z" fill="white" stroke="#CED7DA" stroke-linecap="round" stroke-linejoin="round"/>
<path d="M159.43 248.781V203.931" stroke="#CED7DA" stroke-linecap="round" stroke-linejoin="round"/>
<path d="M168.002 218.17H150.861V232.181H168.002V218.17Z" fill="#F5F5F5" stroke="#CED7DA" stroke-linecap="round" stroke-linejoin="round"/>
<path d="M138.141 263.391V207.281" stroke="#CED7DA" stroke-linecap="round" stroke-linejoin="round"/>
<path d="M146.713 221.891H129.573V246.787H146.713V221.891Z" fill="#F5F5F5" stroke="#CED7DA" stroke-linecap="round" stroke-linejoin="round"/>
<path d="M116.853 290.295V241.963" stroke="#CED7DA" stroke-linecap="round" stroke-linejoin="round"/>
<path d="M125.421 245.117H108.281V273.694H125.421V245.117Z" fill="#F5F5F5" stroke="#CED7DA" stroke-linecap="round" stroke-linejoin="round"/>
<path d="M95.3397 347.972V270.217" stroke="#CED7DA" stroke-linecap="round" stroke-linejoin="round"/>
<path d="M103.912 273.372H86.7712V331.369H103.912V273.372Z" fill="#F5F5F5" stroke="#CED7DA" stroke-linecap="round" stroke-linejoin="round"/>
<path d="M478.932 316.92V271.846" stroke="#CED7DA" stroke-linecap="round" stroke-linejoin="round"/>
<path d="M487.504 300.32H470.364V310.889H487.504V300.32Z" fill="white" stroke="#CED7DA" stroke-linecap="round" stroke-linejoin="round"/>
<path d="M457.643 297.65V245.217" stroke="#CED7DA" stroke-linecap="round" stroke-linejoin="round"/>
<path d="M466.212 268.403H449.071V303.39H466.212V268.403Z" fill="white" stroke="#CED7DA" stroke-linecap="round" stroke-linejoin="round"/>
<path d="M436.351 300.853V230.033" stroke="#CED7DA" stroke-linecap="round" stroke-linejoin="round"/>
<path d="M444.923 244.644H427.783V284.253H444.923V244.644Z" fill="#F5F5F5" stroke="#CED7DA" stroke-linecap="round" stroke-linejoin="round"/>
<path d="M415.062 287.879V217.06" stroke="#CED7DA" stroke-linecap="round" stroke-linejoin="round"/>
<path d="M423.635 245.596H406.494V271.279H423.635V245.596Z" fill="white" stroke="#CED7DA" stroke-linecap="round" stroke-linejoin="round"/>
<path d="M393.774 314.135V243.312" stroke="#CED7DA" stroke-linecap="round" stroke-linejoin="round"/>
<path d="M402.346 257.923H385.206V297.532H402.346V257.923Z" fill="#F5F5F5" stroke="#CED7DA" stroke-linecap="round" stroke-linejoin="round"/>
<path d="M372.485 274.398V217.06" stroke="#CED7DA" stroke-linecap="round" stroke-linejoin="round"/>
<path d="M381.054 231.67H363.913V256.57H381.054V231.67Z" fill="white" stroke="#CED7DA" stroke-linecap="round" stroke-linejoin="round"/>
<path d="M351.193 242.624V201.228" stroke="#CED7DA" stroke-linecap="round" stroke-linejoin="round"/>
<path d="M359.765 215.835H342.625V226.021H359.765V215.835Z" fill="white" stroke="#CED7DA" stroke-linecap="round" stroke-linejoin="round"/>
<path d="M649.248 326.504V279.352" stroke="#CED7DA" stroke-linecap="round" stroke-linejoin="round"/>
<path d="M657.821 282.749H640.68V313.764H657.821V282.749Z" fill="#F5F5F5" stroke="#CED7DA" stroke-linecap="round" stroke-linejoin="round"/>
<path d="M670.537 313.58V237.696" stroke="#CED7DA" stroke-linecap="round" stroke-linejoin="round"/>
<path d="M679.109 244.611H661.969V289.95H679.109V244.611Z" fill="#F5F5F5" stroke="#CED7DA" stroke-linecap="round" stroke-linejoin="round"/>
<path d="M708.591 305.55C708.229 305.714 707.876 305.899 707.536 306.105C707.015 305.273 706.281 304.595 705.41 304.142C704.539 303.69 703.563 303.479 702.583 303.531C701.603 303.584 700.655 303.898 699.837 304.441C699.019 304.984 698.362 305.737 697.934 306.62C697.24 305.755 696.254 305.173 695.162 304.984C694.069 304.795 692.945 305.012 692.001 305.594C691.057 306.177 690.359 307.084 690.038 308.145C689.716 309.206 689.794 310.348 690.255 311.356C690.303 311.463 690.351 311.562 690.41 311.669C687.1 313.508 685.53 317.244 686.913 320.267C688.384 323.477 692.48 324.382 696.235 322.664L712.923 315.034C716.685 313.313 717.704 310.286 716.501 307.679C715.299 305.072 712.349 303.832 708.591 305.55Z" fill="white" stroke="#CED7DA" stroke-linecap="round" stroke-linejoin="round"/>
<path d="M670.589 252.911C670.23 253.086 669.883 253.283 669.548 253.499C668.033 251.23 665.444 250.042 662.928 251.293C661.741 251.881 658.843 253.738 660.277 257.228C655.882 257.511 654.592 261.965 656.066 264.951C657.626 268.124 661.759 268.908 665.473 267.084L675.204 262.303C678.914 260.464 679.837 257.408 678.565 254.819C677.292 252.231 674.31 251.076 670.589 252.911Z" fill="white" stroke="#CED7DA" stroke-linecap="round" stroke-linejoin="round"/>
</svg>
