<svg width="1920" height="670" viewBox="0 0 1920 670" fill="none" xmlns="http://www.w3.org/2000/svg">
<path d="M1867.45 277.296C1868.41 277.306 1869.37 277.372 1870.33 277.491C1871.22 270.956 1875.67 265.657 1882.41 265.719C1885.62 265.719 1893.88 266.751 1894.42 275.864C1904.26 271.872 1911.76 280.239 1911.68 288.24C1911.61 296.794 1903.42 302.831 1893.42 302.751C1883.42 302.671 1876.01 302.617 1867.21 302.537C1857.2 302.431 1851.98 296.731 1852.04 289.752C1852.1 282.772 1857.44 277.198 1867.45 277.296Z" fill="#EFEFEF" stroke="#EFEFEF" stroke-width="4" stroke-linecap="round" stroke-linejoin="round"/>
<path d="M45.1748 391.721C44.2116 391.71 43.2499 391.645 42.2941 391.525C41.405 398.06 36.9595 403.359 30.2111 403.297C27.0014 403.297 18.7416 402.266 18.2082 393.152C8.36574 397.144 0.861654 388.778 0.941674 380.776C1.0128 372.223 9.2015 366.186 19.204 366.266C29.2064 366.346 36.6127 366.399 45.4149 366.479C55.4262 366.586 60.6453 372.285 60.5831 379.264C60.5208 386.244 55.1862 391.819 45.1748 391.721Z" fill="#EFEFEF" stroke="#EFEFEF" stroke-width="4" stroke-linecap="round" stroke-linejoin="round"/>
<path d="M1426.34 476.652V455.74" stroke="#EFEFEF" stroke-width="4" stroke-linecap="round" stroke-linejoin="round"/>
<path d="M486.288 192.366V213.277" stroke="#EFEFEF" stroke-width="4" stroke-linecap="round" stroke-linejoin="round"/>
<path d="M1415.88 466.194H1436.79" stroke="#EFEFEF" stroke-width="4" stroke-linecap="round" stroke-linejoin="round"/>
<path d="M496.744 202.822H475.832" stroke="#EFEFEF" stroke-width="4" stroke-linecap="round" stroke-linejoin="round"/>
<path d="M1146.52 558.103C1147.48 558.054 1148.44 558.054 1149.4 558.103C1149.58 555.737 1150.39 553.463 1151.75 551.517C1153.11 549.57 1154.96 548.024 1157.12 547.037C1159.28 546.051 1161.66 545.66 1164.02 545.907C1166.38 546.153 1168.63 547.027 1170.54 548.438C1171.06 545.81 1172.51 543.46 1174.64 541.831C1176.77 540.203 1179.42 539.407 1182.09 539.594C1184.76 539.78 1187.27 540.937 1189.15 542.846C1191.03 544.754 1192.15 547.284 1192.3 549.959C1192.3 550.243 1192.3 550.519 1192.3 550.848C1201.5 551.097 1209 557.312 1209.43 565.34C1209.89 573.867 1202.12 580.402 1192.15 580.935L1147.85 583.318C1137.87 583.852 1132.3 578.499 1131.93 571.546C1131.55 564.593 1136.53 558.645 1146.52 558.103Z" fill="#EFEFEF" stroke="#EFEFEF" stroke-width="4" stroke-linecap="round" stroke-linejoin="round"/>
<path d="M766.109 110.915C765.149 110.964 764.188 110.964 763.228 110.915C763.047 113.281 762.235 115.555 760.877 117.501C759.519 119.447 757.664 120.994 755.506 121.98C753.348 122.967 750.965 123.357 748.604 123.111C746.244 122.864 743.993 121.99 742.085 120.579C741.569 123.208 740.11 125.557 737.983 127.186C735.857 128.815 733.208 129.611 730.536 129.424C727.863 129.237 725.351 128.081 723.472 126.172C721.592 124.263 720.474 121.734 720.329 119.059C720.329 118.774 720.329 118.499 720.329 118.17C711.126 117.921 703.622 111.706 703.196 103.677C702.733 95.1507 710.504 88.6158 720.471 88.0824L764.775 85.6995C774.751 85.166 780.326 90.5185 780.699 97.4713C781.073 104.424 776.094 110.372 766.109 110.915Z" fill="#EFEFEF" stroke="#EFEFEF" stroke-width="4" stroke-linecap="round" stroke-linejoin="round"/>
<path d="M1732.04 227.86C1730.71 226.66 1729.37 225.477 1728.07 224.304" stroke="#EFEFEF" stroke-width="4" stroke-linecap="round" stroke-linejoin="round"/>
<path d="M180.586 441.157C181.91 442.358 183.253 443.54 184.551 444.714" stroke="#EFEFEF" stroke-width="4" stroke-linecap="round" stroke-linejoin="round"/>
<path opacity="0.2" d="M1720.16 217.279C1589.19 102.282 1447.99 31.1445 1311.61 27.6237" stroke="#8FC9AE" stroke-width="4" stroke-linecap="round" stroke-linejoin="round" stroke-dasharray="6.23 6.23"/>
<path opacity="0.2" d="M192.464 451.737C323.43 566.734 464.638 637.872 601.018 641.393" stroke="#8FC9AE" stroke-width="4" stroke-linecap="round" stroke-linejoin="round" stroke-dasharray="6.23 6.23"/>
<path d="M1789.27 221.362C1790.2 221.355 1791.12 221.402 1792.04 221.504C1792.34 219.236 1793.23 217.087 1794.63 215.281C1796.04 213.476 1797.9 212.08 1800.03 211.239C1802.15 210.399 1804.47 210.143 1806.72 210.501C1808.98 210.858 1811.1 211.815 1812.87 213.271C1813.5 210.768 1815.02 208.581 1817.15 207.121C1819.28 205.662 1821.87 205.03 1824.43 205.344C1826.99 205.659 1829.35 206.898 1831.06 208.829C1832.77 210.76 1833.72 213.25 1833.73 215.831C1833.73 216.107 1833.73 216.365 1833.73 216.64C1842.56 217.352 1849.47 223.7 1849.48 231.444C1849.48 239.668 1841.69 245.563 1832.07 245.581L1789.33 245.643C1779.7 245.643 1774.62 240.229 1774.61 233.516C1774.6 226.803 1779.64 221.371 1789.27 221.362Z" fill="#EFEFEF" stroke="#EFEFEF" stroke-width="4" stroke-linecap="round" stroke-linejoin="round"/>
<path d="M123.354 447.656C122.427 447.663 121.501 447.615 120.58 447.514C120.289 449.782 119.395 451.931 117.992 453.736C116.588 455.542 114.726 456.937 112.599 457.778C110.473 458.619 108.159 458.874 105.901 458.517C103.642 458.16 101.52 457.203 99.7569 455.747C99.1272 458.25 97.6049 460.437 95.4763 461.896C93.3477 463.356 90.7592 463.988 88.1974 463.673C85.6356 463.359 83.2769 462.12 81.5645 460.188C79.8522 458.257 78.9041 455.767 78.8984 453.186C78.8984 452.911 78.8984 452.653 78.8984 452.377C70.0607 451.666 63.1523 445.318 63.1434 437.573C63.1434 429.349 70.932 423.454 80.5522 423.437L123.292 423.374C132.921 423.374 138.006 428.789 138.015 435.502C138.024 442.215 132.983 447.647 123.354 447.656Z" fill="#EFEFEF" stroke="#EFEFEF" stroke-width="4" stroke-linecap="round" stroke-linejoin="round"/>
<path opacity="0.2" d="M1191.42 396.381V165.506" stroke="#8FC9AE" stroke-width="4" stroke-linecap="round" stroke-linejoin="round"/>
<path opacity="0.2" d="M721.208 272.636V503.511" stroke="#8FC9AE" stroke-width="4" stroke-linecap="round" stroke-linejoin="round"/>
<path opacity="0.2" d="M1170.7 200.83H1212.14V244.334H1170.7V200.83Z" fill="#8FC9AE" stroke="#8FC9AE" stroke-width="4" stroke-linecap="round" stroke-linejoin="round"/>
<path opacity="0.2" d="M741.924 468.187H700.483V424.683H741.924V468.187Z" fill="#8FC9AE" stroke="#8FC9AE" stroke-width="4" stroke-linecap="round" stroke-linejoin="round"/>
<path opacity="0.2" d="M1242.89 260.758V148.819" stroke="#8FC9AE" stroke-width="4" stroke-linecap="round" stroke-linejoin="round"/>
<path opacity="0.2" d="M669.738 408.261V520.199" stroke="#8FC9AE" stroke-width="4" stroke-linecap="round" stroke-linejoin="round"/>
<path opacity="0.2" d="M1222.17 171.908H1263.61V234.519H1222.17V171.908Z" fill="#8FC9AE" stroke="#8FC9AE" stroke-width="4" stroke-linecap="round" stroke-linejoin="round"/>
<path opacity="0.2" d="M690.454 497.108H649.013V434.497H690.454V497.108Z" fill="#8FC9AE" stroke="#8FC9AE" stroke-width="4" stroke-linecap="round" stroke-linejoin="round"/>
<path d="M1294.37 232.492V2" stroke="#CED7DA" stroke-width="4" stroke-linecap="round" stroke-linejoin="round"/>
<path d="M618.259 436.524V667.016" stroke="#CED7DA" stroke-width="4" stroke-linecap="round" stroke-linejoin="round"/>
<path d="M1273.64 105.743H1315.08V171.573H1273.64V105.743Z" fill="#CED7DA" stroke="#CED7DA" stroke-width="4" stroke-linecap="round" stroke-linejoin="round"/>
<path d="M638.984 563.275H597.543V497.446H638.984V563.275Z" fill="#CED7DA" stroke="#CED7DA" stroke-width="4" stroke-linecap="round" stroke-linejoin="round"/>
<path d="M1345.84 234.431V125.995" stroke="#CED7DA" stroke-width="4" stroke-linecap="round" stroke-linejoin="round"/>
<path d="M566.789 434.586V543.021" stroke="#CED7DA" stroke-width="4" stroke-linecap="round" stroke-linejoin="round"/>
<path d="M1325.11 160.413H1366.55V194.288H1325.11V160.413Z" fill="#CED7DA" stroke="#CED7DA" stroke-width="4" stroke-linecap="round" stroke-linejoin="round"/>
<path d="M587.513 508.604H546.072V474.728H587.513V508.604Z" fill="#CED7DA" stroke="#CED7DA" stroke-width="4" stroke-linecap="round" stroke-linejoin="round"/>
<path d="M1397.31 269.746V134.095" stroke="#CED7DA" stroke-width="4" stroke-linecap="round" stroke-linejoin="round"/>
<path d="M515.318 399.27V534.922" stroke="#CED7DA" stroke-width="4" stroke-linecap="round" stroke-linejoin="round"/>
<path d="M1376.59 169.411H1418.03V229.612H1376.59V169.411Z" fill="#CED7DA" stroke="#CED7DA" stroke-width="4" stroke-linecap="round" stroke-linejoin="round"/>
<path d="M536.034 499.606H494.592V439.404H536.034V499.606Z" fill="#CED7DA" stroke="#CED7DA" stroke-width="4" stroke-linecap="round" stroke-linejoin="round"/>
<path d="M1809.67 515.869V421.712" stroke="#EFEFEF" stroke-width="4" stroke-linecap="round" stroke-linejoin="round"/>
<path d="M102.958 153.147V247.304" stroke="#EFEFEF" stroke-width="4" stroke-linecap="round" stroke-linejoin="round"/>
<path opacity="0.2" d="M1788.95 489.258H1830.39V498.087H1788.95V489.258Z" fill="#8FC9AE" stroke="#8FC9AE" stroke-width="4" stroke-linecap="round" stroke-linejoin="round"/>
<path opacity="0.2" d="M123.674 179.758H82.2324V170.929H123.674V179.758Z" fill="#8FC9AE" stroke="#8FC9AE" stroke-width="4" stroke-linecap="round" stroke-linejoin="round"/>
<path opacity="0.2" d="M1861.15 529.393V398.961" stroke="#8FC9AE" stroke-width="4" stroke-linecap="round" stroke-linejoin="round"/>
<path opacity="0.2" d="M51.4785 139.624V270.057" stroke="#8FC9AE" stroke-width="4" stroke-linecap="round" stroke-linejoin="round"/>
<path opacity="0.2" d="M1840.42 455.728H1881.86V489.248H1840.42V455.728Z" fill="#8FC9AE" stroke="#8FC9AE" stroke-width="4" stroke-linecap="round" stroke-linejoin="round"/>
<path opacity="0.2" d="M72.2037 213.288H30.7623V179.769H72.2037V213.288Z" fill="#8FC9AE" stroke="#8FC9AE" stroke-width="4" stroke-linecap="round" stroke-linejoin="round"/>
<path d="M1912.62 549.114V440.678" stroke="#CED7DA" stroke-width="4" stroke-linecap="round" stroke-linejoin="round"/>
<path d="M0.00830078 119.902V228.338" stroke="#CED7DA" stroke-width="4" stroke-linecap="round" stroke-linejoin="round"/>
<path d="M1891.89 475.095H1933.33V508.97H1891.89V475.095Z" fill="#CED7DA" stroke="#CED7DA" stroke-width="4" stroke-linecap="round" stroke-linejoin="round"/>
<path d="M20.733 193.922H-20.7084V160.047H20.733V193.922Z" fill="#CED7DA" stroke="#CED7DA" stroke-width="4" stroke-linecap="round" stroke-linejoin="round"/>
<path d="M1448.78 306.368V189.512" stroke="#CED7DA" stroke-width="4" stroke-linecap="round" stroke-linejoin="round"/>
<path d="M463.847 362.65V479.505" stroke="#CED7DA" stroke-width="4" stroke-linecap="round" stroke-linejoin="round"/>
<path d="M1428.06 197.141H1469.5V266.234H1428.06V197.141Z" fill="#CED7DA" stroke="#CED7DA" stroke-width="4" stroke-linecap="round" stroke-linejoin="round"/>
<path d="M484.563 471.877H443.121V402.784H484.563V471.877Z" fill="#CED7DA" stroke="#CED7DA" stroke-width="4" stroke-linecap="round" stroke-linejoin="round"/>
<path opacity="0.2" d="M1500 300.279V188.331" stroke="#8FC9AE" stroke-width="4" stroke-linecap="round" stroke-linejoin="round"/>
<path opacity="0.2" d="M412.625 368.738V480.686" stroke="#8FC9AE" stroke-width="4" stroke-linecap="round" stroke-linejoin="round"/>
<path opacity="0.2" d="M1479.28 211.429H1520.72V274.04H1479.28V211.429Z" fill="#8FC9AE" stroke="#8FC9AE" stroke-width="4" stroke-linecap="round" stroke-linejoin="round"/>
<path opacity="0.2" d="M433.341 457.587H391.9V394.976H433.341V457.587Z" fill="#8FC9AE" stroke="#8FC9AE" stroke-width="4" stroke-linecap="round" stroke-linejoin="round"/>
<path opacity="0.2" d="M1551.48 287.127V156.695" stroke="#8FC9AE" stroke-width="4" stroke-linecap="round" stroke-linejoin="round"/>
<path opacity="0.2" d="M361.146 381.891V512.323" stroke="#8FC9AE" stroke-width="4" stroke-linecap="round" stroke-linejoin="round"/>
<path opacity="0.2" d="M1530.75 213.466H1572.19V246.986H1530.75V213.466Z" fill="#8FC9AE" stroke="#8FC9AE" stroke-width="4" stroke-linecap="round" stroke-linejoin="round"/>
<path opacity="0.2" d="M381.872 455.551H340.43V422.032H381.872V455.551Z" fill="#8FC9AE" stroke="#8FC9AE" stroke-width="4" stroke-linecap="round" stroke-linejoin="round"/>
<path d="M1602.95 289.058V180.622" stroke="#CED7DA" stroke-width="4" stroke-linecap="round" stroke-linejoin="round"/>
<path d="M309.675 379.96V488.395" stroke="#CED7DA" stroke-width="4" stroke-linecap="round" stroke-linejoin="round"/>
<path d="M1582.22 215.049H1623.67V248.924H1582.22V215.049Z" fill="#CED7DA" stroke="#CED7DA" stroke-width="4" stroke-linecap="round" stroke-linejoin="round"/>
<path d="M330.4 453.967H288.959V420.092H330.4V453.967Z" fill="#CED7DA" stroke="#CED7DA" stroke-width="4" stroke-linecap="round" stroke-linejoin="round"/>
<path d="M1654.42 324.383V188.723" stroke="#CED7DA" stroke-width="4" stroke-linecap="round" stroke-linejoin="round"/>
<path d="M258.205 344.633V480.294" stroke="#CED7DA" stroke-width="4" stroke-linecap="round" stroke-linejoin="round"/>
<path d="M1633.69 224.045H1675.14V284.238H1633.69V224.045Z" fill="#CED7DA" stroke="#CED7DA" stroke-width="4" stroke-linecap="round" stroke-linejoin="round"/>
<path d="M278.93 444.972H237.489V384.78H278.93V444.972Z" fill="#CED7DA" stroke="#CED7DA" stroke-width="4" stroke-linecap="round" stroke-linejoin="round"/>
<path d="M1705.89 389.43V272.574" stroke="#CED7DA" stroke-width="4" stroke-linecap="round" stroke-linejoin="round"/>
<path d="M206.735 279.587V396.442" stroke="#CED7DA" stroke-width="4" stroke-linecap="round" stroke-linejoin="round"/>
<path d="M1685.17 280.201H1726.61V349.293H1685.17V280.201Z" fill="#CED7DA" stroke="#CED7DA" stroke-width="4" stroke-linecap="round" stroke-linejoin="round"/>
<path d="M227.451 388.817H186.01V319.724H227.451V388.817Z" fill="#CED7DA" stroke="#CED7DA" stroke-width="4" stroke-linecap="round" stroke-linejoin="round"/>
<path d="M1757.9 528.877V340.884" stroke="#CED7DA" stroke-width="4" stroke-linecap="round" stroke-linejoin="round"/>
<path d="M154.722 140.139V328.132" stroke="#CED7DA" stroke-width="4" stroke-linecap="round" stroke-linejoin="round"/>
<path d="M1737.18 348.513H1778.62V488.734H1737.18V348.513Z" fill="#CED7DA" stroke="#CED7DA" stroke-width="4" stroke-linecap="round" stroke-linejoin="round"/>
<path d="M175.447 320.504H134.006V180.283H175.447V320.504Z" fill="#CED7DA" stroke="#CED7DA" stroke-width="4" stroke-linecap="round" stroke-linejoin="round"/>
<path opacity="0.2" d="M984.895 383.589V212.364" stroke="#8FC9AE" stroke-width="4" stroke-linecap="round" stroke-linejoin="round"/>
<path opacity="0.2" d="M927.73 285.429V456.653" stroke="#8FC9AE" stroke-width="4" stroke-linecap="round" stroke-linejoin="round"/>
<path opacity="0.2" d="M964.169 281.357H1005.61V343.453H964.169V281.357Z" fill="#8FC9AE" stroke="#8FC9AE" stroke-width="4" stroke-linecap="round" stroke-linejoin="round"/>
<path opacity="0.2" d="M948.456 387.66H907.014V325.565H948.456V387.66Z" fill="#8FC9AE" stroke="#8FC9AE" stroke-width="4" stroke-linecap="round" stroke-linejoin="round"/>
<path d="M1036.36 447.069V275.835" stroke="#CED7DA" stroke-width="4" stroke-linecap="round" stroke-linejoin="round"/>
<path d="M876.26 221.948V393.181" stroke="#CED7DA" stroke-width="4" stroke-linecap="round" stroke-linejoin="round"/>
<path d="M1015.64 311.161H1057.08V406.927H1015.64V311.161Z" fill="#CED7DA" stroke="#CED7DA" stroke-width="4" stroke-linecap="round" stroke-linejoin="round"/>
<path d="M896.985 357.858H855.544V262.092H896.985V357.858Z" fill="#CED7DA" stroke="#CED7DA" stroke-width="4" stroke-linecap="round" stroke-linejoin="round"/>
<path opacity="0.2" d="M1087.83 350.994V212.364" stroke="#8FC9AE" stroke-width="4" stroke-linecap="round" stroke-linejoin="round"/>
<path opacity="0.2" d="M824.79 318.024V456.653" stroke="#8FC9AE" stroke-width="4" stroke-linecap="round" stroke-linejoin="round"/>
<path opacity="0.2" d="M1067.12 247.689H1108.56V307.89H1067.12V247.689Z" fill="#8FC9AE" stroke="#8FC9AE" stroke-width="4" stroke-linecap="round" stroke-linejoin="round"/>
<path opacity="0.2" d="M845.506 421.328H804.064V361.126H845.506V421.328Z" fill="#8FC9AE" stroke="#8FC9AE" stroke-width="4" stroke-linecap="round" stroke-linejoin="round"/>
<path opacity="0.2" d="M1139.32 274.173V174.086" stroke="#8FC9AE" stroke-width="4" stroke-linecap="round" stroke-linejoin="round"/>
<path opacity="0.2" d="M773.31 394.843V494.93" stroke="#8FC9AE" stroke-width="4" stroke-linecap="round" stroke-linejoin="round"/>
<path opacity="0.2" d="M1118.59 209.403H1160.03V234.032H1118.59V209.403Z" fill="#8FC9AE" stroke="#8FC9AE" stroke-width="4" stroke-linecap="round" stroke-linejoin="round"/>
<path opacity="0.2" d="M794.035 459.614H752.594V434.986H794.035V459.614Z" fill="#8FC9AE" stroke="#8FC9AE" stroke-width="4" stroke-linecap="round" stroke-linejoin="round"/>
</svg>
