<svg width="1920" height="671" viewBox="0 0 1920 671" fill="none" xmlns="http://www.w3.org/2000/svg">
<path d="M45.1747 278.28C44.2115 278.291 43.2498 278.356 42.294 278.475C41.4049 271.941 36.9593 266.641 30.211 266.704C27.0013 266.704 18.7415 267.735 18.208 276.848C8.36562 272.856 0.861532 281.223 0.941552 289.225C1.01268 297.778 9.20137 303.815 19.2038 303.735C29.2063 303.655 36.6126 303.602 45.4148 303.522C55.4261 303.415 60.6452 297.716 60.5829 290.736C60.5207 283.757 55.186 278.182 45.1747 278.28Z" fill="#EFEFEF" stroke="#EFEFEF" stroke-width="4" stroke-linecap="round" stroke-linejoin="round"/>
<path d="M1867.45 392.705C1868.41 392.695 1869.37 392.629 1870.33 392.51C1871.22 399.045 1875.67 404.344 1882.41 404.282C1885.62 404.282 1893.88 403.25 1894.42 394.137C1904.26 398.129 1911.76 389.763 1911.68 381.761C1911.61 373.207 1903.42 367.17 1893.42 367.25C1883.42 367.33 1876.01 367.384 1867.21 367.464C1857.2 367.57 1851.98 373.27 1852.04 380.249C1852.1 387.229 1857.44 392.803 1867.45 392.705Z" fill="#EFEFEF" stroke="#EFEFEF" stroke-width="4" stroke-linecap="round" stroke-linejoin="round"/>
<path d="M486.288 477.636V456.725" stroke="#EFEFEF" stroke-width="4" stroke-linecap="round" stroke-linejoin="round"/>
<path d="M496.744 467.178H475.832" stroke="#EFEFEF" stroke-width="4" stroke-linecap="round" stroke-linejoin="round"/>
<path d="M766.109 559.087C765.149 559.038 764.188 559.038 763.228 559.087C763.047 556.721 762.235 554.447 760.877 552.501C759.519 550.555 757.664 549.008 755.506 548.022C753.348 547.035 750.964 546.645 748.604 546.891C746.244 547.138 743.993 548.012 742.085 549.423C741.569 546.794 740.11 544.445 737.983 542.816C735.856 541.187 733.208 540.391 730.536 540.578C727.863 540.765 725.351 541.921 723.471 543.83C721.592 545.739 720.474 548.268 720.328 550.943C720.328 551.228 720.328 551.503 720.328 551.832C711.126 552.081 703.622 558.296 703.195 566.325C702.733 574.851 710.504 581.386 720.471 581.92L764.775 584.302C774.751 584.836 780.326 579.483 780.699 572.531C781.072 565.578 776.093 559.63 766.109 559.087Z" fill="#EFEFEF" stroke="#EFEFEF" stroke-width="4" stroke-linecap="round" stroke-linejoin="round"/>
<path d="M180.586 228.845C181.91 227.644 183.253 226.462 184.551 225.288" stroke="#EFEFEF" stroke-width="4" stroke-linecap="round" stroke-linejoin="round"/>
<path d="M1732.04 442.142C1730.71 443.342 1729.37 444.525 1728.07 445.698" stroke="#EFEFEF" stroke-width="4" stroke-linecap="round" stroke-linejoin="round"/>
<path d="M192.464 218.264C323.43 103.266 464.638 32.1288 601.018 28.6079" stroke="#7E8F94" stroke-width="4" stroke-linecap="round" stroke-linejoin="round" stroke-dasharray="6.23 6.23"/>
<path d="M1720.16 452.721C1589.19 567.719 1447.99 638.856 1311.61 642.377" stroke="#7E8F94" stroke-width="4" stroke-linecap="round" stroke-linejoin="round" stroke-dasharray="6.23 6.23"/>
<path d="M123.354 222.346C122.427 222.339 121.501 222.386 120.58 222.488C120.289 220.22 119.395 218.071 117.992 216.266C116.588 214.46 114.726 213.064 112.599 212.224C110.473 211.383 108.159 211.128 105.901 211.485C103.642 211.842 101.52 212.799 99.7569 214.255C99.1271 211.752 97.6049 209.565 95.4762 208.106C93.3476 206.646 90.7591 206.014 88.1974 206.328C85.6356 206.643 83.2768 207.882 81.5645 209.813C79.8521 211.745 78.904 214.235 78.8984 216.816C78.8984 217.091 78.8984 217.349 78.8984 217.625C70.0606 218.336 63.1523 224.684 63.1434 232.428C63.1434 240.653 70.932 246.547 80.5521 246.565L123.292 246.627C132.921 246.627 138.006 241.213 138.015 234.5C138.024 227.787 132.983 222.355 123.354 222.346Z" fill="#EFEFEF" stroke="#EFEFEF" stroke-width="4" stroke-linecap="round" stroke-linejoin="round"/>
<path d="M1789.27 448.64C1790.2 448.647 1791.12 448.6 1792.04 448.498C1792.34 450.766 1793.23 452.915 1794.63 454.721C1796.04 456.526 1797.9 457.922 1800.03 458.763C1802.15 459.604 1804.47 459.859 1806.72 459.501C1808.98 459.144 1811.1 458.187 1812.87 456.731C1813.5 459.234 1815.02 461.421 1817.15 462.881C1819.28 464.34 1821.87 464.972 1824.43 464.658C1826.99 464.343 1829.35 463.104 1831.06 461.173C1832.77 459.242 1833.72 456.752 1833.73 454.171C1833.73 453.895 1833.73 453.637 1833.73 453.362C1842.56 452.65 1849.47 446.302 1849.48 438.558C1849.48 430.334 1841.69 424.439 1832.07 424.421L1789.33 424.359C1779.7 424.359 1774.62 429.774 1774.61 436.486C1774.6 443.199 1779.64 448.631 1789.27 448.64Z" fill="#EFEFEF" stroke="#EFEFEF" stroke-width="4" stroke-linecap="round" stroke-linejoin="round"/>
<path d="M721.207 397.365V166.49" stroke="#7E8F94" stroke-width="4" stroke-linecap="round" stroke-linejoin="round"/>
<path d="M1191.42 273.62V504.495" stroke="#7E8F94" stroke-width="4" stroke-linecap="round" stroke-linejoin="round"/>
<path d="M741.924 201.814H700.483V245.319H741.924V201.814Z" fill="#7E8F94" stroke="#7E8F94" stroke-width="4" stroke-linecap="round" stroke-linejoin="round"/>
<path d="M1170.7 469.171H1212.14V425.667H1170.7V469.171Z" fill="#7E8F94" stroke="#7E8F94" stroke-width="4" stroke-linecap="round" stroke-linejoin="round"/>
<path d="M669.738 261.742V149.804" stroke="#7E8F94" stroke-width="4" stroke-linecap="round" stroke-linejoin="round"/>
<path d="M1242.89 409.245V521.184" stroke="#7E8F94" stroke-width="4" stroke-linecap="round" stroke-linejoin="round"/>
<path d="M690.454 172.893H649.013V235.504H690.454V172.893Z" fill="#7E8F94" stroke="#7E8F94" stroke-width="4" stroke-linecap="round" stroke-linejoin="round"/>
<path d="M1222.17 498.093H1263.61V435.482H1222.17V498.093Z" fill="#7E8F94" stroke="#7E8F94" stroke-width="4" stroke-linecap="round" stroke-linejoin="round"/>
<path d="M618.258 233.477V2.98438" stroke="#8FC9AE" stroke-width="4" stroke-linecap="round" stroke-linejoin="round"/>
<path d="M1294.37 437.509V668.001" stroke="#8FC9AE" stroke-width="4" stroke-linecap="round" stroke-linejoin="round"/>
<path d="M638.984 106.728H597.543V172.557H638.984V106.728Z" fill="#8FC9AE" stroke="#8FC9AE" stroke-width="4" stroke-linecap="round" stroke-linejoin="round"/>
<path d="M1273.64 564.26H1315.08V498.43H1273.64V564.26Z" fill="#8FC9AE" stroke="#8FC9AE" stroke-width="4" stroke-linecap="round" stroke-linejoin="round"/>
<path d="M566.788 235.415V126.979" stroke="#8FC9AE" stroke-width="4" stroke-linecap="round" stroke-linejoin="round"/>
<path d="M1345.84 435.57V544.006" stroke="#8FC9AE" stroke-width="4" stroke-linecap="round" stroke-linejoin="round"/>
<path d="M587.513 161.397H546.072V195.273H587.513V161.397Z" fill="#8FC9AE" stroke="#8FC9AE" stroke-width="4" stroke-linecap="round" stroke-linejoin="round"/>
<path d="M1325.11 509.588H1366.55V475.713H1325.11V509.588Z" fill="#8FC9AE" stroke="#8FC9AE" stroke-width="4" stroke-linecap="round" stroke-linejoin="round"/>
<path d="M515.318 270.73V135.079" stroke="#8FC9AE" stroke-width="4" stroke-linecap="round" stroke-linejoin="round"/>
<path d="M1397.31 400.255V535.906" stroke="#8FC9AE" stroke-width="4" stroke-linecap="round" stroke-linejoin="round"/>
<path d="M536.034 170.396H494.592V230.597H536.034V170.396Z" fill="#8FC9AE" stroke="#8FC9AE" stroke-width="4" stroke-linecap="round" stroke-linejoin="round"/>
<path d="M1376.59 500.59H1418.03V440.388H1376.59V500.59Z" fill="#8FC9AE" stroke="#8FC9AE" stroke-width="4" stroke-linecap="round" stroke-linejoin="round"/>
<path d="M102.958 516.853V422.697" stroke="#EFEFEF" stroke-width="4" stroke-linecap="round" stroke-linejoin="round"/>
<path d="M1809.67 154.132V248.289" stroke="#EFEFEF" stroke-width="4" stroke-linecap="round" stroke-linejoin="round"/>
<path d="M123.674 490.243H82.2324V499.072H123.674V490.243Z" fill="#7E8F94" stroke="#7E8F94" stroke-width="4" stroke-linecap="round" stroke-linejoin="round"/>
<path d="M1788.95 180.742H1830.39V171.913H1788.95V180.742Z" fill="#7E8F94" stroke="#7E8F94" stroke-width="4" stroke-linecap="round" stroke-linejoin="round"/>
<path d="M51.4787 530.377V399.945" stroke="#7E8F94" stroke-width="4" stroke-linecap="round" stroke-linejoin="round"/>
<path d="M1861.15 140.609V271.041" stroke="#7E8F94" stroke-width="4" stroke-linecap="round" stroke-linejoin="round"/>
<path d="M72.2037 456.713H30.7624V490.232H72.2037V456.713Z" fill="#7E8F94" stroke="#7E8F94" stroke-width="4" stroke-linecap="round" stroke-linejoin="round"/>
<path d="M1840.42 214.272H1881.86V180.753H1840.42V214.272Z" fill="#7E8F94" stroke="#7E8F94" stroke-width="4" stroke-linecap="round" stroke-linejoin="round"/>
<path d="M0.00817871 550.098V441.663" stroke="#8FC9AE" stroke-width="4" stroke-linecap="round" stroke-linejoin="round"/>
<path d="M1912.62 120.887V229.323" stroke="#8FC9AE" stroke-width="4" stroke-linecap="round" stroke-linejoin="round"/>
<path d="M20.7329 476.079H-20.7084V509.954H20.7329V476.079Z" fill="#8FC9AE" stroke="#8FC9AE" stroke-width="4" stroke-linecap="round" stroke-linejoin="round"/>
<path d="M1891.89 194.906H1933.33V161.031H1891.89V194.906Z" fill="#8FC9AE" stroke="#8FC9AE" stroke-width="4" stroke-linecap="round" stroke-linejoin="round"/>
<path d="M463.847 307.352V190.497" stroke="#8FC9AE" stroke-width="4" stroke-linecap="round" stroke-linejoin="round"/>
<path d="M1448.78 363.634V480.49" stroke="#8FC9AE" stroke-width="4" stroke-linecap="round" stroke-linejoin="round"/>
<path d="M484.563 198.125H443.121V267.218H484.563V198.125Z" fill="#8FC9AE" stroke="#8FC9AE" stroke-width="4" stroke-linecap="round" stroke-linejoin="round"/>
<path d="M1428.06 472.861H1469.5V403.768H1428.06V472.861Z" fill="#8FC9AE" stroke="#8FC9AE" stroke-width="4" stroke-linecap="round" stroke-linejoin="round"/>
<path d="M412.625 301.263V189.315" stroke="#7E8F94" stroke-width="4" stroke-linecap="round" stroke-linejoin="round"/>
<path d="M1500 369.722V481.67" stroke="#7E8F94" stroke-width="4" stroke-linecap="round" stroke-linejoin="round"/>
<path d="M433.341 212.414H391.9V275.025H433.341V212.414Z" fill="#7E8F94" stroke="#7E8F94" stroke-width="4" stroke-linecap="round" stroke-linejoin="round"/>
<path d="M1479.28 458.571H1520.72V395.96H1479.28V458.571Z" fill="#7E8F94" stroke="#7E8F94" stroke-width="4" stroke-linecap="round" stroke-linejoin="round"/>
<path d="M361.146 288.111V157.679" stroke="#7E8F94" stroke-width="4" stroke-linecap="round" stroke-linejoin="round"/>
<path d="M1551.48 382.875V513.307" stroke="#7E8F94" stroke-width="4" stroke-linecap="round" stroke-linejoin="round"/>
<path d="M381.871 214.451H340.43V247.97H381.871V214.451Z" fill="#7E8F94" stroke="#7E8F94" stroke-width="4" stroke-linecap="round" stroke-linejoin="round"/>
<path d="M1530.75 456.536H1572.19V423.016H1530.75V456.536Z" fill="#7E8F94" stroke="#7E8F94" stroke-width="4" stroke-linecap="round" stroke-linejoin="round"/>
<path d="M309.676 290.042V181.606" stroke="#8FC9AE" stroke-width="4" stroke-linecap="round" stroke-linejoin="round"/>
<path d="M1602.95 380.944V489.38" stroke="#8FC9AE" stroke-width="4" stroke-linecap="round" stroke-linejoin="round"/>
<path d="M330.4 216.034H288.959V249.909H330.4V216.034Z" fill="#8FC9AE" stroke="#8FC9AE" stroke-width="4" stroke-linecap="round" stroke-linejoin="round"/>
<path d="M1582.22 454.951H1623.67V421.076H1582.22V454.951Z" fill="#8FC9AE" stroke="#8FC9AE" stroke-width="4" stroke-linecap="round" stroke-linejoin="round"/>
<path d="M258.206 325.368V189.708" stroke="#8FC9AE" stroke-width="4" stroke-linecap="round" stroke-linejoin="round"/>
<path d="M1654.42 345.618V481.278" stroke="#8FC9AE" stroke-width="4" stroke-linecap="round" stroke-linejoin="round"/>
<path d="M278.93 225.03H237.489V285.222H278.93V225.03Z" fill="#8FC9AE" stroke="#8FC9AE" stroke-width="4" stroke-linecap="round" stroke-linejoin="round"/>
<path d="M1633.69 445.957H1675.14V385.764H1633.69V445.957Z" fill="#8FC9AE" stroke="#8FC9AE" stroke-width="4" stroke-linecap="round" stroke-linejoin="round"/>
<path d="M206.735 390.414V273.559" stroke="#8FC9AE" stroke-width="4" stroke-linecap="round" stroke-linejoin="round"/>
<path d="M1705.89 280.571V397.427" stroke="#8FC9AE" stroke-width="4" stroke-linecap="round" stroke-linejoin="round"/>
<path d="M227.451 281.185H186.01V350.278H227.451V281.185Z" fill="#8FC9AE" stroke="#8FC9AE" stroke-width="4" stroke-linecap="round" stroke-linejoin="round"/>
<path d="M1685.17 389.801H1726.61V320.709H1685.17V389.801Z" fill="#8FC9AE" stroke="#8FC9AE" stroke-width="4" stroke-linecap="round" stroke-linejoin="round"/>
<path d="M154.722 529.861V341.868" stroke="#8FC9AE" stroke-width="4" stroke-linecap="round" stroke-linejoin="round"/>
<path d="M1757.9 141.124V329.117" stroke="#8FC9AE" stroke-width="4" stroke-linecap="round" stroke-linejoin="round"/>
<path d="M175.447 349.497H134.006V489.718H175.447V349.497Z" fill="#8FC9AE" stroke="#8FC9AE" stroke-width="4" stroke-linecap="round" stroke-linejoin="round"/>
<path d="M1737.18 321.488H1778.62V181.267H1737.18V321.488Z" fill="#8FC9AE" stroke="#8FC9AE" stroke-width="4" stroke-linecap="round" stroke-linejoin="round"/>
<path d="M927.729 384.573V213.349" stroke="#7E8F94" stroke-width="4" stroke-linecap="round" stroke-linejoin="round"/>
<path d="M984.895 286.413V457.638" stroke="#7E8F94" stroke-width="4" stroke-linecap="round" stroke-linejoin="round"/>
<path d="M948.456 282.342H907.014V344.437H948.456V282.342Z" fill="#7E8F94" stroke="#7E8F94" stroke-width="4" stroke-linecap="round" stroke-linejoin="round"/>
<path d="M964.169 388.645H1005.61V326.549H964.169V388.645Z" fill="#7E8F94" stroke="#7E8F94" stroke-width="4" stroke-linecap="round" stroke-linejoin="round"/>
<path d="M876.26 448.053V276.819" stroke="#8FC9AE" stroke-width="4" stroke-linecap="round" stroke-linejoin="round"/>
<path d="M1036.36 222.932V394.166" stroke="#8FC9AE" stroke-width="4" stroke-linecap="round" stroke-linejoin="round"/>
<path d="M896.985 312.145H855.543V407.911H896.985V312.145Z" fill="#8FC9AE" stroke="#8FC9AE" stroke-width="4" stroke-linecap="round" stroke-linejoin="round"/>
<path d="M1015.64 358.842H1057.08V263.076H1015.64V358.842Z" fill="#8FC9AE" stroke="#8FC9AE" stroke-width="4" stroke-linecap="round" stroke-linejoin="round"/>
<path d="M824.79 351.978V213.349" stroke="#7E8F94" stroke-width="4" stroke-linecap="round" stroke-linejoin="round"/>
<path d="M1087.83 319.008V457.638" stroke="#7E8F94" stroke-width="4" stroke-linecap="round" stroke-linejoin="round"/>
<path d="M845.506 248.673H804.064V308.874H845.506V248.673Z" fill="#7E8F94" stroke="#7E8F94" stroke-width="4" stroke-linecap="round" stroke-linejoin="round"/>
<path d="M1067.12 422.312H1108.56V362.111H1067.12V422.312Z" fill="#7E8F94" stroke="#7E8F94" stroke-width="4" stroke-linecap="round" stroke-linejoin="round"/>
<path d="M773.309 275.157V175.07" stroke="#7E8F94" stroke-width="4" stroke-linecap="round" stroke-linejoin="round"/>
<path d="M1139.31 395.828V495.915" stroke="#7E8F94" stroke-width="4" stroke-linecap="round" stroke-linejoin="round"/>
<path d="M794.035 210.388H752.593V235.016H794.035V210.388Z" fill="#7E8F94" stroke="#7E8F94" stroke-width="4" stroke-linecap="round" stroke-linejoin="round"/>
<path d="M1118.59 460.599H1160.03V435.97H1118.59V460.599Z" fill="#7E8F94" stroke="#7E8F94" stroke-width="4" stroke-linecap="round" stroke-linejoin="round"/>
</svg>
