<svg width="1920" height="670" viewBox="0 0 1920 670" fill="none" xmlns="http://www.w3.org/2000/svg">
<path d="M45.1747 277.403C44.2115 277.414 43.2498 277.479 42.294 277.598C41.4049 271.064 36.9593 265.764 30.211 265.827C27.0013 265.827 18.7415 266.858 18.208 275.971C8.36562 271.979 0.861532 280.346 0.941552 288.348C1.01268 296.901 9.20137 302.938 19.2038 302.858C29.2063 302.778 36.6126 302.725 45.4148 302.645C55.4261 302.538 60.6452 296.839 60.5829 289.859C60.5207 282.88 55.186 277.305 45.1747 277.403Z" fill="#EFEFEF" stroke="#EFEFEF" stroke-width="4" stroke-linecap="round" stroke-linejoin="round"/>
<path d="M1867.45 391.829C1868.41 391.818 1869.37 391.752 1870.33 391.633C1871.22 398.168 1875.67 403.467 1882.41 403.405C1885.62 403.405 1893.88 402.373 1894.42 393.26C1904.26 397.252 1911.76 388.886 1911.68 380.884C1911.61 372.33 1903.42 366.293 1893.42 366.373C1883.42 366.453 1876.01 366.507 1867.21 366.587C1857.2 366.693 1851.98 372.393 1852.04 379.372C1852.1 386.352 1857.44 391.926 1867.45 391.829Z" fill="#EFEFEF" stroke="#EFEFEF" stroke-width="4" stroke-linecap="round" stroke-linejoin="round"/>
<path d="M486.288 476.759V455.848" stroke="#EFEFEF" stroke-width="4" stroke-linecap="round" stroke-linejoin="round"/>
<path d="M1426.34 192.473V213.385" stroke="#EFEFEF" stroke-width="4" stroke-linecap="round" stroke-linejoin="round"/>
<path d="M496.744 466.302H475.832" stroke="#EFEFEF" stroke-width="4" stroke-linecap="round" stroke-linejoin="round"/>
<path d="M1415.88 202.93H1436.79" stroke="#EFEFEF" stroke-width="4" stroke-linecap="round" stroke-linejoin="round"/>
<path d="M766.109 558.21C765.149 558.161 764.188 558.161 763.228 558.21C763.047 555.844 762.235 553.569 760.877 551.623C759.519 549.677 757.664 548.131 755.506 547.144C753.348 546.158 750.964 545.767 748.604 546.014C746.244 546.26 743.993 547.134 742.085 548.545C741.569 545.917 740.11 543.567 737.983 541.938C735.856 540.31 733.208 539.514 730.536 539.701C727.863 539.887 725.351 541.044 723.471 542.952C721.592 544.861 720.474 547.391 720.328 550.066C720.328 550.35 720.328 550.626 720.328 550.955C711.126 551.204 703.622 557.419 703.195 565.447C702.733 573.974 710.504 580.509 720.471 581.042L764.775 583.425C774.751 583.958 780.326 578.606 780.699 571.653C781.072 564.7 776.093 558.752 766.109 558.21Z" fill="#EFEFEF" stroke="#EFEFEF" stroke-width="4" stroke-linecap="round" stroke-linejoin="round"/>
<path d="M1146.52 111.022C1147.48 111.07 1148.44 111.07 1149.4 111.022C1149.58 113.388 1150.39 115.662 1151.75 117.608C1153.11 119.554 1154.96 121.101 1157.12 122.087C1159.28 123.074 1161.66 123.464 1164.02 123.218C1166.38 122.971 1168.63 122.097 1170.54 120.686C1171.06 123.315 1172.51 125.664 1174.64 127.293C1176.77 128.922 1179.42 129.718 1182.09 129.531C1184.76 129.344 1187.27 128.188 1189.15 126.279C1191.03 124.37 1192.15 121.841 1192.3 119.166C1192.3 118.881 1192.3 118.606 1192.3 118.277C1201.5 118.028 1209 111.813 1209.43 103.784C1209.89 95.2576 1202.12 88.7228 1192.15 88.1893L1147.85 85.8064C1137.87 85.273 1132.3 90.6254 1131.93 97.5782C1131.55 104.531 1136.53 110.479 1146.52 111.022Z" fill="#EFEFEF" stroke="#EFEFEF" stroke-width="4" stroke-linecap="round" stroke-linejoin="round"/>
<path d="M180.586 227.968C181.91 226.767 183.253 225.585 184.551 224.411" stroke="#EFEFEF" stroke-width="4" stroke-linecap="round" stroke-linejoin="round"/>
<path d="M1732.04 441.265C1730.71 442.465 1729.37 443.648 1728.07 444.821" stroke="#EFEFEF" stroke-width="4" stroke-linecap="round" stroke-linejoin="round"/>
<path d="M192.464 217.387C323.43 102.39 464.638 31.2523 601.018 27.7314" stroke="#7E8F94" stroke-width="4" stroke-linecap="round" stroke-linejoin="round" stroke-dasharray="6.23 6.23"/>
<path d="M1720.16 451.844C1589.19 566.842 1447.99 637.979 1311.61 641.5" stroke="#7E8F94" stroke-width="4" stroke-linecap="round" stroke-linejoin="round" stroke-dasharray="6.23 6.23"/>
<path d="M123.354 221.469C122.427 221.463 121.501 221.51 120.58 221.612C120.289 219.343 119.395 217.195 117.992 215.389C116.588 213.584 114.726 212.188 112.599 211.347C110.473 210.506 108.159 210.251 105.901 210.609C103.642 210.966 101.52 211.922 99.7569 213.379C99.1271 210.876 97.6049 208.689 95.4762 207.229C93.3476 205.769 90.7591 205.137 88.1974 205.452C85.6356 205.766 83.2768 207.006 81.5645 208.937C79.8521 210.868 78.904 213.358 78.8984 215.939C78.8984 216.215 78.8984 216.473 78.8984 216.748C70.0606 217.46 63.1523 223.808 63.1434 231.552C63.1434 239.776 70.932 245.671 80.5521 245.689L123.292 245.751C132.921 245.751 138.006 240.336 138.015 233.624C138.024 226.911 132.983 221.478 123.354 221.469Z" fill="#EFEFEF" stroke="#EFEFEF" stroke-width="4" stroke-linecap="round" stroke-linejoin="round"/>
<path d="M1789.27 447.763C1790.2 447.77 1791.12 447.722 1792.04 447.621C1792.34 449.889 1793.23 452.038 1794.63 453.843C1796.04 455.649 1797.9 457.044 1800.03 457.885C1802.15 458.726 1804.47 458.981 1806.72 458.624C1808.98 458.267 1811.1 457.31 1812.87 455.854C1813.5 458.357 1815.02 460.544 1817.15 462.003C1819.28 463.463 1821.87 464.095 1824.43 463.78C1826.99 463.466 1829.35 462.227 1831.06 460.295C1832.77 458.364 1833.72 455.874 1833.73 453.293C1833.73 453.018 1833.73 452.76 1833.73 452.484C1842.56 451.773 1849.47 445.425 1849.48 437.68C1849.48 429.456 1841.69 423.561 1832.07 423.544L1789.33 423.481C1779.7 423.481 1774.62 428.896 1774.61 435.609C1774.6 442.322 1779.64 447.754 1789.27 447.763Z" fill="#EFEFEF" stroke="#EFEFEF" stroke-width="4" stroke-linecap="round" stroke-linejoin="round"/>
<path d="M721.207 396.488V165.613" stroke="#7E8F94" stroke-width="4" stroke-linecap="round" stroke-linejoin="round"/>
<path d="M1191.42 272.743V503.618" stroke="#7E8F94" stroke-width="4" stroke-linecap="round" stroke-linejoin="round"/>
<path d="M741.924 200.938H700.483V244.442H741.924V200.938Z" fill="#7E8F94" stroke="#7E8F94" stroke-width="4" stroke-linecap="round" stroke-linejoin="round"/>
<path d="M1170.7 468.295H1212.14V424.791H1170.7V468.295Z" fill="#7E8F94" stroke="#7E8F94" stroke-width="4" stroke-linecap="round" stroke-linejoin="round"/>
<path d="M669.738 260.865V148.927" stroke="#7E8F94" stroke-width="4" stroke-linecap="round" stroke-linejoin="round"/>
<path d="M1242.89 408.368V520.307" stroke="#7E8F94" stroke-width="4" stroke-linecap="round" stroke-linejoin="round"/>
<path d="M690.454 172.016H649.013V234.627H690.454V172.016Z" fill="#7E8F94" stroke="#7E8F94" stroke-width="4" stroke-linecap="round" stroke-linejoin="round"/>
<path d="M1222.17 497.216H1263.61V434.605H1222.17V497.216Z" fill="#7E8F94" stroke="#7E8F94" stroke-width="4" stroke-linecap="round" stroke-linejoin="round"/>
<path d="M618.258 232.6V2.10742" stroke="#8FC9AE" stroke-width="4" stroke-linecap="round" stroke-linejoin="round"/>
<path d="M1294.37 436.632V667.124" stroke="#8FC9AE" stroke-width="4" stroke-linecap="round" stroke-linejoin="round"/>
<path d="M638.984 105.851H597.543V171.68H638.984V105.851Z" fill="#8FC9AE" stroke="#8FC9AE" stroke-width="4" stroke-linecap="round" stroke-linejoin="round"/>
<path d="M1273.64 563.383H1315.08V497.553H1273.64V563.383Z" fill="#8FC9AE" stroke="#8FC9AE" stroke-width="4" stroke-linecap="round" stroke-linejoin="round"/>
<path d="M566.788 234.538V126.103" stroke="#8FC9AE" stroke-width="4" stroke-linecap="round" stroke-linejoin="round"/>
<path d="M1345.84 434.693V543.129" stroke="#8FC9AE" stroke-width="4" stroke-linecap="round" stroke-linejoin="round"/>
<path d="M587.513 160.521H546.072V194.396H587.513V160.521Z" fill="#8FC9AE" stroke="#8FC9AE" stroke-width="4" stroke-linecap="round" stroke-linejoin="round"/>
<path d="M1325.11 508.711H1366.55V474.836H1325.11V508.711Z" fill="#8FC9AE" stroke="#8FC9AE" stroke-width="4" stroke-linecap="round" stroke-linejoin="round"/>
<path d="M515.318 269.853V134.202" stroke="#8FC9AE" stroke-width="4" stroke-linecap="round" stroke-linejoin="round"/>
<path d="M1397.31 399.378V535.029" stroke="#8FC9AE" stroke-width="4" stroke-linecap="round" stroke-linejoin="round"/>
<path d="M536.034 169.519H494.592V229.72H536.034V169.519Z" fill="#8FC9AE" stroke="#8FC9AE" stroke-width="4" stroke-linecap="round" stroke-linejoin="round"/>
<path d="M1376.59 499.713H1418.03V439.511H1376.59V499.713Z" fill="#8FC9AE" stroke="#8FC9AE" stroke-width="4" stroke-linecap="round" stroke-linejoin="round"/>
<path d="M102.958 515.976V421.819" stroke="#EFEFEF" stroke-width="4" stroke-linecap="round" stroke-linejoin="round"/>
<path d="M1809.67 153.255V247.411" stroke="#EFEFEF" stroke-width="4" stroke-linecap="round" stroke-linejoin="round"/>
<path d="M123.674 489.366H82.2324V498.195H123.674V489.366Z" fill="#7E8F94" stroke="#7E8F94" stroke-width="4" stroke-linecap="round" stroke-linejoin="round"/>
<path d="M1788.95 179.865H1830.39V171.036H1788.95V179.865Z" fill="#7E8F94" stroke="#7E8F94" stroke-width="4" stroke-linecap="round" stroke-linejoin="round"/>
<path d="M51.4787 529.5V399.068" stroke="#7E8F94" stroke-width="4" stroke-linecap="round" stroke-linejoin="round"/>
<path d="M1861.15 139.732V270.164" stroke="#7E8F94" stroke-width="4" stroke-linecap="round" stroke-linejoin="round"/>
<path d="M72.2037 455.836H30.7624V489.355H72.2037V455.836Z" fill="#7E8F94" stroke="#7E8F94" stroke-width="4" stroke-linecap="round" stroke-linejoin="round"/>
<path d="M1840.42 213.396H1881.86V179.876H1840.42V213.396Z" fill="#7E8F94" stroke="#7E8F94" stroke-width="4" stroke-linecap="round" stroke-linejoin="round"/>
<path d="M0.00817871 549.222V440.786" stroke="#8FC9AE" stroke-width="4" stroke-linecap="round" stroke-linejoin="round"/>
<path d="M1912.62 120.01V228.445" stroke="#8FC9AE" stroke-width="4" stroke-linecap="round" stroke-linejoin="round"/>
<path d="M20.7329 475.202H-20.7084V509.077H20.7329V475.202Z" fill="#8FC9AE" stroke="#8FC9AE" stroke-width="4" stroke-linecap="round" stroke-linejoin="round"/>
<path d="M1891.89 194.029H1933.33V160.154H1891.89V194.029Z" fill="#8FC9AE" stroke="#8FC9AE" stroke-width="4" stroke-linecap="round" stroke-linejoin="round"/>
<path d="M463.847 306.476V189.62" stroke="#8FC9AE" stroke-width="4" stroke-linecap="round" stroke-linejoin="round"/>
<path d="M1448.78 362.757V479.612" stroke="#8FC9AE" stroke-width="4" stroke-linecap="round" stroke-linejoin="round"/>
<path d="M484.563 197.248H443.121V266.341H484.563V197.248Z" fill="#8FC9AE" stroke="#8FC9AE" stroke-width="4" stroke-linecap="round" stroke-linejoin="round"/>
<path d="M1428.06 471.984H1469.5V402.892H1428.06V471.984Z" fill="#8FC9AE" stroke="#8FC9AE" stroke-width="4" stroke-linecap="round" stroke-linejoin="round"/>
<path d="M412.625 300.386V188.438" stroke="#7E8F94" stroke-width="4" stroke-linecap="round" stroke-linejoin="round"/>
<path d="M1500 368.845V480.793" stroke="#7E8F94" stroke-width="4" stroke-linecap="round" stroke-linejoin="round"/>
<path d="M433.341 211.537H391.9V274.148H433.341V211.537Z" fill="#7E8F94" stroke="#7E8F94" stroke-width="4" stroke-linecap="round" stroke-linejoin="round"/>
<path d="M1479.28 457.694H1520.72V395.083H1479.28V457.694Z" fill="#7E8F94" stroke="#7E8F94" stroke-width="4" stroke-linecap="round" stroke-linejoin="round"/>
<path d="M361.146 287.234V156.802" stroke="#7E8F94" stroke-width="4" stroke-linecap="round" stroke-linejoin="round"/>
<path d="M1551.48 381.998V512.431" stroke="#7E8F94" stroke-width="4" stroke-linecap="round" stroke-linejoin="round"/>
<path d="M381.871 213.574H340.43V247.094H381.871V213.574Z" fill="#7E8F94" stroke="#7E8F94" stroke-width="4" stroke-linecap="round" stroke-linejoin="round"/>
<path d="M1530.75 455.658H1572.19V422.139H1530.75V455.658Z" fill="#7E8F94" stroke="#7E8F94" stroke-width="4" stroke-linecap="round" stroke-linejoin="round"/>
<path d="M309.676 289.165V180.729" stroke="#8FC9AE" stroke-width="4" stroke-linecap="round" stroke-linejoin="round"/>
<path d="M1602.95 380.067V488.503" stroke="#8FC9AE" stroke-width="4" stroke-linecap="round" stroke-linejoin="round"/>
<path d="M330.4 215.157H288.959V249.032H330.4V215.157Z" fill="#8FC9AE" stroke="#8FC9AE" stroke-width="4" stroke-linecap="round" stroke-linejoin="round"/>
<path d="M1582.22 454.074H1623.67V420.199H1582.22V454.074Z" fill="#8FC9AE" stroke="#8FC9AE" stroke-width="4" stroke-linecap="round" stroke-linejoin="round"/>
<path d="M258.206 324.49V188.83" stroke="#8FC9AE" stroke-width="4" stroke-linecap="round" stroke-linejoin="round"/>
<path d="M1654.42 344.741V480.401" stroke="#8FC9AE" stroke-width="4" stroke-linecap="round" stroke-linejoin="round"/>
<path d="M278.93 224.152H237.489V284.345H278.93V224.152Z" fill="#8FC9AE" stroke="#8FC9AE" stroke-width="4" stroke-linecap="round" stroke-linejoin="round"/>
<path d="M1633.69 445.08H1675.14V384.887H1633.69V445.08Z" fill="#8FC9AE" stroke="#8FC9AE" stroke-width="4" stroke-linecap="round" stroke-linejoin="round"/>
<path d="M206.735 389.537V272.682" stroke="#8FC9AE" stroke-width="4" stroke-linecap="round" stroke-linejoin="round"/>
<path d="M1705.89 279.694V396.55" stroke="#8FC9AE" stroke-width="4" stroke-linecap="round" stroke-linejoin="round"/>
<path d="M227.451 280.309H186.01V349.401H227.451V280.309Z" fill="#8FC9AE" stroke="#8FC9AE" stroke-width="4" stroke-linecap="round" stroke-linejoin="round"/>
<path d="M1685.17 388.924H1726.61V319.831H1685.17V388.924Z" fill="#8FC9AE" stroke="#8FC9AE" stroke-width="4" stroke-linecap="round" stroke-linejoin="round"/>
<path d="M154.722 528.984V340.991" stroke="#8FC9AE" stroke-width="4" stroke-linecap="round" stroke-linejoin="round"/>
<path d="M1757.9 140.247V328.24" stroke="#8FC9AE" stroke-width="4" stroke-linecap="round" stroke-linejoin="round"/>
<path d="M175.447 348.62H134.006V488.841H175.447V348.62Z" fill="#8FC9AE" stroke="#8FC9AE" stroke-width="4" stroke-linecap="round" stroke-linejoin="round"/>
<path d="M1737.18 320.611H1778.62V180.39H1737.18V320.611Z" fill="#8FC9AE" stroke="#8FC9AE" stroke-width="4" stroke-linecap="round" stroke-linejoin="round"/>
<path d="M927.729 383.696V212.472" stroke="#7E8F94" stroke-width="4" stroke-linecap="round" stroke-linejoin="round"/>
<path d="M984.895 285.536V456.761" stroke="#7E8F94" stroke-width="4" stroke-linecap="round" stroke-linejoin="round"/>
<path d="M948.456 281.465H907.014V343.56H948.456V281.465Z" fill="#7E8F94" stroke="#7E8F94" stroke-width="4" stroke-linecap="round" stroke-linejoin="round"/>
<path d="M964.169 387.768H1005.61V325.672H964.169V387.768Z" fill="#7E8F94" stroke="#7E8F94" stroke-width="4" stroke-linecap="round" stroke-linejoin="round"/>
<path d="M876.26 447.176V275.942" stroke="#8FC9AE" stroke-width="4" stroke-linecap="round" stroke-linejoin="round"/>
<path d="M1036.36 222.056V393.289" stroke="#8FC9AE" stroke-width="4" stroke-linecap="round" stroke-linejoin="round"/>
<path d="M896.985 311.269H855.543V407.034H896.985V311.269Z" fill="#8FC9AE" stroke="#8FC9AE" stroke-width="4" stroke-linecap="round" stroke-linejoin="round"/>
<path d="M1015.64 357.965H1057.08V262.199H1015.64V357.965Z" fill="#8FC9AE" stroke="#8FC9AE" stroke-width="4" stroke-linecap="round" stroke-linejoin="round"/>
<path d="M824.79 351.101V212.472" stroke="#7E8F94" stroke-width="4" stroke-linecap="round" stroke-linejoin="round"/>
<path d="M1087.83 318.131V456.761" stroke="#7E8F94" stroke-width="4" stroke-linecap="round" stroke-linejoin="round"/>
<path d="M845.506 247.796H804.064V307.997H845.506V247.796Z" fill="#7E8F94" stroke="#7E8F94" stroke-width="4" stroke-linecap="round" stroke-linejoin="round"/>
<path d="M1067.12 421.436H1108.56V361.234H1067.12V421.436Z" fill="#7E8F94" stroke="#7E8F94" stroke-width="4" stroke-linecap="round" stroke-linejoin="round"/>
<path d="M773.309 274.28V174.193" stroke="#7E8F94" stroke-width="4" stroke-linecap="round" stroke-linejoin="round"/>
<path d="M1139.31 394.951V495.038" stroke="#7E8F94" stroke-width="4" stroke-linecap="round" stroke-linejoin="round"/>
<path d="M794.035 209.511H752.593V234.139H794.035V209.511Z" fill="#7E8F94" stroke="#7E8F94" stroke-width="4" stroke-linecap="round" stroke-linejoin="round"/>
<path d="M1118.59 459.722H1160.03V435.093H1118.59V459.722Z" fill="#7E8F94" stroke="#7E8F94" stroke-width="4" stroke-linecap="round" stroke-linejoin="round"/>
</svg>
