<svg width="26" height="26" viewBox="0 0 26 26" fill="none" xmlns="http://www.w3.org/2000/svg">
<path d="M14.7164 10.1664H12.2129V7.66289C12.2129 7.08906 11.7508 6.62695 11.177 6.62695C10.6031 6.62695 10.141 7.08906 10.141 7.66289V10.1664H7.6375C7.06367 10.1664 6.60156 10.6285 6.60156 11.2023C6.60156 11.7762 7.06367 12.2383 7.6375 12.2383H10.141V14.7418C10.141 15.3156 10.6031 15.7777 11.177 15.7777C11.7508 15.7777 12.2129 15.3156 12.2129 14.7418V12.2383H14.7164C15.2902 12.2383 15.7523 11.7762 15.7523 11.2023C15.7523 10.6285 15.2852 10.1664 14.7164 10.1664Z" fill="#385B66"/>
<path d="M11.182 19.7389C6.46445 19.7389 2.64062 15.9201 2.64062 11.2025C2.64062 6.48496 6.46445 2.66621 11.182 2.66621C15.8996 2.66621 19.7184 6.49004 19.7184 11.2025C19.7184 15.915 15.8945 19.7389 11.182 19.7389ZM25.1367 23.6998L19.3832 17.9463C20.8914 16.1131 21.8004 13.7619 21.8004 11.2025C21.8004 5.33731 17.0473 0.579102 11.177 0.579102C5.30664 0.579102 0.558594 5.33731 0.558594 11.2025C0.558594 17.0678 5.31172 21.826 11.182 21.826C13.7414 21.826 16.0875 20.9221 17.9207 19.4139L23.6742 25.1674C23.9383 25.4365 24.7457 25.5686 25.1418 25.1674C25.543 24.7611 25.543 24.1061 25.1367 23.6998Z" fill="#385B66"/>
</svg>
